<svg xmlns="http://www.w3.org/2000/svg" viewBox="0 0 202 116"><path d="M25.2 36.8l-7-20.3-6.2.6v40.2l6.3-.6V34.1l5 15.3 3.5-.3 5-16.1v22.5l6.3-.5V14.8l-6.2.5zm37 16.1V12.7l-6.3.5v16.9l-6.2.5V13.8l-6.3.5v40.2l6.3-.5V36.7l6.2-.6v17.3zm7.7-2.8c1.6 1.4 3.6 2.1 5.9 2.1h1c2.7-.2 5.1-1.4 6.8-3.2 2.7-2.9 2.9-5.9 2.9-8.9V21.4c0-3.1-.2-6-2.9-8.5-1.8-1.6-4.2-2.3-6.9-2.1-2.7.2-5.1 1.4-6.8 3.2-2.7 3-2.9 6-2.9 9v18.6c0 3.1.2 6 2.9 8.5zm3.4-8.1V21.7c0-1.1.1-2.1 1-3.2.3-.4 1.1-1.1 2.5-1.2h.4c1.1 0 1.8.5 2.1.7.9.9 1 1.9 1 3v20.3c0 1.1-.1 2.1-1 3.2-.3.4-1.1 1.1-2.5 1.2-1.4.1-2.1-.4-2.5-.7-.9-.9-1-1.9-1-3zm24.4-26.1l10.8-1V8.6l-17.1 1.5v40.2l6.3-.5zm14.1 30.5c1.6 1.4 3.6 2.1 5.9 2.1h1c2.7-.2 5.1-1.4 6.8-3.2 2.7-2.9 2.9-5.9 2.9-8.9V17.7c0-3.1-.2-6-2.9-8.5-1.8-1.6-4.2-2.3-6.9-2.1-2.7.2-5.1 1.4-6.8 3.2-2.7 2.9-2.9 5.9-2.9 8.9v18.6c0 3.2.2 6.2 2.9 8.6zm3.4-8.1V18c0-1.1.1-2.1 1-3.2.3-.4 1.1-1.1 2.5-1.2h.4c1.1 0 1.8.5 2.1.7.9.9 1 1.9 1 3v20.3c0 1.1-.1 2.1-1 3.2-.3.4-1.1 1.1-2.5 1.2-1.4.1-2.1-.4-2.5-.7-.9-.9-1-1.9-1-3zM68.6 88.2c0 1.3-.2 2.3-.7 3-.5.8-1.5 1.3-2.6 1.4-1.3.1-2-.6-2.3-1-.6-.8-.6-1.9-.6-3.1V69.2c0-1.3.1-2.6.8-3.6.6-.8 1.4-1.2 2.4-1.3 1.3-.1 2 .5 2.3.9.4.6.6 1.5.6 2.2v2.8l6.1-.5v-3.1c0-2.6-.9-5.1-2.5-6.7-1.6-1.5-4.3-2.3-6.8-2.1-1.8.2-4.5 1-6.4 3-2.5 2.5-2.8 5.6-2.8 8.3v20.5c0 2 0 4.8 2 7.1 1.5 1.7 3.5 2.6 6.1 2.6h1c4.2-.4 6.4-2.3 7.3-3.4.9-1.1 2.3-3.4 2.3-7.7V86l-6.3.6v1.6zm28.6-32.7l-15.4 1.3v3.3c0 4.6-.1 15.9-1.1 22-.5 3.2-1.3 6.2-2.6 9.2l-2.6.2v12.1l6-.5v-6L94.2 96v6l6-.5V89.4l-3 .3V55.5zm-6.3 6.6v28.4l-6.3.5c.9-2.4 1.5-4.6 2-7.4.8-4.8 1.2-10.9 1.2-18.6v-2.6l3.1-.3zm18 15.3l9.3-.8v-6.1l-9.3.8V60.8l10.5-.9v-6.3L102.6 55v40.2l16.9-1.4v-6.4l-10.6 1zM126.1 64c0 4.4-.2 6.9-.3 9.5l-.1 1.1c-.2 3.4-.6 8-1 9.6-.1.3-.5 1.6-1.7 2.5-.7.5-1.3.6-1.8.6l-1 .1v6.3l1.8-.2c2.1-.2 4.4-.7 6.5-3.4 1.8-2.2 2.3-4.3 2.6-6.1.3-1.7.6-4.2.8-7.4.2-2.3.2-4.7.3-8.7l.3-9.5 3.3-.3v34.2l6.3-.6V51.6L126.2 53l-.1 11zm45.6-4c0 4.5-.2 6.9-.3 9.6l-.1 1c0 .8-.4 7.4-1 9.6-.1.3-.5 1.6-1.7 2.5-.7.5-1.3.6-1.8.6l-1 .1v1.5l-7.3-34.7-5.5.5-8.3 40.9 6.3-.6 1.7-8.6 6-.5 1.7 8.2 5.3-.5h.2l.8-.1.8-.1c2.1-.2 4.4-.7 6.5-3.4 1.8-2.2 2.3-4.3 2.6-6.1.3-1.7.6-4.2.8-7.4.2-2.3.2-4.7.3-8.7l.3-9.5 3.3-.3v34.2l6.3-.6v-40L171.9 49l-.2 11zm-13.8 16l-4.4.4 2.2-11.9 2.2 11.5zm34.5 11.4l6.8-.6v-7.2l-6.8.6zm6-10.3l1.2-30.5-7.4.6 1 30.3z"/><path d="M37 116l-37-6.3V71.8h37zm129.5-84.3l-29 6.1V0h29z" fill="#fdf38b"/></svg>