<svg width="160" height="16" xmlns="http://www.w3.org/2000/svg"><path d="M92.537 1.342c-1.131.19-2.031.356-2.06.381-.028.022-1.231 1.517-2.675 3.324L85.164 8.34c-.006.01-.24-.212-.519-.49-.49-.488-.516-.507-.637-.507-.229 0-.397.222-.322.426.018.05.25.309.515.575l.485.484-1.516 1.516-1.513 1.514-.072-.066c-.175-.163-.415-.15-.525.031-.075.119-.078.213-.019.328.079.147 2.776 2.814 2.87 2.836a.313.313 0 0 0 .322-.097c.128-.14.118-.322-.025-.475l-.066-.072 1.513-1.513 1.515-1.516.485.484c.266.266.525.497.575.516.203.075.425-.094.425-.322 0-.122-.019-.147-.506-.638-.307-.306-.494-.519-.478-.538.018-.012 1.51-1.21 3.319-2.654 3-2.4 3.291-2.641 3.322-2.748.041-.143.688-4.03.688-4.132 0-.041-.047-.12-.106-.179-.088-.087-.128-.106-.225-.103-.069.003-1.025.157-2.132.341zm1.713.444c0 .022-.125.785-.278 1.691-.225 1.344-.285 1.663-.335 1.71-.031.032-1.5 1.213-3.263 2.623l-3.203 2.564-.266-.266-.266-.263 2.338-2.338c1.744-1.748 2.335-2.357 2.341-2.413.01-.163-.012-.238-.094-.32-.08-.08-.156-.103-.318-.093-.057.006-.666.597-2.413 2.341l-2.338 2.339-.263-.266-.266-.266 2.563-3.204a471.604 471.604 0 0 1 2.623-3.264c.047-.05.36-.11 1.678-.334.89-.15 1.65-.272 1.691-.275.038-.004.069.015.069.034zm-8.908 7.7l.169.172h-.682l.17-.172.171-.172.172.172zm1.103 1.103l.241.244-.087.085-.088.084h-3.029l.329-.328.328-.328h2.063l.243.243zm-.931 1.413l-.344.344h-3.032l.344-.344.344-.344h3.032l-.344.344zm-1.431 1.429l-.429.431-.428-.431-.431-.428h1.719l-.431.428zM39.446 1.216c-.208.181-5.426 8.18-7.11 10.906-.436.69-.446 1.11-.04 1.55l.3.328H47.46l.27-.35c.156-.204.27-.487.27-.68 0-.248-.863-1.662-3.596-5.927-1.975-3.077-3.711-5.702-3.856-5.827-.344-.283-.76-.294-1.102 0zM42.51 7.91a353.36 353.36 0 0 1 2.49 4c.01.045-2.233.091-5 .091-2.766 0-5.02-.034-5-.091.051-.171 4.95-7.91 5-7.91.031 0 1.158 1.756 2.51 3.909zM12.03.326C9.9 1.648 1.39 7.199 1.22 7.376c-.293.302-.293.979 0 1.239.124.114 2.705 1.801 5.737 3.759 3.618 2.333 5.625 3.572 5.873 3.613.292.042.44-.01.744-.26l.383-.313.034-7.122c.022-3.915 0-7.269-.034-7.466-.169-.864-1.003-1.083-1.927-.5zM12 8v5l-.31-.183C10.203 11.962 4 8.05 4 7.97c0-.092 7.747-4.96 7.92-4.97.045 0 .08 2.25.08 5zM18.38.248a1.392 1.392 0 0 0-.337.593c-.034.198-.056 3.548-.034 7.459l.034 7.115.383.312c.303.25.45.302.742.26.518-.083 11.5-7.188 11.725-7.594.202-.363.113-.8-.225-1.092C30.387 7.06 19.967.3 19.596.123c-.405-.207-.923-.145-1.215.125zm5.7 5.206c2.178 1.354 3.943 2.494 3.92 2.545-.023.061-6.602 4.186-7.736 4.858L20 13V8c0-2.75.035-5 .069-5 .035 0 1.846 1.11 4.011 2.454zm47.956-.682c-1.178.172-2.25.986-2.787 2.106-.22.46-.249.651-.249 1.532 0 .91.029 1.063.268 1.55a3.75 3.75 0 0 0 1.772 1.734c.585.277.728.306 1.552.306.814 0 .977-.029 1.532-.297a3.97 3.97 0 0 0 1.782-1.742c.258-.498.278-.632.278-1.55 0-.843-.039-1.082-.22-1.475-.71-1.542-2.261-2.393-3.928-2.164zm1.063 1.829c.824.22 1.494 1.244 1.341 2.03-.191.995-.89 1.598-1.848 1.598-2.088 0-2.577-2.891-.613-3.59.459-.163.65-.172 1.12-.038zM48.498 2.168c-.312.18-.55.732-.488 1.104.052.27 7.111 11.294 7.413 11.564.27.248.946.203 1.185-.056.114-.124 1.819-2.725 3.795-5.788C62.7 5.445 64 3.328 64 3.16c0-.44-.28-.901-.634-1.036C63.137 2.034 60.86 2 55.9 2c-5.958.01-7.174.033-7.403.168zM61 4.046C61 4.184 56.082 12 56 12c-.081 0-5-7.816-5-7.954C51 4.023 53.255 4 56 4c2.755 0 5 .023 5 .046z"/></svg>