<svg width="63" height="66" xmlns="http://www.w3.org/2000/svg"><g fill="none" fill-rule="evenodd"><path d="M23.062 49.118c4.276 9.647 11.61 12.513 22.005 8.598.92-.347 2.696 1.081 3.515.683 5.624-2.73 8.412-10.13 8.365-22.204" stroke="#D8D8D8" stroke-width="11"/><g stroke="#000" stroke-width="2"><path d="M29.267 32.597L20.48 13.753l4.548-2.12M48.832 58.57c-14.084 8.714-23.87 7.578-29.361-3.407-4.286-6.846-4.135-12.279.455-16.3L2.337 22.75l5.216-1.899L24.925 34.52l2.795-1.353"/><path d="M43.485 57.86c-6.478 4.66-11.618 2.665-15.421-5.986-3.804-8.65-1.776-13.331 6.082-14.042l8.176 17.535"/><path d="M43.726 60.692C59.36 55.23 64.637 46.91 59.556 35.73c-2.623-7.639-6.941-10.94-12.955-9.904l-1.453-23.81-4.758 2.86-.31 22.102-2.81 1.32-1.418.843-9.114-18.687-4.51 2.2"/><path d="M46.423 56.044c7.698-2.101 9.382-7.352 5.053-15.751-4.33-8.4-9.242-9.77-14.74-4.11l8.481 17.389"/></g></g></svg>