<svg xmlns="http://www.w3.org/2000/svg" xmlns:xlink="http://www.w3.org/1999/xlink" width="46" height="56"><defs><path id="a" d="M911.53 982.515v16.555h3.995l1.383-41.882s-19.642-2.324-20.041 12.338c-.399 14.662-1.184 9.573 5.813 11.61 6.998 2.036-7.27 17.546-7.27 17.546l4.403-.386 7.936-15.708 2.473.035"/><path id="b" d="M912.246 984.208V1005h5.017L919 952.4s-24.67-2.92-25.17 15.495c-.501 18.414-1.487 12.024 7.301 14.58 8.789 2.558-9.131 22.038-9.131 22.038l5.53-.484 9.967-19.73 3.105.045"/><path id="c" d="M911.635 957.923s-11.76-2.229-11.447 11.942c.313 14.171 11.447 10.156 11.447 10.156v-19.347"/></defs><use fill="#fff" fill-opacity="0" stroke="#d8d8d8" stroke-miterlimit="50" stroke-width="12" xlink:href="#a" transform="rotate(3 18624.612 -16280.328)"/><use fill="#fff" fill-opacity="0" stroke="#000" stroke-miterlimit="50" stroke-width="2" xlink:href="#b" transform="rotate(3 18624.612 -16280.328)"/><use fill="#fff" fill-opacity="0" stroke="#000" stroke-miterlimit="50" stroke-width="2" xlink:href="#c" transform="rotate(3 18624.612 -16280.328)"/></svg>