<svg xmlns="http://www.w3.org/2000/svg" viewBox="0 0 40 40"><path d="M20.3 6.9l1.4-1.4h1.8l.4 1.4-1.8 1.5c1.4 2 2.2 3.5 2.2 4.4v.7c0 4-1.9 7.7-5.7 11.3-1.3 1.2-3.2 2.7-5.9 4.3l-.7 1.2c-.6 1.1-1.2 2.1-1.8 2.9-.6.9-1 1.3-1.2 1.4l-.8-.7c1-1.9 1.5-3.5 1.5-4.8-1.1-.4-2-.9-2.6-1.4C5.7 26.5 5 24.5 5 21.8c0-2.5.6-4.8 1.7-7.2 1.2-2.4 2.6-4.1 4.2-5 .5-.3 1.3-.5 2.5-.6 1.2-.7 3.5-1.4 6.9-2.1zM7.9 20.4l-.4 1.8c.3 2.9.9 4.4 1.8 4.4h1.1c.4 0 1.2-1.3 2.3-3.9 1.2-2.7 2.3-5.5 3.2-8.5.2-.6.6-1.9 1.4-3.6h-1.5C11.9 12 10 13.9 10 16.4c-.4 2.1-1.1 3.5-2.1 4zm6.6 3.6v.8h.4c2.1-1.4 3.7-2.7 4.6-3.8 1.8-2 2.6-4 2.6-6v-1.8l-1.5-1.4h-.3c-1.4 1.5-3.4 5.6-5.8 12.2zm12.1-1.1l.3-.3h.5l.4.1c.9.3 1.4.5 1.4.8 0 .2-.6.5-1.7.7 0 0-.2 0-.5.1-.2-.4-.4-.9-.4-1.4zm8-3.4l.3.5c-.1.6-1 2.3-2.8 4.9-.2.3-.5.8-.8 1.3l-.3.9c-.3.9-.7 1.6-1.1 2.2-.4.6-.7.9-.8.9h-.2c-.2 0-.3-.2-.5-.7l3.9-7.7c.3-.6.7-1.2 1.2-1.7.5-.4.9-.7 1.1-.6zm-1.9 9l.5-.7h.3c.5.3.8.7.8 1.2l-.5.3h-.2c-.6 0-.9-.3-.9-.8z" fill="#010101"/></svg>