<svg xmlns="http://www.w3.org/2000/svg" viewBox="0 0 40 40"><path d="M13.9 11.5v.4c-.5 1.7-2.1 3.6-4.7 5.6l.2.3c1.2.6 2.1 1.1 2.8 1.6.6.5 1.2 1.1 1.7 1.9.4.7.7 1.5.7 2.4v.6c.2 0 .4.3.5.9.2.6.2 1.2.2 1.8 0 1.4-.3 2.3-1 2.9s-1.8.9-3.5 1l-8.7-4.1.1-1.2c0-.3.2-.5.7-.5h.2l8.3 3.5 1.3.1.9-.8v-.3l.1-.9c.1-2.1-.7-3.9-2.6-5.4-.5-.4-1.4-.9-2.5-1.3-.8-.1-1.4-.3-1.8-.6-.4-.3-.6-.8-.6-1.4v-.3l5.6-4.9.1-1.2-1-.1h-.3c-1.7 0-3.8 1-6.2 3.1l-.5-.1v-.6h-.3c2.3-3 4.8-4.5 7.5-4.5.9 0 1.5.2 2 .6.5.2.8.7.8 1.5zm14 0v.4c-.5 1.7-2.1 3.6-4.7 5.6l.2.3c1.2.6 2.1 1.1 2.8 1.6.6.5 1.2 1.1 1.7 1.9.4.7.7 1.5.7 2.4v.6c.2 0 .4.3.5.9.2.6.2 1.2.2 1.8 0 1.4-.3 2.3-1 2.9s-1.8.9-3.5 1l-8.7-4.1.1-1.2c0-.3.2-.5.7-.5h.2l8.3 3.5 1.3.1.9-.8v-.3l.1-.9c.1-2.1-.7-3.9-2.6-5.4-.5-.4-1.4-.9-2.5-1.3-.8-.1-1.4-.3-1.8-.6-.4-.3-.6-.8-.6-1.4v-.3l5.6-4.9.1-1.2-1-.1h-.3c-1.7 0-3.8 1-6.2 3.1l-.5-.1v-.6h-.2c2.3-3 4.8-4.5 7.5-4.5.9 0 1.5.2 2 .6.4.2.7.7.7 1.5zm2.7 11.3l.3-.3h.4l.4.1c.8.2 1.2.5 1.2.7 0 .2-.5.4-1.4.6 0 0-.2 0-.4.1-.4-.3-.5-.7-.5-1.2zm6.9-3l.3.4c-.1.5-.9 2-2.4 4.3-.2.3-.4.7-.7 1.1l-.3.8c-.3.8-.6 1.4-.9 2-.3.5-.6.8-.7.8h-.1c-.1 0-.3-.2-.4-.6l3.4-6.7c.3-.6.6-1.1 1-1.5.3-.4.6-.6.8-.6zm-1.7 7.9l.4-.6h.3c.5.3.7.6.7 1l-.4.3h-.1c-.6 0-.8-.3-.9-.7z" fill="#010101"/></svg>