<svg xmlns="http://www.w3.org/2000/svg" viewBox="0 0 40 40"><path d="M9.1 10.8l1.6-.6c1.6 0 3 .8 4.1 2.5v.9c-.4.8-1.1 1.3-1.9 1.3-.4-1.5-1.2-2.2-2.2-2.2-1.6 0-3.3 1.2-5 3.6-.7 1-1.4 2.3-2.3 4-.2.8-.3 1.6-.3 2.2 0 1.1.3 1.9.9 2.6 1.5-.8 2.8-1.3 3.8-1.3h1.6c1.2 0 2.2.2 2.9.7.7.5 1.2 1.3 1.6 2.4 0 .4-.1.7-.2.9-.3.6-.9 1-1.8 1.4-.9.4-1.8.6-2.8.6H6.9L5 29.5l-1.7-.8C1.7 27.1.9 25.2.9 22.9c0-2.5.8-4.9 2.4-7.2 1.5-2.3 3.5-3.9 5.8-4.9zM8.5 26l-2.9.6v.9l2.5.3 3.2-.7V27c-.3-.6-.9-.9-1.9-.9h-.9zm16.1-15.2l1.6-.6c1.6 0 3 .8 4.1 2.5v.9c-.4.8-1.1 1.3-1.9 1.3-.4-1.5-1.2-2.2-2.2-2.2-1.6 0-3.3 1.2-5 3.6-.7 1-1.4 2.3-2.3 4-.2.8-.3 1.6-.3 2.2 0 1.1.3 1.9.9 2.6 1.5-.8 2.8-1.3 3.8-1.3h1.6c1.2 0 2.2.2 2.9.7.7.5 1.2 1.3 1.6 2.4 0 .4-.1.7-.2.9-.3.6-.9 1-1.8 1.4-.9.4-1.8.6-2.8.6h-2.2l-1.9-.3-1.7-.8c-1.6-1.6-2.4-3.5-2.4-5.8 0-2.5.8-4.9 2.4-7.2 1.5-2.3 3.5-3.9 5.8-4.9zM24 26l-2.9.6v.9l2.5.3 3.2-.7V27c-.3-.6-.9-.9-1.9-.9H24zm7.8-3.2l.3-.3h.4l.4.1c.8.2 1.2.5 1.2.7 0 .2-.5.4-1.4.6 0 0-.2 0-.4.1-.3-.3-.5-.7-.5-1.2zm7-3l.3.4c-.1.5-.9 2-2.4 4.3-.2.3-.4.7-.7 1.1l-.3.8c-.3.8-.6 1.4-.9 2-.3.5-.6.8-.7.8H34c-.1 0-.3-.2-.4-.6l3.4-6.7c.3-.6.6-1.1 1-1.5.3-.4.6-.6.8-.6zm-1.7 7.9l.4-.6h.3c.5.3.7.6.7 1l-.4.3H38c-.6 0-.9-.3-.9-.7z" fill="#010101"/></svg>