<svg xmlns="http://www.w3.org/2000/svg" viewBox="0 0 40 40"><path d="M7.3 10.5v-.3l.3.3h2.5c.9 0 1.8.2 2.5.6.8.4 1.4 1 1.7 1.7.3.5.4 1.2.5 2.1l-.8 3.2.6 7.9c-.1 2.3-1.8 3.6-5.1 4.1-5.1-1-7.7-2.4-7.6-4.1l.6-.6 6.7 2.2h1.3c.7 0 1.3-.2 1.6-.7.3-.5.5-1.2.6-2.2l-.9-5.4H8.9c-1.2 0-2.2-.3-2.9-.9-.8-.6-1.4-1.6-1.9-2.9v-.3l.3-2.2-.3-1.6c.6-.6 1.7-.9 3.2-.9zm5.4 3.5l-1.9-1.6H8.2c-.5 0-.9.8-1.4 2.5l-.2.7c0 .5.3 1 .8 1.4.5.4 1.1.6 1.9.6.7 0 1.3-.2 1.8-.7.5-.5 1-1.3 1.5-2.5V14zm8.9-3.5v-.3l.3.3h2.5c.9 0 1.8.2 2.5.6.8.4 1.4 1 1.7 1.7.3.5.4 1.2.5 2.1l-.9 3.2.6 7.9c-.1 2.3-1.8 3.6-5.1 4.1-5.1-1-7.7-2.4-7.6-4.1l.6-.6 6.7 2.2h1.3c.7 0 1.3-.2 1.6-.7s.5-1.2.6-2.2l-.9-5.3h-2.9c-1.2 0-2.2-.3-2.9-.9-.8-.6-1.4-1.6-1.9-2.9v-.3l.3-2.2-.3-1.6c.7-.7 1.8-1 3.3-1zM27 14l-1.9-1.6h-2.5c-.5 0-.9.8-1.4 2.5l-.2.7c0 .5.3 1 .8 1.4.5.4 1.1.6 1.9.6.7 0 1.3-.2 1.8-.7.5-.5 1-1.3 1.5-2.5V14zm3.8 9l.3-.3h.4l.4.1c.8.2 1.2.5 1.2.7 0 .2-.5.4-1.4.6 0 0-.2 0-.4.1-.4-.3-.5-.7-.5-1.2zm6.9-3l.3.4c-.1.5-.9 2-2.4 4.3-.2.3-.4.7-.7 1.1l-.3.8c-.3.8-.6 1.4-.9 2-.3.5-.6.8-.7.8h-.1c-.1 0-.3-.2-.4-.6l3.4-6.7c.3-.6.6-1.1 1-1.5.3-.4.6-.6.8-.6zM36 27.9l.4-.6h.3c.5.3.7.6.7 1l-.4.3h-.1c-.5 0-.8-.3-.9-.7z" fill="#010101"/></svg>