<svg version="1.1" id="Layer_1" xmlns="http://www.w3.org/2000/svg" x="0" y="0" viewBox="0 0 75 75" xml:space="preserve"><style>.st0{fill:#010101}</style><path class="st0" d="M39.3 47.4h6.2v9.2c-.7.7-1.5 1.2-2.5 1.5-.9.3-1.9.5-2.8.5-1.1 0-2.1-.2-3.1-.6-.9-.4-1.7-1.1-2.3-1.9-.6-.9-1.1-2-1.5-3.3-.4-1.3-.5-3-.5-4.9 0-2 .2-3.6.6-5 .4-1.4 1-2.5 1.7-3.3.7-.9 1.5-1.5 2.4-1.9.9-.4 1.9-.6 2.9-.6.9 0 1.8.1 2.5.3.8.2 1.4.4 1.9.6l-.7 3.2c-.4-.2-.8-.3-1.3-.4-.5-.1-1.1-.2-1.8-.2s-1.3.1-1.8.4c-.5.3-1 .7-1.4 1.3-.4.6-.7 1.4-.9 2.3-.2.9-.3 2.1-.3 3.4 0 2.5.4 4.3 1.1 5.5.7 1.2 1.7 1.8 2.9 1.8.4 0 .7-.1 1.1-.2.4-.1.7-.3.9-.6v-4.3l-3.3-.5v-2.3zm22.1 10.7H50.8V37.4h3.6v17.2h7.1v3.5zM75 40.9h-4.8v17.2h-3.6V40.9h-4.8v-3.4H75v3.4z"/><path d="M32.8 28.6L.8 45.4 0 34.2l32-16.8zm17.5-.9l-9.4 5.1-.8-11.2 9.4-5.2z" fill="#d8d9d8"/><path class="st0" d="M32.3 26.5C22.5 30.8 12.8 35.1 3 39.4c.7.2 1.4.5 2.1.7v-5.5c0-.8.4-2.7 0-3.5-.4-1 .5-1.2-.7-.2 2.1-1.7 5.8-2.6 8.3-3.6 7-3.1 13.9-6.1 20.9-9.2-.7-.2-1.4-.5-2.1-.7v10c0 1.5 2.9 1 2.9-.2v-10c0-1.1-1.4-1-2.1-.7-9.8 4.3-19.5 8.6-29.3 12.9-.3.1-.8.5-.8.9v10c0 1.1 1.4 1 2.1.7 9.8-4.3 19.5-8.6 29.3-12.8 1.8-.9.1-2.3-1.3-1.7zm14.8-.3c-2.9 1.3-5.7 2.6-8.6 4 .7 0 1.3.1 2 .1v-10l-.9.9c2.9-1.3 5.7-2.6 8.6-4-.7 0-1.3-.1-2-.1v10c0 .7 2.9.2 2.9-.8v-10c0-.6-1.8-.2-2-.1-2.9 1.3-5.7 2.6-8.6 4-.4.2-.9.4-.9.9v10c0 .6 1.8.2 2 .1 2.9-1.3 5.7-2.6 8.6-4 1.8-.9.1-1.6-1.1-1z"/></svg>