<svg xmlns="http://www.w3.org/2000/svg" viewBox="0 0 75 75"><path d="M.8 30.5C3.8 11.8 23.3-2.1 42 1.2c9 .9 16.9 6 23 12.4-3.4 2.9-6.9 5.7-10.6 8.2C47 14.9 35.5 11.6 26.3 17c-13 6.5-16.3 25.7-6.2 36.1 9.6 11.6 31.2 9.6 36.4-5.3-6.9-1.1-13.8-2-20.7-3.2.6-4.1 1.1-8.3 1.8-12.4 11.6 1.6 23.1 3.3 34.7 5-.7 9.8-3.5 20-10.6 27.1-10.9 11.4-29.5 12.5-42.9 5C5.3 62.1-2.6 45.6.8 30.5z" fill="#d8d9d8"/><path d="M74.9 31.8c0-.4-.6-.5-.9-.5-11.2-.1-22.3-.1-33.5 0-.5 0-2 .3-2 1v11.9c0 .5.4.7.9.7h1.9v-12h18.5c3 0 6.3-.4 9.3 0 3 .4 3 .4 3 4 0 1.3-.1 2.6-.2 4-1 12.3-7.3 23.4-19.1 28C30.2 78 5.2 59.5 6.5 35.3 7 21.6 16.3 8.9 29.4 4.6c7.5-2.5 16.1-2 23.4 1.2 1.8.8 7.4 2.9 8.2 4.9.7 1.8-4 5.9-6.4 8.1-9.7-5.8-21.6-6-30.4 1.8-7.6 6.8-9.3 18.8-4.6 27.8 8.9 16.9 37.4 15.4 41.9-4.1.1-.5-.5-.7-.9-.7-5.5-.1-10.9-.1-16.4-.1v1.8c4.7.1 9.5.1 14.2.1-4.7 17.4-29.3 16.6-36.5 1.3-3.2-6.8-2.7-15.2 1.4-21.5 6.9-10.7 20.3-10.6 30.1-4.2.6.4 1.8 0 2.3-.4 3.1-2.9 6-6 8.9-9.2.3-.4.4-.7 0-1C53.1 1.3 38.2-1.7 24.8 4.6c-12.1 5.7-20.6 17.6-21.2 31-1.1 21.2 16.9 38.3 37.8 37.5 9-.4 18-3.8 24.3-10.4 8-8.3 9.8-19.7 9.2-30.9z" fill="#231f20"/></svg>