<svg version="1.1" id="Layer_1" xmlns="http://www.w3.org/2000/svg" x="0" y="0" viewBox="0 0 75 75" xml:space="preserve"><style>.st1{fill:#231f20}</style><path d="M65.8 41.7c3.3-.1 6.4 1 9.2 2.7-4.2 4.4-8.5 8.8-13.3 12.7-4 3.3-9.4 3.9-14.3 3.5-5.8-.6-11.5-2.5-16.5-5.6 4.1 1.1 8.6.3 12.4-1.6 5.8-2.7 10.4-7.4 16.3-10 1.9-.9 4-1.7 6.2-1.7z" fill-rule="evenodd" clip-rule="evenodd" fill="#d8d9d8"/><path class="st1" d="M2.2 25C-4.1 41.3 3.5 60.4 20 66.9c13.5 5.3 29.5 1 38.7-10.2.7-.9-1.6-.6-1.8-.5C45.5 61 32.4 58.1 23 50.5c-3.8-3.1-7-7.1-9-11.6-2.1-4.7-3.6-13.4 2.4-16.3.3-.2.9-.7.3-1-5.2-1.7-11.2-1.9-14.4 3.3-.6 1 2.2.6 2.6-.1 1.8-2.9 6.6-2.9 9.5-1.9.1-.3.2-.6.3-1-5.2 2.4-6.2 8.9-4.9 14 1.7 6.6 6.3 12.5 11.7 16.5C32 60.3 45.9 62.3 58 57.2c-.6-.2-1.2-.3-1.8-.5C46 69 27.9 71.3 15.2 61.5 3.7 52.8 0 37.8 5 24.6c.3-.7-2.5-.4-2.8.4z"/><path class="st1" d="M63.8 25.5C48 28 45.7 53.2 28 50.3c-.6-.1-3.3.7-2 1.5 4.4 2.8 7.1 4.6 12.4 3.5 4.3-.9 7.9-3.3 11.2-6 2.1-1.7 4-3.6 6.1-5.3 1.5-1.2 3.1-2.4 4.9-3.3 1.3-.6 2.9-.8 4.1-1.5 3.8-2.4 7-8.8 9.6-12.3.3-.4-.1-.8-.5-.9-3.4-.5-6.6-.7-10-.5-1.4.1-2.3 1.8-.4 1.7 1.7-.2 3.5-.2 5.2 0 2.1.5 2.4 1.3.7 2.6-.5 1.8-3.2 4.5-4.4 5.9-2.5 2.8-5.7 3.6-8.7 5.6-3.2 2.2-5.9 5-8.9 7.5-2.9 2.4-6.5 5-10.4 5.2-3.5.1-5.9-1.8-8.7-3.6-.7.5-1.3 1-2 1.5 5.7.9 11.3.5 15.7-3.7 2.9-2.7 5.4-6 8-9.1 3.6-4.3 7.5-11 13.6-12 1.4-.2 2.3-1.9.3-1.6z"/><path class="st1" d="M63.4 39.2c1.5-.1 6.8-.6 7 2.5 0 .8-2.1 2.8-2.6 3.4-2.2 2.8-4.4 5.8-7.1 8.3-7 6.5-18.1 4.5-26 1-.8.3-1.5.7-2.3 1 4.5.3 8.6-.7 12.5-3 6.4-3.7 11.3-11.7 18.8-13.2 1.1-.2 2.5-1.4.5-1-11.4 2.4-17.7 16.9-30 16.1-.3 0-2.8.8-2.3 1 7.5 3.3 16.3 4.6 24.2 2 8.1-2.6 13.1-11 18-17.5 0-.1 0-.2-.1-.2-3-1.3-6-1.9-9.4-1.6-.7.1-3.1 1.3-1.2 1.2zM73.7 4.8c-2.2-.4-4.2-.5-6.5-.5h-.3c-5.4.6-10.6 2.6-14 6.8 0 0-2.4 3.2-3.1 4.8-.7 1.5-1.7 3.1-2.5 4.6-1.9 3.6-3.8 7.2-5.7 10.7-3.9 7-8.1 15.9-16.7 17.1-1.3.2-2.4 1.7-.4 1.5 3.4-.3 6.5-.5 9.4-2.6 3.9-2.8 6.8-7.2 9.3-11.1 3-4.6 5.7-9.4 8.5-14.1 4.1-6.8 7.8-12.4 16.4-12.4-1.8 3.1-3.5 6.2-5.3 9.4-.6 1.2 2.2.7 2.6 0 2.9-4.5 5.8-9 8.6-13.5.4-.4.1-.6-.3-.7zM59 10.2c-4.1 2.1-6.3 5.7-8.7 9.5-.3.5-.6.9-.8 1.4 1.5-2.8 3-5.5 4.6-8.2v-.1s.1 0 .1-.1c2.8-4.3 7-6.3 12-6.9 2.6 0 4.6-.5 3.5 2.3-3.7-.2-7.3.4-10.7 2.1zm-10.2 1.6l1.6-2.2C35.1.7 15.5 5 5 19.8c-.6.9 1.1.8 1.5.7 2.5-.8 5-.1 7.3-1.3.6-.3 3.1-3.3 3.2-3.4 1.4-1.3 3-2.5 4.7-3.6 7.3-4.4 19.8-5.9 27.1-.4zM12 18.2c-1.2 0-2.3.1-3.4.3C16 9.2 27 5.1 37.7 7c-9.5-.3-18.9 3.6-25.7 11.2z"/></svg>