<svg version="1.1" id="Layer_1" xmlns="http://www.w3.org/2000/svg" x="0" y="0" viewBox="0 0 75 75" xml:space="preserve"><style>.st1{fill:#231f20}</style><path d="M59 45.4l.3-2.3 14.6 2-.3 2.3-14.6-2zM8.8 69.6L8 75l-2.7-.4.7-5.4-5.4-.7.4-2.8 5.4.7.7-5.4 2.7.4-.7 5.4 5.4.7-.4 2.7-5.3-.6zM32.6 2.3l-2.9 12.6 14-3.4z" fill="#d8d9d8"/><path class="st1" d="M62.6 14.6V0h9.3v2h-7.1v4.3h6.1v2h-6.1v4.4h7.1v2h-9.3zM70 74.5l-3.1-6.1h-2.8v6.1h-2.2V59.9h5.6c2.8 0 4.5 1.8 4.5 4.3 0 2.1-1.3 3.4-2.9 3.9l3.4 6.4H70zm-2.6-12.6h-3.3v4.6h3.3c1.5 0 2.5-.8 2.5-2.3 0-1.5-1-2.3-2.5-2.3zM2.9 14.6v-1.9L9.6 2H3.2V0h9v1.8L5.5 12.6h6.8v2H2.9zM8 38.7H4.7v5.7H2.5V29.9H8c2.8 0 4.7 1.9 4.7 4.4 0 2.6-1.8 4.4-4.7 4.4zm-.1-6.8H4.7v4.8h3.2c1.5 0 2.6-.9 2.6-2.4s-1.1-2.4-2.6-2.4zm32.5 12.6v-6.4h-5.9v6.4h-2.2V30h2.2v6.2h5.9V30h2.2v14.6h-2.2zm-1.9 24v6h-2.2v-6l-4.4-8.6h2.4l3 6.4 3-6.4h2.4l-4.2 8.6zM31.7 3v9.2c0 .5 1.7 0 1.8-.1 3.1-1.5 6.1-3.1 9.2-4.6.1 0 .7-.4.4-.6C40 5.3 37 3.8 33.9 2.3c-.6-.3-2.5.6-2.2.7 3.1 1.6 6.2 3.2 9.2 4.7.1-.2.3-.4.4-.6-3.1 1.5-6.1 3.1-9.2 4.6.6 0 1.2-.1 1.8-.1V2.4c.1-.5-2.2-.1-2.2.6zm28.7 41.9h11.7c.6 0 3.3-1.1 1.9-1.1H62.3c-.5 0-3.2 1.1-1.9 1.1zM6.1 62.5v9.6c0 1.2 2.9.6 2.9-.3v-9.6c0-1.2-2.9-.6-2.9.3z"/><path class="st1" d="M2.1 67.8h9.5c.9 0 3.1-1.3 1.2-1.3H3.3c-.8 0-3.1 1.3-1.2 1.3z"/></svg>