<svg version="1.1" id="Layer_1" xmlns="http://www.w3.org/2000/svg" x="0" y="0" viewBox="0 0 75 75" xml:space="preserve"><style>.st1{fill:#231f20}</style><path fill="#d8d9d8" d="M30.6 59l-13.4-.6 29.4-37.1 13.5.6z"/><path class="st1" d="M57.8 18.2h-8.3c-1.6 0-4.4-.5-5.9.3-2.7 1.5-5 6.5-6.7 8.9-6.9 9.4-13.7 18.9-20.6 28.3-.4.5.3 1 .8 1H30c.3 0 .6-.1.9-.3.4-.1.7-.3.9-.5.2-.3.5-.7.7-1H19.6c8.5-11.7 16.9-23.3 25.4-35h10.1C47 31.1 39.3 41.6 31.2 52.8H34c8.3-11.4 16.2-22.3 24.5-33.7.5-.4-.2-.9-.7-.9z"/><path class="st1" d="M64.5 10.3h-53c-.6 0-2 .3-2 1.1v53c0 .3.7.4.8.4h49.6v-1.5H18.1c-1.4 0-4.3.5-6 .2 0-.1 0-.3.1-.6.2-1.1 0-2.4 0-3.5V11.8h44.3c1.4 0 4.3-.5 6-.2 0 .1 0 .3-.1.6-.2 1.1 0 2.4 0 3.5v49.1h.6c.8.1 2.2-.4 2.2-1.1v-53c.2-.4-.5-.4-.7-.4z"/><path class="st1" d="M74.1.6H1.9C1.3.6 0 .9 0 1.8V74c0 .3.6.4.9.4h68.5v-1.6H11c-2 0-6 .8-8.3.2 0-.1-.1-.4.1-.8.4-1.3 0-3.6 0-5V2.1H64c2 0 6-.8 8.3-.2 0 .1.1.4-.1.8-.4 1.3 0 3.6 0 5v66.7h.6c.8.1 2.2-.4 2.2-1.2V1c0-.3-.6-.4-.9-.4z"/></svg>