<svg xmlns="http://www.w3.org/2000/svg"><path class="skillJs__meter_yellow" fill-rule="evenodd" fill="#FFC815" d="M-.012 127.9c0-40.488 19.258-76.499 49.176-99.64l34.842 42.349c-18.658 14.64-28.428 31.948-28.428 57.291H-.012z"/><path class="skillJs__meter_green" fill-rule="evenodd" fill="#A3CD3B" d="M55.124 23.961c20.58-14.464 45.738-23 72.912-23 27.213 0 52.369 8.536 72.905 23l-34.518 43.04c-14.684-9.917-26.297-12.204-38.387-12.204-12.056 0-26.188 4.358-38.352 12.204l-34.56-43.04z"/><path class="skillJs__meter_blue" fill-rule="evenodd" fill="#0093D7" d="M205.248 28.26c29.118 23.141 47.792 59.152 47.792 99.64h-53.987c0-25.343-10.397-43.397-27.486-57.291l33.681-42.349z"/><path class="skillJs__meter_arrow" fill-rule="evenodd" fill="#3E3D40" d="M139.56 125.245c-.281 5.128-4.688 8.97-9.787 8.63l-54.255-11.91 55.39-6.683c5.087.391 8.981 4.855 8.652 9.963z"/></svg>