<svg width="230" height="150" xmlns="http://www.w3.org/2000/svg"><g fill="none" fill-rule="evenodd"><path d="M75.036 149.976v-4.946h17.727v-.05c1.175.627 2.249 1.583 3.223 2.87v2.126h-20.95z" fill="#B8824D"/><path fill="#2A7DB4" d="M75.036 145.03h-.05v-3.363h17.777v3.364z"/><path d="M77.554 129.499c1.746-1.682 3.844-2.523 6.295-2.523h.05c2.451 0 4.533.841 6.245 2.523 1.746 1.715 2.619 3.776 2.619 6.183v5.985H74.986v-5.985c0-2.407.856-4.468 2.568-6.183z" fill="#3498DB"/><g fill-rule="nonzero"><path d="M118.35 133c-1.633 1.467-3.05 3.85-4.25 7.15l-.2.8v-.05c-2.067-2.9-.583-5.533 4.45-7.9zm7.4 6.35c-.833-.067-1.817-.3-2.95-.7-1.167-.4-2.117-.85-2.85-1.35-.733-.467-1.067-.85-1-1.15.033-.267.483-.367 1.35-.3.8.1 1.783.333 2.95.7 1.133.4 2.067.833 2.8 1.3.767.467 1.133.85 1.1 1.15-.067.3-.533.417-1.4.35z" fill="#E7CBA0"/><path d="M114.1 140.15c1.2-3.3 2.617-5.683 4.25-7.15l9.65 2.55c.8.2 1.117.667.95 1.4l-.15.55c-1.8 8.067-5 11.5-9.6 10.3a21.623 21.623 0 0 1-4.85-1.85c-1.067-.533-1.5-1.2-1.3-2l.05-.25c.267-.967.533-1.9.8-2.8v.05l.2-.8zm8.7-1.5c1.133.4 2.117.633 2.95.7.867.067 1.333-.05 1.4-.35.033-.3-.333-.683-1.1-1.15-.733-.467-1.667-.9-2.8-1.3-1.167-.367-2.15-.6-2.95-.7-.867-.067-1.317.033-1.35.3-.067.3.267.683 1 1.15.733.5 1.683.95 2.85 1.35z" fill="#FFE0B1"/></g><path d="M129.975 114.235c-2.062 1.948-4.588 3.206-7.578 3.773-3.165-5.294-5.359-11.045-6.58-17.255l13.46-2.465a75.148 75.148 0 0 1 .698 15.947z" fill="#FFE0B1"/><path d="M115.318 100.854l-.499-2.968 15.405-2.817c.864.402 1.03 1.392.499 2.968l-1.446.251-13.46 2.465-.5.101z" fill="#25A85C"/><path d="M120.453 85.108h.05c.387-.073.769-.123 1.146-.15 3.372-.059 6.23 3.311 8.575 10.11l-15.405 2.818-.648-3.572c-.399-2.146.017-4.141 1.247-5.986 1.23-1.777 2.908-2.85 5.035-3.22z" fill="#2ECC71"/><path fill="#B8824D" d="M46 109.976v-4.082H7v4.082z"/><path fill="#2ECC71" d="M46 78.976H7v26.918h39z"/><path fill="#B8824D" d="M96 110v-4.1H57v4.1z"/><path fill="#2ECC71" d="M96 79H57v26.9h39z"/><path d="M197.65 56.4c1.967 1.3 4.35 1.95 7.15 1.95 2.8 0 5.183-.65 7.15-1.95 1.167-.767 1.983-1.633 2.45-2.6h-19.2c.467.967 1.283 1.833 2.45 2.6z" fill="#D7BD93"/><path d="M224.15 49.25c1.033-6.733 1.017-13.617-.05-20.65-.433-2.967-2.133-4.45-5.1-4.45h-30.35c-2.933 0-4.633 1.517-5.1 4.55-1 6.867-1 13.733 0 20.6.467 3 2.167 4.5 5.1 4.5H219c2.967 0 4.683-1.517 5.15-4.55z" fill="#FFE0B1"/><path d="M189.3 13.25L186.4 18c14.5-1 28.417-6.667 41.75-17-16.833 3.567-29.783 7.65-38.85 12.25zM205.7 52c8.2-.2 15.017-4.15 20.45-11.85 2.1-3 3.1-7.483 3-13.45-.033-2.2-.2-3.75-.5-4.65a10.11 10.11 0 0 0-.2-.55c-.48-1.44-.764-2.34-.85-2.7.199.946.249 1.829.15 2.65-2.3 18.067-10.117 28.217-23.45 30.45-12.767-2.6-20.267-12.733-22.5-30.4-1.6 8.667-1.067 14.9 1.6 18.7 5.433 7.7 12.25 11.65 20.45 11.85.233.033.583.017 1.05-.05.333.033.6.033.8 0z" fill="#C48A51" fill-rule="nonzero"/><path d="M227.75 21.45c.099-.821.049-1.704-.15-2.65v-.1c-1.2-4.9-1.017-10.8.55-17.7-13.333 10.333-27.25 16-41.75 17l-4.6 3.5c2.233 17.667 9.733 27.8 22.5 30.4 13.333-2.233 21.15-12.383 23.45-30.45z" fill="#B8824D"/><path d="M144.85 58.35c2.8 0 5.183-.65 7.15-1.95 1.167-.767 1.983-1.633 2.45-2.6h-19.2c.467.967 1.283 1.833 2.45 2.6 1.967 1.3 4.35 1.95 7.15 1.95z" fill="#D7BD93"/><path d="M164.15 28.6c-.433-2.967-2.133-4.45-5.1-4.45H128.7c-2.933 0-4.633 1.517-5.1 4.55-1 6.867-1 13.733 0 20.6.467 3 2.167 4.5 5.1 4.5h30.35c2.967 0 4.683-1.517 5.15-4.55 1.033-6.733 1.017-13.617-.05-20.65z" fill="#FFE0B1"/><path d="M141.4 39.85c0-1.033-.367-1.933-1.1-2.7-.667-.733-1.517-1.1-2.55-1.1s-1.917.367-2.65 1.1c-.667.767-1 1.667-1 2.7 0 1.033.333 1.917 1 2.65.733.767 1.617 1.15 2.65 1.15s1.883-.383 2.55-1.15a3.613 3.613 0 0 0 1.1-2.65zm17.5-2.7c-.667-.733-1.517-1.1-2.55-1.1s-1.917.367-2.65 1.1c-.667.767-1 1.667-1 2.7 0 1.033.333 1.917 1 2.65.733.767 1.617 1.15 2.65 1.15s1.883-.383 2.55-1.15c.733-.733 1.1-1.617 1.1-2.65s-.367-1.933-1.1-2.7z" fill="#FFF" fill-rule="nonzero"/><path d="M141.2 33.8c.133.2.35.317.65.35.267.033.517-.033.75-.2a1.2 1.2 0 0 0 .4-.65c0-.267-.083-.517-.25-.75-.967-1.3-2.267-2.033-3.9-2.2-1.1-.133-2.133 0-3.1.4-.233.1-.417.283-.55.55-.133.267-.117.517.05.75.067.233.25.417.55.55.2.133.45.117.75-.05.633-.233 1.317-.3 2.05-.2 1.1.133 1.967.617 2.6 1.45zm16.85-1.8c-.933-.4-1.967-.533-3.1-.4-1.667.167-2.95.9-3.85 2.2-.2.233-.283.467-.25.7a.913.913 0 0 0 .4.65c.2.167.45.25.75.25a.913.913 0 0 0 .65-.4c.6-.8 1.45-1.267 2.55-1.4.733-.1 1.417-.033 2.05.2.3.167.567.167.8 0 .267-.1.45-.267.55-.5.133-.233.133-.483 0-.75s-.317-.45-.55-.55z" fill="#B8824D" fill-rule="nonzero"/><path d="M152.25 48c.267-.1.467-.267.6-.5.1-.233.117-.483.05-.75-.1-.267-.267-.45-.5-.55a.98.98 0 0 0-.75-.1c-3.567 1.133-6.667.85-9.3-.85a.873.873 0 0 0-.75-.15.766.766 0 0 0-.6.4.873.873 0 0 0-.15.75.913.913 0 0 0 .4.65c3.1 2.067 6.767 2.433 11 1.1z" fill="#7F7058"/><path d="M138.5 43c.6 0 1.1-.317 1.5-.95.433-.6.65-1.333.65-2.2 0-.867-.217-1.617-.65-2.25-.4-.6-.9-.9-1.5-.9s-1.117.3-1.55.9c-.4.633-.6 1.383-.6 2.25s.2 1.6.6 2.2c.433.633.95.95 1.55.95zm15.3-5.4c-.4.633-.6 1.383-.6 2.25s.2 1.6.6 2.2c.433.633.95.95 1.55.95.6 0 1.1-.317 1.5-.95.433-.6.65-1.333.65-2.2 0-.867-.217-1.617-.65-2.25-.4-.6-.9-.9-1.5-.9s-1.117.3-1.55.9z" fill="#7F7058" fill-rule="nonzero"/><path d="M129.35 13.25l-2.9 4.75-4.6 3.5c-1.6 8.667-1.183 17.083 1.25 25.25 3.3-3.1 5.167-8.6 5.6-16.5C131.867 18.517 145.033 8.767 168.2 1c-16.833 3.567-29.783 7.65-38.85 12.25z" fill="#B8824D"/><path d="M146.2 28.5c5.567 1.6 11.483 2.317 17.75 2.15l1 8.1c3.033-9 4.017-15.333 2.95-19-1.467-5.1-1.367-11.35.3-18.75-23.167 7.767-36.333 17.517-39.5 29.25 4.8-3.267 10.633-3.85 17.5-1.75z" fill="#C48A51"/><path d="M84.85 58.35c2.8 0 5.183-.65 7.15-1.95 1.167-.767 1.983-1.633 2.45-2.6h-19.2c.467.967 1.283 1.833 2.45 2.6 1.967 1.3 4.35 1.95 7.15 1.95z" fill="#D7BD93"/><path d="M104.15 28.6c-.433-2.967-2.133-4.45-5.1-4.45H68.7c-2.933 0-4.633 1.517-5.1 4.55-1 6.867-1 13.733 0 20.6.467 3 2.167 4.5 5.1 4.5h30.35c2.967 0 4.683-1.517 5.15-4.55 1.033-6.733 1.017-13.617-.05-20.65z" fill="#FFE0B1"/><path d="M81.4 39.85c0-1.033-.367-1.933-1.1-2.7-.667-.733-1.517-1.1-2.55-1.1s-1.917.367-2.65 1.1c-.667.767-1 1.667-1 2.7 0 1.033.333 1.917 1 2.65.733.767 1.617 1.15 2.65 1.15s1.883-.383 2.55-1.15a3.613 3.613 0 0 0 1.1-2.65zm7.1 5.85l-.05-2.4c-.6-.2-1.25-.3-1.95-.3-1.633 0-3.05.6-4.25 1.8-.3.267-.55.567-.75.9h7zm11.5-5.85c0-1.033-.367-1.933-1.1-2.7-.667-.733-1.517-1.1-2.55-1.1s-1.917.367-2.65 1.1c-.667.767-1 1.667-1 2.7 0 1.033.333 1.917 1 2.65.733.767 1.617 1.15 2.65 1.15s1.883-.383 2.55-1.15a3.613 3.613 0 0 0 1.1-2.65z" fill="#FFF" fill-rule="nonzero"/><path d="M80.55 31.05c-.2-.2-.433-.317-.7-.35-1.567-.267-3.017.133-4.35 1.2a5.901 5.901 0 0 0-1.9 2.45c-.1.267-.1.533 0 .8s.283.433.55.5c.267.133.517.133.75 0 .267-.1.45-.267.55-.5.267-.667.717-1.233 1.35-1.7.867-.667 1.817-.933 2.85-.8.2.033.433-.033.7-.2a1.2 1.2 0 0 0 .4-.65c.033-.3-.033-.55-.2-.75zm17.9 5.15c.267.1.517.083.75-.05.233-.067.4-.233.5-.5.133-.3.15-.567.05-.8-.4-.967-1.05-1.783-1.95-2.45-1.3-1.067-2.733-1.467-4.3-1.2a.972.972 0 0 0-.65.35c-.167.2-.233.45-.2.75.067.267.2.483.4.65.2.167.45.233.75.2 1-.133 1.917.133 2.75.8.6.467 1.05 1.033 1.35 1.7.067.233.25.417.55.55z" fill="#B8824D" fill-rule="nonzero"/><path d="M91.95 46.45c-.3-.6-.7-1.15-1.2-1.65l-.05-.05a6.067 6.067 0 0 0-2.25-1.45l.05 2.4h-7a5.584 5.584 0 0 0-.45.75c-.167.3-.283.617-.35.95-.067.233-.067.433 0 .6.067.233.2.4.4.5.167.133.35.2.55.2h9.7c.2 0 .4-.067.6-.2.167-.1.283-.267.35-.5.067-.167.083-.367.05-.6-.1-.333-.233-.65-.4-.95z" fill="#7F7058"/><path d="M80.65 39.85c0-.867-.217-1.617-.65-2.25-.4-.6-.9-.9-1.5-.9s-1.117.3-1.55.9c-.4.633-.6 1.383-.6 2.25s.2 1.6.6 2.2c.433.633.95.95 1.55.95.6 0 1.1-.317 1.5-.95.433-.6.65-1.333.65-2.2zm16.2 2.2c.433-.6.65-1.333.65-2.2 0-.867-.217-1.617-.65-2.25-.4-.6-.9-.9-1.5-.9s-1.117.3-1.55.9c-.4.633-.6 1.383-.6 2.25s.2 1.6.6 2.2c.433.633.95.95 1.55.95.6 0 1.1-.317 1.5-.95z" fill="#7F7058" fill-rule="nonzero"/><path d="M69.35 13.25L66.45 18l-4.6 3.5c-1.6 8.667-1.183 17.083 1.25 25.25 3.3-3.1 5.167-8.6 5.6-16.5C71.867 18.517 85.033 8.767 108.2 1 91.367 4.567 78.417 8.65 69.35 13.25z" fill="#B8824D"/><path d="M86.2 28.5c5.567 1.6 11.483 2.317 17.75 2.15l1 8.1c3.033-9 4.017-15.333 2.95-19-1.467-5.1-1.367-11.35.3-18.75-23.167 7.767-36.333 17.517-39.5 29.25 4.8-3.267 10.633-3.85 17.5-1.75z" fill="#C48A51"/><path d="M17.7 56.4c1.967 1.3 4.35 1.95 7.15 1.95 2.8 0 5.183-.65 7.15-1.95 1.167-.767 1.983-1.633 2.45-2.6h-19.2c.467.967 1.283 1.833 2.45 2.6z" fill="#D7BD93"/><path d="M44.2 49.25c1.033-6.733 1.017-13.617-.05-20.65-.433-2.967-2.133-4.45-5.1-4.45H8.7c-2.933 0-4.633 1.517-5.1 4.55-1 6.867-1 13.733 0 20.6.467 3 2.167 4.5 5.1 4.5h30.35c2.967 0 4.683-1.517 5.15-4.55z" fill="#FFE0B1"/><path d="M20.3 37.15c-.667-.733-1.517-1.1-2.55-1.1s-1.917.367-2.65 1.1c-.667.767-1 1.667-1 2.7 0 1.033.333 1.917 1 2.65.733.767 1.617 1.15 2.65 1.15s1.883-.383 2.55-1.15c.733-.733 1.1-1.617 1.1-2.65s-.367-1.933-1.1-2.7zm8.15 10.45v-3H21.6a.86.86 0 0 0-.55.2c-.2.1-.333.267-.4.5-.067.167-.067.367 0 .6.067.333.183.65.35.95.133.267.283.517.45.75h7zM38.9 37.15c-.667-.733-1.517-1.1-2.55-1.1s-1.917.367-2.65 1.1c-.667.767-1 1.667-1 2.7 0 1.033.333 1.917 1 2.65.733.767 1.617 1.15 2.65 1.15s1.883-.383 2.55-1.15c.733-.733 1.1-1.617 1.1-2.65s-.367-1.933-1.1-2.7z" fill="#FFF" fill-rule="nonzero"/><path d="M20.75 31.95c.233.1.483.1.75 0 .233-.133.417-.317.55-.55.1-.267.1-.517 0-.75-.133-.267-.317-.45-.55-.55-1.467-.633-2.967-.617-4.5.05-1.033.433-1.867 1.067-2.5 1.9-.167.2-.233.45-.2.75a.913.913 0 0 0 .4.65c.2.167.45.233.75.2a.913.913 0 0 0 .65-.4c.433-.567 1-.983 1.7-1.25 1-.433 1.983-.45 2.95-.05zM36.6 33.5c.7.267 1.267.683 1.7 1.25.167.233.4.367.7.4.267.033.5-.033.7-.2a.913.913 0 0 0 .4-.65c.033-.3-.033-.55-.2-.75-.633-.833-1.467-1.467-2.5-1.9-1.533-.667-3.017-.683-4.45-.05a.9.9 0 0 0-.55.55c-.133.233-.133.483 0 .75.1.233.283.417.55.55.233.1.483.1.75 0 .933-.4 1.9-.383 2.9.05z" fill="#B8824D" fill-rule="nonzero"/><path d="M31.9 46.85c.167-.3.3-.617.4-.95a1.163 1.163 0 0 0-.05-.6c-.067-.233-.183-.4-.35-.5-.2-.133-.4-.2-.6-.2h-2.85v3h-7c.2.333.45.633.75.9 1.2 1.2 2.617 1.8 4.25 1.8s3.033-.583 4.2-1.75l.05-.05c.5-.5.9-1.05 1.2-1.65zm4.95-4.8c.433-.6.65-1.333.65-2.2 0-.867-.217-1.617-.65-2.25-.4-.6-.9-.9-1.5-.9s-1.117.3-1.55.9c-.4.633-.6 1.383-.6 2.25s.2 1.6.6 2.2c.433.633.95.95 1.55.95.6 0 1.1-.317 1.5-.95zm-16.85 0c.433-.6.65-1.333.65-2.2 0-.867-.217-1.617-.65-2.25-.4-.6-.9-.9-1.5-.9s-1.117.3-1.55.9c-.4.633-.6 1.383-.6 2.25s.2 1.6.6 2.2c.433.633.95.95 1.55.95.6 0 1.1-.317 1.5-.95z" fill="#7F7058"/><path d="M1.85 21.5C.25 30.167.667 38.583 3.1 46.75c3.3-3.1 5.167-8.6 5.6-16.5C11.867 18.517 25.033 8.767 48.2 1 31.367 4.567 18.417 8.65 9.35 13.25L6.45 18l-4.6 3.5z" fill="#B8824D"/><path d="M26.2 28.5c5.567 1.6 11.483 2.317 17.75 2.15l1 8.1c3.033-9 4.017-15.333 2.95-19-1.467-5.1-1.367-11.35.3-18.75C25.033 8.767 11.867 18.517 8.7 30.25c4.8-3.267 10.633-3.85 17.5-1.75z" fill="#C48A51"/></g></svg>