<svg width="230" height="150" xmlns="http://www.w3.org/2000/svg"><g fill="none" fill-rule="evenodd"><path d="M76 140.3l.55-5.9c.224-2.174 1.09-3.974 2.6-5.4 1.448-1.333 3.131-2 5.05-2h.05c1.928 0 3.595.667 5 2 1.468 1.426 2.284 3.226 2.45 5.4l.4 5.9H76z" fill="#B8824D"/><path fill="#9F7042" d="M75.6 144l.4-3.7h16.1l.25 3.65v.05h-16.7z"/><path d="M75.05 150l.6-6h16.7v-.05c1.174.706 2.308 1.822 3.4 3.35L96 150H75.05z" fill="#D4D0C9"/><path d="M16.3 27.9c1.733-1.733 2.6-3.833 2.6-6.3 0-2.467-.867-4.567-2.6-6.3-1.733-1.733-3.833-2.6-6.3-2.6-2.467 0-4.567.867-6.3 2.6-1.733 1.733-2.6 3.833-2.6 6.3 0 2.467.867 4.567 2.6 6.3 1.733 1.733 3.833 2.6 6.3 2.6 2.467 0 4.567-.867 6.3-2.6z" fill="#9F7042"/><path d="M17.7 56.4c1.967 1.3 4.35 1.95 7.15 1.95 2.8 0 5.183-.65 7.15-1.95 1.167-.767 1.983-1.633 2.45-2.6h-19.2c.467.967 1.283 1.833 2.45 2.6z" fill="#D7BD93"/><path d="M44.15 28.6c-.433-2.967-2.167-5.85-5.2-8.65-9.23-8.58-19.314-7.18-30.25 4.2-2.933 0-4.633 1.517-5.1 4.55-.628 4.318-.928 8.035-.9 11.15 2.249 6.277 6.432 10.927 12.55 13.95h19.2c5.264-2.687 8.764-7.02 10.5-13a70.425 70.425 0 0 0-.8-12.2z" fill="#FFE0B1"/><g fill-rule="nonzero"><path d="M16.6 37.15a3.243 3.243 0 0 1 2.25-1.1l-5.35-.2 2.05 4.8a6.444 6.444 0 0 1-.05-.8c0-1.033.367-1.933 1.1-2.7zm19.05-1.1c.9.067 1.65.433 2.25 1.1.733.767 1.1 1.667 1.1 2.7 0 .267-.017.533-.05.8l2.05-4.8-5.35.2z" fill="#BFA984"/><path d="M19.15 36.05h-.3c-.9.067-1.65.433-2.25 1.1-.733.767-1.1 1.667-1.1 2.7 0 .267.017.533.05.8.167.7.517 1.317 1.05 1.85.667.767 1.517 1.15 2.55 1.15s1.917-.383 2.65-1.15c.667-.733 1-1.617 1-2.65s-.333-1.933-1-2.7a3.613 3.613 0 0 0-2.65-1.1zM18 39.75c.033-.6.25-1.117.65-1.55.4-.433.9-.65 1.5-.65s1.117.217 1.55.65c.367.433.567.95.6 1.55V40a2.278 2.278 0 0 1-.6 1.45c-.433.467-.95.7-1.55.7-.6 0-1.1-.233-1.5-.7-.4-.4-.617-.883-.65-1.45v-.25zm19.9-2.6a3.243 3.243 0 0 0-2.25-1.1h-.3a3.613 3.613 0 0 0-2.65 1.1c-.667.767-1 1.667-1 2.7 0 1.033.333 1.917 1 2.65.733.767 1.617 1.15 2.65 1.15s1.883-.383 2.55-1.15a3.835 3.835 0 0 0 1.05-1.85c.033-.267.05-.533.05-.8 0-1.033-.367-1.933-1.1-2.7zm-1.4 2.6V40a2.165 2.165 0 0 1-.65 1.45c-.4.467-.9.7-1.5.7s-1.117-.233-1.55-.7a2.278 2.278 0 0 1-.6-1.45v-.25a2.55 2.55 0 0 1 .6-1.55c.433-.433.95-.65 1.55-.65.6 0 1.1.217 1.5.65.4.433.617.95.65 1.55z" fill="#FFF"/><path d="M18.65 38.2c-.4.433-.617.95-.65 1.55V40c.033.567.25 1.05.65 1.45.4.467.9.7 1.5.7s1.117-.233 1.55-.7c.367-.4.567-.883.6-1.45v-.25a2.55 2.55 0 0 0-.6-1.55 2.116 2.116 0 0 0-1.55-.65c-.6 0-1.1.217-1.5.65zM36.5 40v-.25a2.414 2.414 0 0 0-.65-1.55c-.4-.433-.9-.65-1.5-.65s-1.117.217-1.55.65a2.55 2.55 0 0 0-.6 1.55V40c.033.567.233 1.05.6 1.45.433.467.95.7 1.55.7.6 0 1.1-.233 1.5-.7.4-.4.617-.883.65-1.45z" fill="#7F7058"/></g><path d="M37.808 34.228a21.574 21.574 0 0 1 2.63-.032c-2.083-1.34-4.506-1.881-7.267-1.624-.34.021-.572.118-.699.29-.19.19-.28.438-.266.745.037.266.154.51.352.734.172.126 1.922.089 5.25-.113zm-22.392-.488c.71.052 1.574.18 2.589.382 3.274.533 4.997.735 5.169.609.253-.174.398-.394.435-.66.054-.33-.002-.57-.17-.718a.806.806 0 0 0-.611-.423c-2.748-.564-5.218-.294-7.412.81z" fill="#B8824D"/><path d="M16.7 47.15c.533-.433.8-.933.8-1.5 0-.633-.267-1.167-.8-1.6-.467-.4-1.033-.6-1.7-.6-.7 0-1.3.2-1.8.6-.467.433-.7.967-.7 1.6 0 .567.233 1.067.7 1.5.5.433 1.1.65 1.8.65.667 0 1.233-.217 1.7-.65zm24.55 0c.533-.433.8-.933.8-1.5 0-.633-.267-1.167-.8-1.6-.467-.4-1.033-.6-1.7-.6-.7 0-1.3.2-1.8.6-.467.433-.7.967-.7 1.6 0 .567.233 1.067.7 1.5.5.433 1.1.65 1.8.65.667 0 1.233-.217 1.7-.65z" fill="#FFF" fill-opacity=".302"/><path d="M23.45 45.95a.543.543 0 0 0-.1.2c-.067.1-.067.233 0 .4.033.233.117.45.25.65.067.2.167.367.3.5h4.8v-2.05H24a.665.665 0 0 0-.4.15.327.327 0 0 0-.15.15z" fill="#FFF"/><path d="M31.35 46.55c.033-.167.017-.3-.05-.4v-.1l-.1-.1c-.033-.067-.067-.1-.1-.1l-.05-.05a.665.665 0 0 0-.4-.15H28.7v2.05h-4.8c.133.233.3.45.5.65.767.767 1.667 1.167 2.7 1.2h.4c1.067-.033 1.967-.433 2.7-1.2h.05c.333-.367.6-.75.8-1.15.133-.2.233-.417.3-.65z" fill="#7F7058"/><path d="M32.35 13.8c-2.167-.6-4-.7-5.5-.3-2.033-.6-4.05-.85-6.05-.75a2.544 2.544 0 0 0-.5-.05c-.367 0-.683.033-.95.1a16.675 16.675 0 0 0-3.75.9c-5.2 1.733-9.333 5.35-12.4 10.85a23.37 23.37 0 0 0-2.7 6.4A26.704 26.704 0 0 0-.65 37.3v.85c.1-1.9.45-3.75 1.05-5.55.6-2.2 1.517-4.35 2.75-6.45 3.8-6.733 9.2-10.667 16.2-11.8a4.065 4.065 0 0 1 1.1-.05c2.1-.067 4.233.2 6.4.8 1.467-.467 3.317-.383 5.55.25 7.367 2 11.833 7.083 13.4 15.25.067 1 .183 2.033.35 3.1-.033-.567-.067-1.1-.1-1.6a45.594 45.594 0 0 0-.4-3.25c-1.5-8.067-5.933-13.083-13.3-15.05z" fill="#C68C53"/><path d="M27.35 25.4a67.68 67.68 0 0 0-.95 2.3l13.95 4.15c2.575.903 3.425 3.186 2.55 6.85-.8 3.632-.45 7.348 1.05 11.15 1.26-.737 1.843-3.17 1.75-7.3l.5-8.25c-.033-.2-.05-.4-.05-.6a35.31 35.31 0 0 1-.35-3.1c-1.567-8.167-6.033-13.25-13.4-15.25-2.233-.633-4.083-.717-5.55-.25-2.167-.6-4.3-.867-6.4-.8a4.065 4.065 0 0 0-1.1.05c-7 1.133-12.4 5.067-16.2 11.8C1.917 28.25 1 30.4.4 32.6c-.6 1.8-.95 3.65-1.05 5.55v.5C-.223 48.09 3.127 53.207 9.4 54c-.692-6.784.991-11.067 5.05-12.85l-2-7.95c5.633-1.2 10.867-4.7 15.7-10.5 0-.067.033-.1.1-.1a45.44 45.44 0 0 0-.9 2.8z" fill="#B8824D"/><path d="M26.4 27.7c.3-.767.617-1.533.95-2.3a45.44 45.44 0 0 1 .9-2.8c-.067 0-.1.033-.1.1-4.833 5.8-10.067 9.3-15.7 10.5l2 7.95v.1c5.033-2.367 9.017-6.883 11.95-13.55z" fill="#AD7A48"/><g fill-rule="nonzero"><path d="M113.9 140.95v-.05c-2.067-2.9-.583-5.533 4.45-7.9-1.633 1.467-3.05 3.85-4.25 7.15l-.2.8zm13.25-1.95c-.067.3-.533.417-1.4.35-.833-.067-1.817-.3-2.95-.7-1.167-.4-2.117-.85-2.85-1.35-.733-.467-1.067-.85-1-1.15.033-.267.483-.367 1.35-.3.8.1 1.783.333 2.95.7 1.133.4 2.067.833 2.8 1.3.767.467 1.133.85 1.1 1.15z" fill="#E7CBA0"/><path d="M113.9 140.9v.05l.2-.8c1.2-3.3 2.617-5.683 4.25-7.15l9.65 2.55c.8.2 1.117.667.95 1.4l-.15.55c-1.8 8.067-5 11.5-9.6 10.3a21.623 21.623 0 0 1-4.85-1.85c-1.067-.533-1.5-1.2-1.3-2l.05-.25c.267-.967.533-1.9.8-2.8zm11.85-1.55c.867.067 1.333-.05 1.4-.35.033-.3-.333-.683-1.1-1.15-.733-.467-1.667-.9-2.8-1.3-1.167-.367-2.15-.6-2.95-.7-.867-.067-1.317.033-1.35.3-.067.3.267.683 1 1.15.733.5 1.683.95 2.85 1.35 1.133.4 2.117.633 2.95.7z" fill="#FFE0B1"/></g><path d="M91.2 57.8c1.167-.767 1.983-1.633 2.45-2.6h-19.2c.467.967 1.283 1.833 2.45 2.6 1.967 1.3 4.35 1.95 7.15 1.95 2.8 0 5.183-.65 7.15-1.95z" fill="#D7BD93"/><path d="M103.35 30c-.433-2.967-2.167-5.85-5.2-8.65-9.23-8.58-19.314-7.18-30.25 4.2-2.933 0-4.633 1.517-5.1 4.55-.628 4.318-.928 8.035-.9 11.15 2.249 6.277 6.432 10.927 12.55 13.95h19.2c5.264-2.687 8.764-7.02 10.5-13a70.425 70.425 0 0 0-.8-12.2z" fill="#FFE0B1"/><path d="M78.1 23c0-2.467-.867-4.567-2.6-6.3-1.733-1.733-3.833-2.6-6.3-2.6-2.467 0-4.567.867-6.3 2.6-1.733 1.733-2.6 3.833-2.6 6.3 0 2.467.867 4.567 2.6 6.3 1.733 1.733 3.833 2.6 6.3 2.6 2.467 0 4.567-.867 6.3-2.6 1.733-1.733 2.6-3.833 2.6-6.3z" fill="#9F7042"/><g fill-rule="nonzero"><path d="M75.8 38.55a3.243 3.243 0 0 1 2.25-1.1l-5.35-.2 2.05 4.8a6.444 6.444 0 0 1-.05-.8c0-1.033.367-1.933 1.1-2.7zm19.05-1.1c.9.067 1.65.433 2.25 1.1.733.767 1.1 1.667 1.1 2.7 0 .267-.017.533-.05.8l2.05-4.8-5.35.2z" fill="#BFA984"/><path d="M78.35 37.45h-.3c-.9.067-1.65.433-2.25 1.1-.733.767-1.1 1.667-1.1 2.7 0 .267.017.533.05.8.167.7.517 1.317 1.05 1.85.667.767 1.517 1.15 2.55 1.15s1.917-.383 2.65-1.15c.667-.733 1-1.617 1-2.65s-.333-1.933-1-2.7a3.613 3.613 0 0 0-2.65-1.1zM77.2 41.4v-.25c.033-.6.25-1.117.65-1.55.4-.433.9-.65 1.5-.65s1.117.217 1.55.65c.367.433.567.95.6 1.55v.25a2.278 2.278 0 0 1-.6 1.45c-.433.467-.95.7-1.55.7-.6 0-1.1-.233-1.5-.7-.4-.4-.617-.883-.65-1.45zm19.9-2.85a3.243 3.243 0 0 0-2.25-1.1h-.3a3.613 3.613 0 0 0-2.65 1.1c-.667.767-1 1.667-1 2.7 0 1.033.333 1.917 1 2.65.733.767 1.617 1.15 2.65 1.15s1.883-.383 2.55-1.15a3.835 3.835 0 0 0 1.05-1.85c.033-.267.05-.533.05-.8 0-1.033-.367-1.933-1.1-2.7zm-1.4 2.6v.25a2.165 2.165 0 0 1-.65 1.45c-.4.467-.9.7-1.5.7s-1.117-.233-1.55-.7a2.278 2.278 0 0 1-.6-1.45v-.25a2.55 2.55 0 0 1 .6-1.55c.433-.433.95-.65 1.55-.65.6 0 1.1.217 1.5.65.4.433.617.95.65 1.55z" fill="#FFF"/><path d="M77.2 41.15v.25c.033.567.25 1.05.65 1.45.4.467.9.7 1.5.7s1.117-.233 1.55-.7c.367-.4.567-.883.6-1.45v-.25a2.55 2.55 0 0 0-.6-1.55 2.116 2.116 0 0 0-1.55-.65c-.6 0-1.1.217-1.5.65-.4.433-.617.95-.65 1.55zm18.5.25v-.25a2.414 2.414 0 0 0-.65-1.55c-.4-.433-.9-.65-1.5-.65s-1.117.217-1.55.65a2.55 2.55 0 0 0-.6 1.55v.25c.033.567.233 1.05.6 1.45.433.467.95.7 1.55.7.6 0 1.1-.233 1.5-.7.4-.4.617-.883.65-1.45z" fill="#7F7058"/></g><path d="M99.332 36.628c-1.63-1.803-3.831-2.95-6.606-3.442-.292-.076-.542-.03-.75.14-.227.128-.363.343-.408.647a.913.913 0 0 0 .14.75c.14.197 1.83.63 5.071 1.301 1.005.171 1.856.373 2.553.604zM74.84 35.227c.718-.158 1.585-.27 2.603-.335 3.293-.33 5.02-.586 5.178-.766a.913.913 0 0 0 .218-.732c-.013-.307-.126-.535-.34-.685-.188-.191-.432-.264-.73-.219-2.81.201-5.12 1.113-6.928 2.737z" fill="#B8824D"/><path d="M87.446 47.255a4.611 4.611 0 0 0-1.467-.226c-1.228 0-2.294.452-3.197 1.354a2.93 2.93 0 0 0-.564.677h5.265l-.037-1.805z" fill="#FFF"/><path d="M89.176 48.383l-.038-.037a4.563 4.563 0 0 0-1.692-1.09l.037 1.804h-5.265a4.2 4.2 0 0 0-.338.564 2.454 2.454 0 0 0-.263.715c-.05.175-.05.326 0 .451.05.176.15.301.3.376.126.1.264.15.414.15h7.296c.15 0 .3-.05.451-.15a.61.61 0 0 0 .263-.376.874.874 0 0 0 .038-.451 3.592 3.592 0 0 0-.3-.715 4.762 4.762 0 0 0-.903-1.24z" fill="#7F7058"/><path d="M72.4 45.45c-.467.433-.7.967-.7 1.6 0 .567.233 1.067.7 1.5.5.433 1.1.65 1.8.65.667 0 1.233-.217 1.7-.65.533-.433.8-.933.8-1.5 0-.633-.267-1.167-.8-1.6-.467-.4-1.033-.6-1.7-.6-.7 0-1.3.2-1.8.6zm28.05 3.1c.533-.433.8-.933.8-1.5 0-.633-.267-1.167-.8-1.6-.467-.4-1.033-.6-1.7-.6-.7 0-1.3.2-1.8.6-.467.433-.7.967-.7 1.6 0 .567.233 1.067.7 1.5.5.433 1.1.65 1.8.65.667 0 1.233-.217 1.7-.65z" fill="#FFF" fill-opacity=".302"/><path d="M86.55 26.8a67.68 67.68 0 0 0-.95 2.3l13.95 4.15c2.575.903 3.425 3.186 2.55 6.85-.8 3.632-.45 7.348 1.05 11.15 1.26-.737 1.843-3.17 1.75-7.3l.5-8.25c-.033-.2-.05-.4-.05-.6A35.31 35.31 0 0 1 105 32c-1.567-8.167-6.033-13.25-13.4-15.25-2.233-.633-4.083-.717-5.55-.25-2.167-.6-4.3-.867-6.4-.8a4.065 4.065 0 0 0-1.1.05c-7 1.133-12.4 5.067-16.2 11.8-1.233 2.1-2.15 4.25-2.75 6.45-.6 1.8-.95 3.65-1.05 5.55v.5c.427 9.44 3.777 14.557 10.05 15.35-.692-6.784.991-11.067 5.05-12.85l-2-7.95c5.633-1.2 10.867-4.7 15.7-10.5 0-.067.033-.1.1-.1a45.44 45.44 0 0 0-.9 2.8z" fill="#B8824D"/><path d="M85.6 29.1c.3-.767.617-1.533.95-2.3a45.44 45.44 0 0 1 .9-2.8c-.067 0-.1.033-.1.1-4.833 5.8-10.067 9.3-15.7 10.5l2 7.95v.1c5.033-2.367 9.017-6.883 11.95-13.55z" fill="#AD7A48"/><path d="M91.55 15.2c-2.167-.6-4-.7-5.5-.3-2.033-.6-4.05-.85-6.05-.75a2.544 2.544 0 0 0-.5-.05c-.367 0-.683.033-.95.1a16.675 16.675 0 0 0-3.75.9c-5.2 1.733-9.333 5.35-12.4 10.85a23.37 23.37 0 0 0-2.7 6.4 26.704 26.704 0 0 0-1.15 6.35v.85c.1-1.9.45-3.75 1.05-5.55.6-2.2 1.517-4.35 2.75-6.45 3.8-6.733 9.2-10.667 16.2-11.8a4.065 4.065 0 0 1 1.1-.05c2.1-.067 4.233.2 6.4.8 1.467-.467 3.317-.383 5.55.25 7.367 2 11.833 7.083 13.4 15.25.067 1 .183 2.033.35 3.1-.033-.567-.067-1.1-.1-1.6a45.594 45.594 0 0 0-.4-3.25c-1.5-8.067-5.933-13.083-13.3-15.05z" fill="#C68C53"/><path d="M151.2 57.85c1.167-.767 1.983-1.633 2.45-2.6h-19.2c.467.967 1.283 1.833 2.45 2.6 1.967 1.3 4.35 1.95 7.15 1.95 2.8 0 5.183-.65 7.15-1.95z" fill="#D7BD93"/><path d="M163.35 30.05c-.433-2.967-2.167-5.85-5.2-8.65-9.23-8.58-19.314-7.18-30.25 4.2-2.933 0-4.633 1.517-5.1 4.55-.628 4.318-.928 8.035-.9 11.15 2.249 6.277 6.432 10.927 12.55 13.95h19.2c5.264-2.687 8.764-7.02 10.5-13a70.425 70.425 0 0 0-.8-12.2z" fill="#FFE0B1"/><path d="M135.5 29.35c1.733-1.733 2.6-3.833 2.6-6.3 0-2.467-.867-4.567-2.6-6.3-1.733-1.733-3.833-2.6-6.3-2.6-2.467 0-4.567.867-6.3 2.6-1.733 1.733-2.6 3.833-2.6 6.3 0 2.467.867 4.567 2.6 6.3 1.733 1.733 3.833 2.6 6.3 2.6 2.467 0 4.567-.867 6.3-2.6z" fill="#9F7042"/><g fill-rule="nonzero"><path d="M135.8 38.6a3.243 3.243 0 0 1 2.25-1.1l-5.35-.2 2.05 4.8a6.444 6.444 0 0 1-.05-.8c0-1.033.367-1.933 1.1-2.7zm19.05-1.1c.9.067 1.65.433 2.25 1.1.733.767 1.1 1.667 1.1 2.7 0 .267-.017.533-.05.8l2.05-4.8-5.35.2z" fill="#BFA984"/><path d="M138.35 37.5h-.3c-.9.067-1.65.433-2.25 1.1-.733.767-1.1 1.667-1.1 2.7 0 .267.017.533.05.8.167.7.517 1.317 1.05 1.85.667.767 1.517 1.15 2.55 1.15s1.917-.383 2.65-1.15c.667-.733 1-1.617 1-2.65s-.333-1.933-1-2.7a3.613 3.613 0 0 0-2.65-1.1zm-1.15 3.7c.033-.6.25-1.117.65-1.55.4-.433.9-.65 1.5-.65s1.117.217 1.55.65c.367.433.567.95.6 1.55v.25a2.278 2.278 0 0 1-.6 1.45c-.433.467-.95.7-1.55.7-.6 0-1.1-.233-1.5-.7-.4-.4-.617-.883-.65-1.45v-.25zm19.9-2.6a3.243 3.243 0 0 0-2.25-1.1h-.3a3.613 3.613 0 0 0-2.65 1.1c-.667.767-1 1.667-1 2.7 0 1.033.333 1.917 1 2.65.733.767 1.617 1.15 2.65 1.15s1.883-.383 2.55-1.15a3.835 3.835 0 0 0 1.05-1.85c.033-.267.05-.533.05-.8 0-1.033-.367-1.933-1.1-2.7zm-1.4 2.6v.25a2.165 2.165 0 0 1-.65 1.45c-.4.467-.9.7-1.5.7s-1.117-.233-1.55-.7a2.278 2.278 0 0 1-.6-1.45v-.25a2.55 2.55 0 0 1 .6-1.55c.433-.433.95-.65 1.55-.65.6 0 1.1.217 1.5.65.4.433.617.95.65 1.55z" fill="#FFF"/><path d="M137.85 39.65c-.4.433-.617.95-.65 1.55v.25c.033.567.25 1.05.65 1.45.4.467.9.7 1.5.7s1.117-.233 1.55-.7c.367-.4.567-.883.6-1.45v-.25a2.55 2.55 0 0 0-.6-1.55 2.116 2.116 0 0 0-1.55-.65c-.6 0-1.1.217-1.5.65zm17.85 1.8v-.25a2.414 2.414 0 0 0-.65-1.55c-.4-.433-.9-.65-1.5-.65s-1.117.217-1.55.65a2.55 2.55 0 0 0-.6 1.55v.25c.033.567.233 1.05.6 1.45.433.467.95.7 1.55.7.6 0 1.1-.233 1.5-.7.4-.4.617-.883.65-1.45z" fill="#7F7058"/></g><path d="M157.008 35.678a21.574 21.574 0 0 1 2.63-.032c-2.083-1.34-4.506-1.881-7.267-1.624-.34.021-.572.118-.699.29-.19.19-.28.438-.266.745.037.266.154.51.352.734.172.126 1.922.089 5.25-.113zm-22.392.512c.71.052 1.574.18 2.589.382 3.274.533 4.997.735 5.169.609.253-.174.398-.394.435-.66.054-.33-.002-.57-.17-.718a.806.806 0 0 0-.611-.423c-2.748-.564-5.218-.294-7.412.81z" fill="#B8824D"/><path d="M135.9 48.6c.533-.433.8-.933.8-1.5 0-.633-.267-1.167-.8-1.6-.467-.4-1.033-.6-1.7-.6-.7 0-1.3.2-1.8.6-.467.433-.7.967-.7 1.6 0 .567.233 1.067.7 1.5.5.433 1.1.65 1.8.65.667 0 1.233-.217 1.7-.65zm24.55 0c.533-.433.8-.933.8-1.5 0-.633-.267-1.167-.8-1.6-.467-.4-1.033-.6-1.7-.6-.7 0-1.3.2-1.8.6-.467.433-.7.967-.7 1.6 0 .567.233 1.067.7 1.5.5.433 1.1.65 1.8.65.667 0 1.233-.217 1.7-.65z" fill="#FFF" fill-opacity=".302"/><path d="M142.404 47.365a.672.672 0 0 0-.578-.116.59.59 0 0 0-.462.308.672.672 0 0 0-.116.578.704.704 0 0 0 .309.501c2.388 1.592 5.213 1.875 8.475.848a.861.861 0 0 0 .462-.386.885.885 0 0 0 .039-.578.703.703 0 0 0-.385-.423.755.755 0 0 0-.578-.077c-2.748.873-5.137.655-7.166-.655z" fill="#7F7058"/><path d="M151.55 15.25c-2.167-.6-4-.7-5.5-.3-2.033-.6-4.05-.85-6.05-.75a2.544 2.544 0 0 0-.5-.05c-.367 0-.683.033-.95.1a16.675 16.675 0 0 0-3.75.9c-5.2 1.733-9.333 5.35-12.4 10.85a23.37 23.37 0 0 0-2.7 6.4 26.704 26.704 0 0 0-1.15 6.35v.85c.1-1.9.45-3.75 1.05-5.55.6-2.2 1.517-4.35 2.75-6.45 3.8-6.733 9.2-10.667 16.2-11.8a4.065 4.065 0 0 1 1.1-.05c2.1-.067 4.233.2 6.4.8 1.467-.467 3.317-.383 5.55.25 7.367 2 11.833 7.083 13.4 15.25.067 1 .183 2.033.35 3.1-.033-.567-.067-1.1-.1-1.6a45.594 45.594 0 0 0-.4-3.25c-1.5-8.067-5.933-13.083-13.3-15.05z" fill="#C68C53"/><path d="M146.55 26.85a67.68 67.68 0 0 0-.95 2.3l13.95 4.15c2.575.903 3.425 3.186 2.55 6.85-.8 3.632-.45 7.348 1.05 11.15 1.26-.737 1.843-3.17 1.75-7.3l.5-8.25c-.033-.2-.05-.4-.05-.6a35.31 35.31 0 0 1-.35-3.1c-1.567-8.167-6.033-13.25-13.4-15.25-2.233-.633-4.083-.717-5.55-.25-2.167-.6-4.3-.867-6.4-.8a4.065 4.065 0 0 0-1.1.05c-7 1.133-12.4 5.067-16.2 11.8-1.233 2.1-2.15 4.25-2.75 6.45-.6 1.8-.95 3.65-1.05 5.55v.5c.427 9.44 3.777 14.557 10.05 15.35-.692-6.784.991-11.067 5.05-12.85l-2-7.95c5.633-1.2 10.867-4.7 15.7-10.5 0-.067.033-.1.1-.1a45.44 45.44 0 0 0-.9 2.8z" fill="#B8824D"/><path d="M145.6 29.15c.3-.767.617-1.533.95-2.3a45.44 45.44 0 0 1 .9-2.8c-.067 0-.1.033-.1.1-4.833 5.8-10.067 9.3-15.7 10.5l2 7.95v.1c5.033-2.367 9.017-6.883 11.95-13.55z" fill="#AD7A48"/><path d="M129.25 102.25l-.1 12.7c-1.895 1.541-4.145 2.558-6.75 3.05-.98-5.44-2.83-10.607-5.55-15.5l12.4-.25z" fill="#FFE0B1"/><path d="M116.85 102.5c-.341-.58-.691-1.164-1.05-1.75l13.5-2.45-.05 3.95-12.4.25z" fill="#FCF7EE"/><path d="M115.8 100.75l-.5.1-.5-2.95 15.4-2.85c.867.4 1.033 1.4.5 3l-1.4.25-13.5 2.45z" fill="#2E88C4"/><path d="M115.4 88.35c1.233-1.8 2.917-2.883 5.05-3.25h.05a7 7 0 0 1 1.15-.1c3.367-.1 6.217 3.25 8.55 10.05l-15.4 2.85-.65-3.6c-.4-2.133.017-4.117 1.25-5.95z" fill="#3498DB"/><path d="M58.95 105.9c.625 1.746 1.791 3.113 3.5 4.1a86.22 86.22 0 0 1 28.5 0 9.514 9.514 0 0 0 2.75-4.1c-11.437-1.198-23.02-1.198-34.75 0z" fill="#D9D6BF"/><path d="M94.35 99.3c-.928-6.129-.378-12.895 1.65-20.3H57c2.569 7.167 3.135 14.184 1.7 21.05-.375 2.278-.292 4.228.25 5.85 11.73-1.198 23.313-1.198 34.75 0 .671-1.855.888-4.055.65-6.6z" fill="#3498DB"/><path d="M8.95 105.9c.625 1.746 1.791 3.113 3.5 4.1a86.22 86.22 0 0 1 28.5 0 9.514 9.514 0 0 0 2.75-4.1c-11.437-1.198-23.02-1.198-34.75 0z" fill="#D9D6BF"/><path d="M44.35 99.3c-.928-6.129-.378-12.895 1.65-20.3H7c2.569 7.167 3.135 14.184 1.7 21.05-.375 2.278-.292 4.228.25 5.85 11.73-1.198 23.313-1.198 34.75 0 .671-1.855.888-4.055.65-6.6z" fill="#3498DB"/><path d="M40.25 84.4l-.7-.8a.337.337 0 0 0-.3-.15c-.1 0-.2.033-.3.1a.337.337 0 0 0-.15.3c-.067.1-.067.217 0 .35.433.967.467 1.967.1 3v-.05c-.567 1.467-1.75 2.517-3.55 3.15-1.8.6-3.717.633-5.75.1-.167-.1-.35-.167-.55-.2-.1-.033-.183-.017-.25.05-.133.067-.217.15-.25.25a.622.622 0 0 0 0 .35c0 .1.05.183.15.25.867.7 1.95 1.25 3.25 1.65h-.05c2.033.667 3.967.7 5.8.1 1.867-.667 3.067-1.85 3.6-3.55v.05c.5-1.6.15-3.25-1.05-4.95zm-26.1.35c-.1 0-.183.05-.25.15-.3.3-.517.6-.65.9-1.267 1.767-1.617 3.433-1.05 5v-.05c.467 1.7 1.65 2.767 3.55 3.2 1.833.433 3.783.2 5.85-.7 1.2-.533 2.25-1.183 3.15-1.95.1-.067.167-.15.2-.25 0-.133-.017-.25-.05-.35a.482.482 0 0 0-.2-.25c-.133-.067-.233-.083-.3-.05-.2.033-.367.1-.5.2-2.067.8-4.017.983-5.85.55-1.767-.433-2.933-1.333-3.5-2.7-.367-.967-.35-1.967.05-3 .033-.1.05-.2.05-.3a.634.634 0 0 0-.15-.3.616.616 0 0 0-.35-.1z" fill="#2E88C4" fill-rule="nonzero"/><path d="M211.6 57.85c1.167-.767 1.983-1.633 2.45-2.6h-19.2c.467.967 1.283 1.833 2.45 2.6 1.967 1.3 4.35 1.95 7.15 1.95 2.8 0 5.183-.65 7.15-1.95z" fill="#D7BD93"/><path d="M223.75 30.05c-.433-2.967-2.167-5.85-5.2-8.65-9.23-8.58-19.314-7.18-30.25 4.2-2.933 0-4.633 1.517-5.1 4.55-.628 4.318-.928 8.035-.9 11.15 2.249 6.277 6.432 10.927 12.55 13.95h19.2c5.264-2.687 8.764-7.02 10.5-13a70.425 70.425 0 0 0-.8-12.2z" fill="#FFE0B1"/><path d="M212.1 14.05c-2.233-.633-4.083-.717-5.55-.25-2.167-.6-4.3-.867-6.4-.8a4.065 4.065 0 0 0-1.1.05c-7 1.133-12.4 5.067-16.2 11.8-1.233 2.1-2.15 4.25-2.75 6.45-.6 1.8-.95 3.65-1.05 5.55v.5c.433 9.433 3.783 14.55 10.05 15.35 17.89 2.991 29.407 1.608 34.55-4.15 1.267-.733 1.867-3.167 1.8-7.3l.45-8.25c-.033-.2-.05-.4-.05-.6a35.31 35.31 0 0 1-.35-3.1c-1.567-8.167-6.033-13.25-13.4-15.25zm0 9c.99 1.008 1.724 2.124 2.2 3.35.467 1.151.7 2.401.7 3.75 0 1.312-.217 2.528-.65 3.65-.483 1.25-1.233 2.383-2.25 3.4-1.967 1.967-4.333 2.95-7.1 2.95-2.767 0-5.133-.983-7.1-2.95-1.017-1.017-1.767-2.15-2.25-3.4-.433-1.122-.65-2.338-.65-3.65 0-1.349.233-2.599.7-3.75.476-1.226 1.21-2.342 2.2-3.35 1.967-1.933 4.333-2.9 7.1-2.9 2.767 0 5.133.967 7.1 2.9z" fill="#B8824D" fill-rule="nonzero"/><path d="M213.15 25.65c-2.267-1.2-4.983-1.8-8.15-1.8-3.167 0-5.883.6-8.15 1.8a8.785 8.785 0 0 0-1.15.75c-.467 1.151-.7 2.401-.7 3.75 0 1.312.217 2.528.65 3.65.483 1.25 1.233 2.383 2.25 3.4 1.967 1.967 4.333 2.95 7.1 2.95 2.767 0 5.133-.983 7.1-2.95 1.017-1.017 1.767-2.15 2.25-3.4.433-1.122.65-2.338.65-3.65 0-1.349-.233-2.599-.7-3.75a8.785 8.785 0 0 0-1.15-.75z" fill="#A67545"/><path d="M205 23.85c3.167 0 5.883.6 8.15 1.8.428.236.811.486 1.15.75-.476-1.226-1.21-2.342-2.2-3.35-1.967-1.933-4.333-2.9-7.1-2.9-2.767 0-5.133.967-7.1 2.9-.99 1.008-1.724 2.124-2.2 3.35a8.785 8.785 0 0 1 1.15-.75c2.267-1.2 4.983-1.8 8.15-1.8zm1.55-10.05c1.467-.467 3.317-.383 5.55.25 7.367 2 11.833 7.083 13.4 15.25.067 1 .183 2.033.35 3.1-.033-.567-.067-1.1-.1-1.6a45.594 45.594 0 0 0-.4-3.25c-1.5-8.067-5.933-13.083-13.3-15.05-2.167-.6-4-.7-5.5-.3-2.033-.6-4.05-.85-6.05-.75a2.544 2.544 0 0 0-.5-.05c-.367 0-.683.033-.95.1a16.675 16.675 0 0 0-3.75.9c-5.2 1.733-9.333 5.35-12.4 10.85a23.37 23.37 0 0 0-2.7 6.4 26.704 26.704 0 0 0-1.15 6.35v.85c.1-1.9.45-3.75 1.05-5.55.6-2.2 1.517-4.35 2.75-6.45 3.8-6.733 9.2-10.667 16.2-11.8a4.065 4.065 0 0 1 1.1-.05c2.1-.067 4.233.2 6.4.8z" fill="#C68C53" fill-rule="nonzero"/></g></svg>