<svg width="230" height="150" xmlns="http://www.w3.org/2000/svg"><g fill="none" fill-rule="evenodd"><g fill-rule="nonzero"><path d="M114.1 139.15c1.2-3.3 2.617-5.683 4.25-7.15l9.65 2.55c.8.2 1.117.667.95 1.4l-.15.55c-1.8 8.067-5 11.5-9.6 10.3a21.623 21.623 0 0 1-4.85-1.85c-1.067-.533-1.5-1.2-1.3-2l.05-.25c.267-.967.533-1.9.8-2.8v.05l.2-.8zm13.05-1.15c.033-.3-.333-.683-1.1-1.15-.733-.467-1.667-.9-2.8-1.3-1.167-.367-2.15-.6-2.95-.7-.867-.067-1.317.033-1.35.3-.067.3.267.683 1 1.15.733.5 1.683.95 2.85 1.35 1.133.4 2.117.633 2.95.7.867.067 1.333-.05 1.4-.35z" fill="#FFE0B1"/><path d="M126.05 136.85c.767.467 1.133.85 1.1 1.15-.067.3-.533.417-1.4.35-.833-.067-1.817-.3-2.95-.7-1.167-.4-2.117-.85-2.85-1.35-.733-.467-1.067-.85-1-1.15.033-.267.483-.367 1.35-.3.8.1 1.783.333 2.95.7 1.133.4 2.067.833 2.8 1.3zm-12.15 3.05c-2.067-2.9-.583-5.533 4.45-7.9-1.633 1.467-3.05 3.85-4.25 7.15l-.2.8v-.05z" fill="#E7CBA0"/></g><path fill="#916B4E" d="M75.05 142.25l-.05-2.9h17.75v2z"/><path d="M75.05 149v-6.75l17.7-.9L91.2 144h1.55c1.2.6 2.283 1.55 3.25 2.85V149H75.05z" fill="#AA7E5C"/><path fill="#E0C1A2" d="M75 139.35v-3.4h17.75v3.4z"/><path d="M77.55 128.5c1.733-1.667 3.833-2.5 6.3-2.5h.05c2.467 0 4.55.833 6.25 2.5 1.733 1.7 2.6 3.767 2.6 6.2v1.25H75v-1.25c0-2.433.85-4.5 2.55-6.2z" fill="#ECCFB1"/><path d="M115.85 99.95a2.2 2.2 0 0 1-.05-.2l14.9-2.7c1.142 1.564 1.226 3.43.25 5.6l-1.05-.2-14.05-2.5z" fill="#E7E2DA"/><path d="M115.3 99.85l-.5-2.95 15.4-2.85c.867.4 1.033 1.4.5 3l-14.9 2.7-.5.1z" fill="#637480"/><path d="M129.9 102.45c.259 3.615.275 7.215.05 10.8-2.033 1.933-4.55 3.183-7.55 3.75-3.133-5.244-5.316-10.927-6.55-17.05l14.05 2.5z" fill="#FFE0B1"/><path d="M115.4 87.35c1.233-1.8 2.917-2.883 5.05-3.25h.05a7 7 0 0 1 1.15-.1c3.367-.1 6.217 3.25 8.55 10.05l-15.4 2.85-.65-3.6c-.4-2.133.017-4.117 1.25-5.95z" fill="#7E95A3"/><path d="M57 104.95V109h39v-4.05H57zm0-12.5c4.467-1.133 6.3-3.75 5.5-7.85-.533-2.3-.333-4.5.6-6.6H57v14.45zM89.9 78c.933 2.1 1.133 4.3.6 6.6-.8 4.1 1.033 6.717 5.5 7.85V78h-6.1z" fill="#B8824D" fill-rule="nonzero"/><path d="M90.5 84.6c.533-2.3.333-4.5-.6-6.6H63.1c-.933 2.1-1.133 4.3-.6 6.6.8 4.1-1.033 6.717-5.5 7.85v12.5h39v-12.5c-4.467-1.133-6.3-3.75-5.5-7.85z" fill="#7E95A3"/><path d="M82.45 102.787H69.502a25.75 25.75 0 0 0 12.95 0z" fill-opacity=".102" fill="#000"/><path d="M78.674 97.499h-5.396l-1.835 1.69.576 3.598h7.878l.611-3.597-1.834-1.691zm-3.454-6.583c0 .216.072.396.216.54a.682.682 0 0 0 .54.251.682.682 0 0 0 .54-.252.732.732 0 0 0 .215-.54.816.816 0 0 0-.216-.539.732.732 0 0 0-.54-.216.732.732 0 0 0-.539.216.816.816 0 0 0-.216.54zm-7.194.288v1.439l7.95 1.15 7.95-1.15v-1.44l-7.95 1.152-7.95-1.151z" fill="#9C6E41" fill-rule="nonzero"/><path d="M73.278 97.499h5.396l1.834 1.69-.611 3.598h3.274c.503 0 .755-.252.755-.756v-9.388l-7.95 1.15-7.95-1.15v9.388c0 .504.251.756.755.756h3.239l-.576-3.597 1.835-1.691zm-5.252-11.224v4.929l7.95 1.15 7.95-1.15v-4.929c0-.503-.252-.755-.756-.755H68.781c-.504 0-.755.252-.755.755zm7.41 5.18a.732.732 0 0 1-.216-.54c0-.191.072-.37.216-.539a.732.732 0 0 1 .54-.216c.215 0 .395.072.54.216a.816.816 0 0 1 .215.54.732.732 0 0 1-.216.54.682.682 0 0 1-.54.251.682.682 0 0 1-.539-.252zM46 109v-4.05H7V109h39zM14.9 80.4a34.324 34.324 0 0 0-1.5-2.4H7v17.45c8.6-1.467 11.767-5.35 9.5-11.65l-2.3-1.2c.1-.767.333-1.5.7-2.2zM46 78h-6.1c.933 2.1 1.133 4.3.6 6.6-.8 4.1 1.033 6.717 5.5 7.85V78z" fill="#B8824D" fill-rule="nonzero"/><path fill="#E0C79A" d="M28.6 89.9L39.9 78H16.7z"/><path d="M40.5 84.6c.533-2.3.333-4.5-.6-6.6L28.6 89.9l11.9-5.3zm-25.6-4.2c-.367.7-.6 1.433-.7 2.2l2.3 1.2 12.1 6.1L16.7 78a8.714 8.714 0 0 0-1.8 2.4z" fill="#637480" fill-rule="nonzero"/><path d="M16.5 83.8c2.267 6.3-.9 10.183-9.5 11.65v9.5h2.45l7.25-5.05 3.7 5.05H46v-12.5c-4.467-1.133-6.3-3.75-5.5-7.85l-11.9 5.3-12.1-6.1zm13.25 9.7c-.333-.3-.5-.65-.5-1.05s.167-.767.5-1.1c.3-.3.65-.45 1.05-.45s.75.15 1.05.45c.3.333.45.7.45 1.1 0 .4-.15.75-.45 1.05-.3.3-.65.45-1.05.45s-.75-.15-1.05-.45zm-1.35 4.3c2.4 0 4.45.217 6.15.65 1.533.433 2.383.917 2.55 1.45H19.75c.133-.533.967-1.017 2.5-1.45 1.7-.433 3.75-.65 6.15-.65zM13.4 78a34.324 34.324 0 0 1 1.5 2.4 8.714 8.714 0 0 1 1.8-2.4h-3.3z" fill="#7E95A3" fill-rule="nonzero"/><path d="M34.55 98.45c-1.7-.433-3.75-.65-6.15-.65-2.4 0-4.45.217-6.15.65-1.533.433-2.367.917-2.5 1.45H37.1c-.167-.533-1.017-1.017-2.55-1.45z" fill="#738895"/><path d="M29.25 92.45c0 .4.167.75.5 1.05.3.3.65.45 1.05.45s.75-.15 1.05-.45c.3-.3.45-.65.45-1.05s-.15-.767-.45-1.1c-.3-.3-.65-.45-1.05-.45s-.75.15-1.05.45c-.333.333-.5.7-.5 1.1zM16.7 99.9l-7.25 5.05H20.4l-3.7-5.05z" fill="#E7E2DA" fill-rule="nonzero"/><path d="M197.65 55.4c1.967 1.3 4.35 1.95 7.15 1.95 2.8 0 5.183-.65 7.15-1.95 1.167-.767 1.983-1.633 2.45-2.6h-19.2c.467.967 1.283 1.833 2.45 2.6z" fill="#D7BD93"/><path d="M224.15 48.25c1.033-6.733 1.017-13.617-.05-20.65-.433-2.967-2.133-4.45-5.1-4.45h-30.35c-2.933 0-4.633 1.517-5.1 4.55-1 6.867-1 13.733 0 20.6.467 3 2.167 4.5 5.1 4.5H219c2.967 0 4.683-1.517 5.15-4.55z" fill="#FFE0B1"/><path d="M205 47.35l19.8-6.85c-13.867 3.717-27.733 4.017-41.6.9l21.8 5.95zm14.15-41.2a2.642 2.642 0 0 1 1.5-.8c-5.733-.833-12.383.183-19.95 3.05a2.85 2.85 0 0 0-.5.15c-3.8 1.133-8.15 2.833-13.05 5.1l-1.25 3.1-3.1-1.35-3 6.75c-1.792 4.801-.942 11.135 2.55 19 .146.336.296.669.45 1l.3-.8 5.7-14.1c5.895-10.448 16.012-17.481 30.35-21.1zm-1.1 3.1l4.1 18.75 3.5 6.4v-15l-7.6-10.15z" fill="#5D5454" fill-rule="nonzero"/><path d="M218.05 9.25c.14-1.405.507-2.438 1.1-3.1-14.338 3.619-24.455 10.652-30.35 21.1l-5.7 14.1.1.05c13.867 3.117 27.733 2.817 41.6-.9l.85-6.1-3.5-6.4-4.1-18.75z" fill="#544B4B"/><path d="M151.2 56.85c1.167-.767 1.983-1.633 2.45-2.6h-19.2c.467.967 1.283 1.833 2.45 2.6 1.967 1.3 4.35 1.95 7.15 1.95 2.8 0 5.183-.65 7.15-1.95z" fill="#D7BD93"/><path d="M158.35 46.2c3.1 1.067 5.033-.467 5.8-4.6.033-1.8.017-3.617-.05-5.45a75.537 75.537 0 0 0-.75-7.1c-.433-2.967-2.133-4.45-5.1-4.45H127.9c-2.933 0-4.633 1.517-5.1 4.55a77.14 77.14 0 0 0-.7 7.85c2.167 7.5 4.983 10.45 8.45 8.85.767-.3 1.55-.567 2.35-.8 3.3-1 7-1.5 11.1-1.5 5.467 0 10.25.883 14.35 2.65z" fill="#FFE0B1"/><path d="M163.5 49.25a65.16 65.16 0 0 0 .65-7.65c-.767 4.133-2.7 5.667-5.8 4.6-4.1-1.767-8.883-2.65-14.35-2.65-4.1 0-7.8.5-11.1 1.5-.8.233-1.583.5-2.35.8-3.467 1.6-6.283-1.35-8.45-8.85a68.345 68.345 0 0 0 .7 12.75c.067.367.15.7.25 1 .1.467.267.883.5 1.25.833 1.5 2.283 2.25 4.35 2.25h30.35c2.8 0 4.483-1.333 5.05-4 .033-.2.067-.383.1-.55a9.77 9.77 0 0 1 .1-.45z" fill="#E7E2DA"/><path d="M150.9 32.1l.2 3.25 8.5-2.25c-2.367-1.733-5.267-2.067-8.7-1zm-9.8 1.4l.2-3.3c-3.433-1.1-6.333-.767-8.7 1l8.5 2.3z" fill="#544B4B" fill-rule="nonzero"/><path d="M152.25 48c.267-.1.467-.267.6-.5.1-.233.117-.483.05-.75-.1-.267-.267-.45-.5-.55a.98.98 0 0 0-.75-.1c-3.567 1.133-6.667.85-9.3-.85a.873.873 0 0 0-.75-.15.766.766 0 0 0-.6.4.873.873 0 0 0-.15.75.913.913 0 0 0 .4.65c3.1 2.067 6.767 2.433 11 1.1z" fill="#7F7058"/><path d="M139.5 36.15c-.667-.733-1.517-1.1-2.55-1.1s-1.917.367-2.65 1.1c-.667.767-1 1.667-1 2.7 0 1.033.333 1.917 1 2.65.733.767 1.617 1.15 2.65 1.15s1.883-.383 2.55-1.15c.733-.733 1.1-1.617 1.1-2.65s-.367-1.933-1.1-2.7zm18.6 0c-.667-.733-1.517-1.1-2.55-1.1s-1.917.367-2.65 1.1c-.667.767-1 1.667-1 2.7 0 1.033.333 1.917 1 2.65.733.767 1.617 1.15 2.65 1.15s1.883-.383 2.55-1.15c.733-.733 1.1-1.617 1.1-2.65s-.367-1.933-1.1-2.7z" fill="#FFF" fill-rule="nonzero"/><path d="M139.2 41.05c.433-.6.65-1.333.65-2.2 0-.867-.217-1.617-.65-2.25-.4-.6-.9-.9-1.5-.9s-1.117.3-1.55.9c-.4.633-.6 1.383-.6 2.25s.2 1.6.6 2.2c.433.633.95.95 1.55.95.6 0 1.1-.317 1.5-.95zm16.85 0c.433-.6.65-1.333.65-2.2 0-.867-.217-1.617-.65-2.25-.4-.6-.9-.9-1.5-.9s-1.117.3-1.55.9c-.4.633-.6 1.383-.6 2.25s.2 1.6.6 2.2c.433.633.95.95 1.55.95.6 0 1.1-.317 1.5-.95z" fill="#7F7058" fill-rule="nonzero"/><path d="M158.75 6.15a2.642 2.642 0 0 1 1.5-.8c-5.733-.833-12.383.183-19.95 3.05a2.85 2.85 0 0 0-.5.15c-3.8 1.133-8.15 2.833-13.05 5.1l-1.25 3.1-3.1-1.35-3 6.75c-1.867 5-.867 11.667 3 20l6-14.9c5.895-10.448 16.012-17.481 30.35-21.1zm-1.1 3.1l4.1 18.75 2.4 8.15 1.1-16.75-7.6-10.15z" fill="#5D5454" fill-rule="nonzero"/><path d="M146.3 27.8c4.807 1.057 9.957 1.124 15.45.2l-4.1-18.75c.14-1.405.507-2.438 1.1-3.1-14.338 3.619-24.455 10.652-30.35 21.1 3.555-1.832 7.255-2.316 11.1-1.45 2.013.582 3.713 1.765 5.1 3.55l1.7-1.55z" fill="#544B4B"/><path d="M91.2 56.8c1.167-.767 1.983-1.633 2.45-2.6h-19.2c.467.967 1.283 1.833 2.45 2.6 1.967 1.3 4.35 1.95 7.15 1.95 2.8 0 5.183-.65 7.15-1.95z" fill="#D7BD93"/><path d="M98.35 46.15c3.1 1.067 5.033-.467 5.8-4.6.033-1.8.017-3.617-.05-5.45a75.537 75.537 0 0 0-.75-7.1c-.433-2.967-2.133-4.45-5.1-4.45H67.9c-2.933 0-4.633 1.517-5.1 4.55a77.14 77.14 0 0 0-.7 7.85c2.167 7.5 4.983 10.45 8.45 8.85.767-.3 1.55-.567 2.35-.8 3.3-1 7-1.5 11.1-1.5 5.467 0 10.25.883 14.35 2.65z" fill="#FFE0B1"/><path d="M103.5 49.2a65.16 65.16 0 0 0 .65-7.65c-.767 4.133-2.7 5.667-5.8 4.6-4.1-1.767-8.883-2.65-14.35-2.65-4.1 0-7.8.5-11.1 1.5-.8.233-1.583.5-2.35.8-3.467 1.6-6.283-1.35-8.45-8.85a68.345 68.345 0 0 0 .7 12.75c.067.367.15.7.25 1 .1.467.267.883.5 1.25.833 1.5 2.283 2.25 4.35 2.25h30.35c2.8 0 4.483-1.333 5.05-4 .033-.2.067-.383.1-.55a9.77 9.77 0 0 1 .1-.45z" fill="#E7E2DA"/><g fill-rule="nonzero"><path d="M79.5 36.1c-.667-.733-1.517-1.1-2.55-1.1s-1.917.367-2.65 1.1c-.667.767-1 1.667-1 2.7 0 1.033.333 1.917 1 2.65.733.767 1.617 1.15 2.65 1.15s1.883-.383 2.55-1.15c.733-.733 1.1-1.617 1.1-2.65s-.367-1.933-1.1-2.7zm19.7 2.7c0-1.033-.367-1.933-1.1-2.7-.667-.733-1.517-1.1-2.55-1.1s-1.917.367-2.65 1.1c-.667.767-1 1.667-1 2.7 0 1.033.333 1.917 1 2.65.733.767 1.617 1.15 2.65 1.15s1.883-.383 2.55-1.15a3.613 3.613 0 0 0 1.1-2.65z" fill="#FFF"/><path d="M92.15 31.05l-.65 3.2h8.8c-1.833-2.3-4.55-3.367-8.15-3.2zm-11.5 2.3l-.65-3.2c-3.6-.167-6.317.9-8.15 3.2h8.8z" fill="#544B4B"/></g><path d="M88.9 47.6h-7a5.584 5.584 0 0 0-.45.75c-.167.3-.283.617-.35.95-.067.233-.067.433 0 .6.067.233.2.4.4.5.167.133.35.2.55.2h9.7c.2 0 .4-.067.6-.2.167-.1.283-.267.35-.5.067-.167.083-.367.05-.6-.1-.333-.233-.65-.4-.95-.3-.6-.7-1.15-1.2-1.65l-.05-.05a6.067 6.067 0 0 0-2.25-1.45l.05 2.4z" fill="#7F7058"/><path d="M88.85 45.2c-.6-.2-1.25-.3-1.95-.3-1.633 0-3.05.6-4.25 1.8-.3.267-.55.567-.75.9h7l-.05-2.4z" fill="#FFF"/><path d="M79.2 41c.433-.6.65-1.333.65-2.2 0-.867-.217-1.617-.65-2.25-.4-.6-.9-.9-1.5-.9s-1.117.3-1.55.9c-.4.633-.6 1.383-.6 2.25s.2 1.6.6 2.2c.433.633.95.95 1.55.95.6 0 1.1-.317 1.5-.95zm16.85 0c.433-.6.65-1.333.65-2.2 0-.867-.217-1.617-.65-2.25-.4-.6-.9-.9-1.5-.9s-1.117.3-1.55.9c-.4.633-.6 1.383-.6 2.25s.2 1.6.6 2.2c.433.633.95.95 1.55.95.6 0 1.1-.317 1.5-.95z" fill="#7F7058" fill-rule="nonzero"/><path d="M98.75 6.1a2.642 2.642 0 0 1 1.5-.8c-5.733-.833-12.383.183-19.95 3.05a2.85 2.85 0 0 0-.5.15c-3.8 1.133-8.15 2.833-13.05 5.1l-1.25 3.1-3.1-1.35-3 6.75c-1.867 5-.867 11.667 3 20l6-14.9C74.295 16.752 84.412 9.719 98.75 6.1zm-1.1 3.1l4.1 18.75 2.4 8.15 1.1-16.75-7.6-10.15z" fill="#5D5454" fill-rule="nonzero"/><path d="M86.3 27.75c4.807 1.057 9.957 1.124 15.45.2L97.65 9.2c.14-1.405.507-2.438 1.1-3.1C84.412 9.719 74.295 16.752 68.4 27.2c3.555-1.832 7.255-2.316 11.1-1.45 2.013.582 3.713 1.765 5.1 3.55l1.7-1.55z" fill="#544B4B"/><path d="M24.85 57.35c2.8 0 5.183-.65 7.15-1.95 1.167-.767 1.983-1.633 2.45-2.6h-19.2c.467.967 1.283 1.833 2.45 2.6 1.967 1.3 4.35 1.95 7.15 1.95z" fill="#D7BD93"/><path d="M44.2 48.25a9.77 9.77 0 0 1 .1-.45 65.16 65.16 0 0 0 .65-7.65c-.767 4.133-2.7 5.667-5.8 4.6-4.1-1.767-8.883-2.65-14.35-2.65-4.1 0-7.8.5-11.1 1.5-.8.233-1.583.5-2.35.8-3.467 1.6-6.283-1.35-8.45-8.85a68.345 68.345 0 0 0 .7 12.75c.067.367.15.7.25 1 .1.467.267.883.5 1.25.833 1.5 2.283 2.25 4.35 2.25h30.35c2.8 0 4.483-1.333 5.05-4 .033-.2.067-.383.1-.55z" fill="#E7E2DA"/><path d="M3.6 27.7a77.14 77.14 0 0 0-.7 7.85c2.167 7.5 4.983 10.45 8.45 8.85.767-.3 1.55-.567 2.35-.8 3.3-1 7-1.5 11.1-1.5 5.467 0 10.25.883 14.35 2.65 3.1 1.067 5.033-.467 5.8-4.6.033-1.8.017-3.617-.05-5.45a75.537 75.537 0 0 0-.75-7.1c-.433-2.967-2.133-4.45-5.1-4.45H8.7c-2.933 0-4.633 1.517-5.1 4.55z" fill="#FFE0B1"/><g fill-rule="nonzero"><path d="M32.95 30.65l-.65 3.2h8.8c-1.833-2.3-4.55-3.367-8.15-3.2zm-11.5 4.3l-.65-3.2c-3.6-.167-6.317.9-8.15 3.2h8.8z" fill="#544B4B"/><path d="M16.45 37.1c-.067.3-.1.617-.1.95 0 .867.2 1.6.6 2.2.1.133.2.25.3.35.367.4.783.6 1.25.6.467 0 .883-.2 1.25-.6.1-.1.183-.217.25-.35.433-.6.65-1.333.65-2.2 0-.333-.033-.65-.1-.95h-4.1zm21.05.95c0-.333-.033-.65-.1-.95h-4.1c-.067.3-.1.617-.1.95 0 .867.2 1.6.6 2.2.1.133.2.25.3.35.367.4.783.6 1.25.6.467 0 .883-.2 1.25-.6.1-.1.183-.217.25-.35.433-.6.65-1.333.65-2.2zm-5.6 5.75c-.2-.133-.4-.2-.6-.2h-2.85v3h-7c.2.333.45.633.75.9 1.2 1.2 2.617 1.8 4.25 1.8s3.033-.583 4.2-1.75l.05-.05c.5-.5.9-1.05 1.2-1.65.167-.3.3-.617.4-.95a1.163 1.163 0 0 0-.05-.6c-.067-.233-.183-.4-.35-.5z" fill="#7F7058"/><path d="M16.35 38.05c0-.333.033-.65.1-.95H14.2c-.067.3-.1.617-.1.95 0 1 .3 1.85.9 2.55l.1.1c.733.767 1.617 1.15 2.65 1.15s1.883-.383 2.55-1.15l.1-.1c.667-.7 1-1.55 1-2.55 0-.333-.033-.65-.1-.95h-.75c.067.3.1.617.1.95 0 .867-.217 1.6-.65 2.2-.067.133-.15.25-.25.35-.367.4-.783.6-1.25.6-.467 0-.883-.2-1.25-.6-.1-.1-.2-.217-.3-.35-.4-.6-.6-1.333-.6-2.2zm21.05-.95c.067.3.1.617.1.95 0 .867-.217 1.6-.65 2.2-.067.133-.15.25-.25.35-.367.4-.783.6-1.25.6-.467 0-.883-.2-1.25-.6-.1-.1-.2-.217-.3-.35-.4-.6-.6-1.333-.6-2.2 0-.333.033-.65.1-.95h-.5c-.067.3-.1.617-.1.95 0 1 .3 1.85.9 2.55l.1.1c.733.767 1.617 1.15 2.65 1.15s1.883-.383 2.55-1.15l.1-.1c.667-.7 1-1.55 1-2.55 0-.333-.033-.65-.1-.95h-2.5zm-8.95 9.5v-3H21.6a.86.86 0 0 0-.55.2c-.2.1-.333.267-.4.5-.067.167-.067.367 0 .6.067.333.183.65.35.95.133.267.283.517.45.75h7z" fill="#FFF"/></g><path d="M27.1 26.35c4.807 1.057 9.957 1.124 15.45.2L38.45 7.8c.14-1.405.507-2.438 1.1-3.1C25.212 8.319 15.095 15.352 9.2 25.8c3.555-1.832 7.255-2.316 11.1-1.45 2.013.582 3.713 1.765 5.1 3.55l1.7-1.55z" fill="#544B4B"/><path d="M38.45 7.8l4.1 18.75 2.4 8.15 1.1-16.75-7.6-10.15zm1.1-3.1a2.642 2.642 0 0 1 1.5-.8c-5.733-.833-12.383.183-19.95 3.05a2.85 2.85 0 0 0-.5.15c-3.8 1.133-8.15 2.833-13.05 5.1L6.3 15.3l-3.1-1.35-3 6.75c-1.867 5-.867 11.667 3 20l6-14.9C15.095 15.352 25.212 8.319 39.55 4.7z" fill="#5D5454" fill-rule="nonzero"/></g></svg>