<svg width="230" height="150" xmlns="http://www.w3.org/2000/svg"><g fill="none" fill-rule="evenodd"><g fill-rule="nonzero"><path d="M114.1 140.15c1.2-3.3 2.617-5.683 4.25-7.15l9.65 2.55c.8.2 1.117.667.95 1.4l-.15.55c-1.8 8.067-5 11.5-9.6 10.3a21.623 21.623 0 0 1-4.85-1.85c-1.067-.533-1.5-1.2-1.3-2l.05-.25c.267-.967.533-1.9.8-2.8v.05l.2-.8zm13.05-1.15c.033-.3-.333-.683-1.1-1.15-.733-.467-1.667-.9-2.8-1.3-1.167-.367-2.15-.6-2.95-.7-.867-.067-1.317.033-1.35.3-.067.3.267.683 1 1.15.733.5 1.683.95 2.85 1.35 1.133.4 2.117.633 2.95.7.867.067 1.333-.05 1.4-.35z" fill="#957544"/><path d="M126.05 137.85c.767.467 1.133.85 1.1 1.15-.067.3-.533.417-1.4.35-.833-.067-1.817-.3-2.95-.7-1.167-.4-2.117-.85-2.85-1.35-.733-.467-1.067-.85-1-1.15.033-.267.483-.367 1.35-.3.8.1 1.783.333 2.95.7 1.133.4 2.067.833 2.8 1.3zm-12.15 3.05c-2.067-2.9-.583-5.533 4.45-7.9-1.633 1.467-3.05 3.85-4.25 7.15l-.2.8v-.05z" fill="#85683B"/></g><path fill="#AA7847" d="M75 141.65v-2.3l17.75-1.65v3.95z"/><path d="M83.85 127h.05c2.467 0 4.55.833 6.25 2.5 1.733 1.7 2.6 3.767 2.6 6.2v2L75 139.35v-3.65c0-2.433.85-4.5 2.55-6.2 1.733-1.667 3.833-2.5 6.3-2.5z" fill="#B8824D"/><path fill="#484848" d="M75 145.05v-3.4h17.75v3.4h-17.7z"/><path d="M75.05 150v-4.95h17.7V145c1.2.6 2.283 1.55 3.25 2.85V150H75.05z" fill="#545454"/><path d="M129.8 102.4c.348 3.958.398 7.908.15 11.85-2.033 1.933-4.55 3.183-7.55 3.75-2.802-4.69-4.835-9.74-6.1-15.15l13.5-.45z" fill="#957544"/><path d="M116.3 102.85a28.572 28.572 0 0 1-.5-2.1l13.5-2.45a97.11 97.11 0 0 1 .5 4.1l-13.5.45z" fill="#8C6E40"/><path d="M115.3 100.85l-.5-2.95 15.4-2.85c.867.4 1.033 1.4.5 3l-1.4.25-13.5 2.45-.5.1z" fill="#747B64"/><path d="M120.45 85.1h.05a7 7 0 0 1 1.15-.1c3.367-.1 6.217 3.25 8.55 10.05l-15.4 2.85-.65-3.6c-.4-2.133.017-4.117 1.25-5.95 1.233-1.8 2.917-2.883 5.05-3.25z" fill="#889176"/><path fill="#B8824D" d="M57 105.9v4.1h39v-4.1H69.5z"/><path d="M74.75 101.45l-2 1.65.7 1.4 2.25-1.15-.95-1.9zm-4.8-9.9c-.7-.4-1.467-.017-2.3 1.15l1.45 2.95 2-1.7-1.15-2.4zm3.3.6l2.35-2-2.6-3c-.933-.233-1.7.45-2.3 2.05l2.55 2.95zm7.65 4.1l-2.35 1.95L81 101l2.25-2-2.35-2.75z" fill="#747B64" fill-rule="nonzero"/><path d="M67.65 92.7c.833-1.167 1.6-1.55 2.3-1.15l1.15 2.4 2.15-1.8-2.55-2.95c.6-1.6 1.367-2.283 2.3-2.05l2.6 3L88.85 79H57v26.9l12.1-10.25-1.45-2.95zm13.25 3.55L83.25 99 81 101l-2.45-2.8-3.8 3.25.95 1.9-2.25 1.15-.7-1.4-3.25 2.8H96V83.55l-15.1 12.7z" fill="#889176" fill-rule="nonzero"/><path fill="#91663C" d="M96 79h-7.15L75.6 90.15l-2.35 2-2.15 1.8-2 1.7L57 105.9h12.5l3.25-2.8 2-1.65 3.8-3.25 2.35-1.95L96 83.55z"/><path d="M33.5 105.9h-3.9v4.1H46v-4.1H33.5zm-11.1 0H7v4.1h15.4v-4.1z" fill="#B8824D" fill-rule="nonzero"/><path fill="#C3DAE2" d="M22.4 104.4v5.6h7.2v-5.6z"/><path d="M17.5 92.4v.05c-.367.967-.35 1.917.05 2.85.4.967 1.083 1.633 2.05 2 .967.4 1.917.383 2.85-.05a3.24 3.24 0 0 0 .5-.25l-5.45-4.6zm9.2-2.8l.3-.65c.4-.967.383-1.933-.05-2.9-.4-.933-1.083-1.6-2.05-2-.967-.367-1.917-.35-2.85.05a5.473 5.473 0 0 0-1.1.65l5.75 4.85zm7.5 3.35c0 .4.2.6.6.6h6.1c.4 0 .6-.2.6-.6v-2c0-.4-.2-.6-.6-.6h-6.1c-.4 0-.6.2-.6.6v2z" fill="#D9C195" fill-rule="nonzero"/><path d="M17.5 92.45v-.05L7 83.55v22.35h15.4v-1.5h7.2v1.5h3.9L22.95 97a3.24 3.24 0 0 1-.5.25c-.933.433-1.883.45-2.85.05-.967-.367-1.65-1.033-2.05-2-.4-.933-.417-1.883-.05-2.85zm9.5-3.5l-.3.65L46 105.9V79H14.1l6.85 5.75a5.473 5.473 0 0 1 1.1-.65c.933-.4 1.883-.417 2.85-.05.967.4 1.65 1.067 2.05 2 .433.967.45 1.933.05 2.9zm13.95-2.65c.1.1.15.2.15.3v1.65a.34.34 0 0 1-.1.25c-.033.067-.1.117-.2.15l-2.95.85a.213.213 0 0 1-.2 0l-3-.85a.783.783 0 0 1-.2-.15.34.34 0 0 1-.1-.25V86.6c0-.1.05-.2.15-.3a.34.34 0 0 1 .25-.1h5.95c.1 0 .183.033.25.1zm-6.15 7.25c-.4 0-.6-.2-.6-.6v-2c0-.4.2-.6.6-.6h6.1c.4 0 .6.2.6.6v2c0 .4-.2.6-.6.6h-6.1zm3.6-5.15a.622.622 0 0 0-.2-.45.622.622 0 0 0-.45-.2.622.622 0 0 0-.45.2.622.622 0 0 0-.2.45c0 .167.067.317.2.45s.283.2.45.2a.622.622 0 0 0 .45-.2.622.622 0 0 0 .2-.45z" fill="#889176" fill-rule="nonzero"/><path fill="#91663C" d="M7 79v4.55l10.5 8.85 5.45 4.6 10.55 8.9H46L26.7 89.6l-5.75-4.85L14.1 79z"/><path d="M41.1 86.6c0-.1-.05-.2-.15-.3a.34.34 0 0 0-.25-.1h-5.95a.34.34 0 0 0-.25.1c-.1.1-.15.2-.15.3v1.65c0 .1.033.183.1.25a.783.783 0 0 0 .2.15l3 .85a.213.213 0 0 0 .2 0l2.95-.85c.1-.033.167-.083.2-.15a.34.34 0 0 0 .1-.25V86.6zm-2.9 1.35c.133.133.2.283.2.45a.622.622 0 0 1-.2.45.622.622 0 0 1-.45.2.622.622 0 0 1-.45-.2.622.622 0 0 1-.2-.45c0-.167.067-.317.2-.45a.622.622 0 0 1 .45-.2c.167 0 .317.067.45.2z" fill="#747B64" fill-rule="nonzero"/><path d="M223.75 30.05c-.433-2.967-2.133-4.45-5.1-4.45H188.3c-2.933 0-4.633 1.517-5.1 4.55a77.14 77.14 0 0 0-.7 7.85 68.345 68.345 0 0 0 .7 12.75c.067.367.15.7.25 1 .1.467.267.883.5 1.25.833 1.5 2.283 2.25 4.35 2.25h30.35c2.8 0 4.483-1.333 5.05-4 .033-.2.067-.383.1-.55a9.77 9.77 0 0 1 .1-.45 65.16 65.16 0 0 0 .65-7.65c.033-1.8.017-3.617-.05-5.45a75.537 75.537 0 0 0-.75-7.1z" fill="#957544"/><path d="M211.6 57.85c1.167-.767 1.983-1.633 2.45-2.6h-19.2c.467.967 1.283 1.833 2.45 2.6 1.967 1.3 4.35 1.95 7.15 1.95 2.8 0 5.183-.65 7.15-1.95z" fill="#85683B"/><path d="M224.85 39.65L205 46l-22.65-4.05 22.65 8.2 19.85-10.5zM204.2 10.4l-7.15.35-4.65 3.5-2.95-1.05-.95 3.05-4.95 1.5-2.8 5.85-3.45 1 1.55 2.85-1.25 2.7 3.2 5.9 5-16.85 18.4-8.8zm10.3 1.15l10.35 16.9 3.45-2.25-8.35-13.55-5.45-1.1z" fill="#5D5353" fill-rule="nonzero"/><path fill="#544B4B" d="M224.85 28.45l-10.35-16.9h-.05L211.2 6.6l-7 3.8-18.4 8.8-5 16.85 1.55 5.9L205 46l19.85-6.35z"/><path d="M151.2 57.85c1.167-.767 1.983-1.633 2.45-2.6h-19.2c.467.967 1.283 1.833 2.45 2.6 1.967 1.3 4.35 1.95 7.15 1.95 2.8 0 5.183-.65 7.15-1.95z" fill="#795E36"/><path d="M164.15 42.6c-.767 4.133-2.7 5.667-5.8 4.6-4.1-1.767-8.883-2.65-14.35-2.65-4.1 0-7.8.5-11.1 1.5-.8.233-1.583.5-2.35.8-3.467 1.6-6.283-1.35-8.45-8.85a68.345 68.345 0 0 0 .7 12.75c.067.367.15.7.25 1 .1.467.267.883.5 1.25.833 1.5 2.283 2.25 4.35 2.25h30.35c2.8 0 4.483-1.333 5.05-4 .033-.2.067-.383.1-.55a9.77 9.77 0 0 1 .1-.45 65.16 65.16 0 0 0 .65-7.65z" fill="#85683B"/><path d="M163.35 30.05c-.433-2.967-2.133-4.45-5.1-4.45H127.9c-2.933 0-4.633 1.517-5.1 4.55a77.14 77.14 0 0 0-.7 7.85c2.167 7.5 4.983 10.45 8.45 8.85.767-.3 1.55-.567 2.35-.8 3.3-1 7-1.5 11.1-1.5 5.467 0 10.25.883 14.35 2.65 3.1 1.067 5.033-.467 5.8-4.6.033-1.8.017-3.617-.05-5.45a75.537 75.537 0 0 0-.75-7.1z" fill="#957544"/><path d="M125.4 37.85l1.8 3.85c.033.033.05.067.05.1l2.6 2.95c.067.067.167.1.3.1.1.033.2.017.3-.05l.55-.4a.628.628 0 0 0 .15-.25c.033-.1.033-.2 0-.3l-1.7-3.7c0-.033-.017-.067-.05-.1l-2.7-3.1c-.033-.067-.117-.1-.25-.1a.33.33 0 0 0-.3.05l-.65.45c-.067.033-.117.1-.15.2 0 .1.017.2.05.3z" fill="#85683B"/><path d="M140.45 37.2c.267-.033.5-.15.7-.35a.88.88 0 0 0 .25-.65 1.74 1.74 0 0 0-.35-.75c-.167-.167-.4-.233-.7-.2-2.067.067-4.033-.2-5.9-.8-.3-.033-.567 0-.8.1a.78.78 0 0 0-.45.65c-.1.267-.067.5.1.7.1.267.283.433.55.5 2.067.667 4.267.933 6.6.8zm18.5-2.85c-.233-.1-.5-.133-.8-.1-1.867.567-3.833.817-5.9.75a.87.87 0 0 0-.75.25c-.167.167-.283.4-.35.7 0 .3.1.55.3.75.2.167.433.283.7.35 2.3.067 4.483-.217 6.55-.85.3-.067.517-.217.65-.45a.963.963 0 0 0 .05-.8c-.067-.3-.217-.5-.45-.6z" fill="#544B4B" fill-rule="nonzero"/><g fill-rule="nonzero"><path d="M139.85 40.3c0-.467-.067-.9-.2-1.3l-3.65-.65c-.3.567-.45 1.217-.45 1.95 0 .867.2 1.6.6 2.2.433.633.95.95 1.55.95.6 0 1.1-.317 1.5-.95.433-.6.65-1.333.65-2.2zm16.85 0c0-.633-.117-1.217-.35-1.75l-3.8.55c-.1.367-.15.767-.15 1.2 0 .867.2 1.6.6 2.2.433.633.95.95 1.55.95.6 0 1.1-.317 1.5-.95.433-.6.65-1.333.65-2.2z" fill="#544B4B"/><path d="M139.65 39c.133.4.2.833.2 1.3 0 .867-.217 1.6-.65 2.2-.4.633-.9.95-1.5.95s-1.117-.317-1.55-.95c-.4-.6-.6-1.333-.6-2.2 0-.733.15-1.383.45-1.95l-2-.35c-.467.667-.7 1.433-.7 2.3 0 1.033.333 1.917 1 2.65.733.767 1.617 1.15 2.65 1.15s1.883-.383 2.55-1.15a3.613 3.613 0 0 0 1.1-2.65c0-.433-.05-.833-.15-1.2l-.8-.1zm18.95-.75l-2.25.3c.233.533.35 1.117.35 1.75 0 .867-.217 1.6-.65 2.2-.4.633-.9.95-1.5.95s-1.117-.317-1.55-.95c-.4-.6-.6-1.333-.6-2.2 0-.433.05-.833.15-1.2l-.5.05c-.1.367-.15.75-.15 1.15 0 1.033.333 1.917 1 2.65.733.767 1.617 1.15 2.65 1.15s1.883-.383 2.55-1.15a3.613 3.613 0 0 0 1.1-2.65c0-.767-.2-1.45-.6-2.05z" fill="#FFF"/></g><path d="M145.05 45.75c.3-.533.15-1.183-.45-1.95l-.1-.1c-.667-.6-1.5-.783-2.5-.55-1.8.5-3.567 2.033-5.3 4.6a.731.731 0 0 0-.15.45c-.033.2 0 .35.1.45l.25.65c.067.167.15.267.25.3.167.067.3.067.4 0 2.167-1.433 4.2-2.4 6.1-2.9.8-.167 1.267-.483 1.4-.95zm9.3 2.45a1.1 1.1 0 0 0-.2-.45c-1.733-2.567-3.5-4.1-5.3-4.6-1-.233-1.833-.05-2.5.55-.033.033-.05.067-.05.1-.633.767-.8 1.417-.5 1.95.133.467.6.783 1.4.95 1.9.5 3.933 1.467 6.1 2.9a.425.425 0 0 0 .4 0c.1-.033.183-.133.25-.3l.3-.65c.067-.1.1-.25.1-.45z" fill="#544B4B" fill-rule="nonzero"/><path d="M125.4 19.2l18.4-8.8-7.15.35-4.65 3.5-2.95-1.05-.95 3.05-4.95 1.5-2.8 5.85-3.45 1 1.55 2.85-1.25 2.7 3.2 5.9 5-16.85zm34.15-6.55l-5.45-1.1 10.35 16.9 3.45-2.25-8.35-13.55z" fill="#5D5353" fill-rule="nonzero"/><path fill="#544B4B" d="M154.05 11.55L150.8 6.6l-7 3.8-18.4 8.8-5 16.85-1.2 3.75 3.15 3.4 1.75-4.8 1.8.3 1.8-10.25L141.35 32l3.25-4.2 1.2.1 10.35 2.2.3-1.25 3.7.35 4.45 8.85-.15-9.6-10.35-16.9z"/><path d="M91.2 57.8c1.167-.767 1.983-1.633 2.45-2.6h-19.2c.467.967 1.283 1.833 2.45 2.6 1.967 1.3 4.35 1.95 7.15 1.95 2.8 0 5.183-.65 7.15-1.95z" fill="#795E36"/><path d="M104.15 42.55c-.767 4.133-2.7 5.667-5.8 4.6-4.1-1.767-8.883-2.65-14.35-2.65-4.1 0-7.8.5-11.1 1.5-.8.233-1.583.5-2.35.8-3.467 1.6-6.283-1.35-8.45-8.85a68.345 68.345 0 0 0 .7 12.75c.067.367.15.7.25 1 .1.467.267.883.5 1.25.833 1.5 2.283 2.25 4.35 2.25h30.35c2.8 0 4.483-1.333 5.05-4 .033-.2.067-.383.1-.55a9.77 9.77 0 0 1 .1-.45 65.16 65.16 0 0 0 .65-7.65z" fill="#85683B"/><path d="M103.35 30c-.433-2.967-2.133-4.45-5.1-4.45H67.9c-2.933 0-4.633 1.517-5.1 4.55a77.14 77.14 0 0 0-.7 7.85c2.167 7.5 4.983 10.45 8.45 8.85.767-.3 1.55-.567 2.35-.8 3.3-1 7-1.5 11.1-1.5 5.467 0 10.25.883 14.35 2.65 3.1 1.067 5.033-.467 5.8-4.6.033-1.8.017-3.617-.05-5.45a75.537 75.537 0 0 0-.75-7.1z" fill="#957544"/><path d="M65.4 37.8l1.8 3.85c.033.033.05.067.05.1l2.6 2.95c.067.067.167.1.3.1.1.033.2.017.3-.05l.55-.4a.628.628 0 0 0 .15-.25c.033-.1.033-.2 0-.3l-1.7-3.7c0-.033-.017-.067-.05-.1l-2.7-3.1c-.033-.067-.117-.1-.25-.1a.33.33 0 0 0-.3.05l-.65.45c-.067.033-.117.1-.15.2 0 .1.017.2.05.3z" fill="#85683B"/><path d="M80.65 34.65c.267-.1.467-.267.6-.5a.76.76 0 0 0 .1-.75 1.51 1.51 0 0 0-.5-.6c-.267-.133-.517-.15-.75-.05-2 .6-3.983.867-5.95.8-.3.033-.533.133-.7.3-.233.167-.333.4-.3.7-.033.267.05.5.25.7.167.233.4.333.7.3 2.2.1 4.383-.2 6.55-.9zm18.5-.4a1.622 1.622 0 0 0-.75-.3c-1.933.1-3.9-.15-5.9-.75-.267-.133-.533-.117-.8.05-.2.067-.367.25-.5.55-.067.3-.033.567.1.8.133.2.333.367.6.5 2.2.667 4.367.967 6.5.9.333 0 .583-.1.75-.3.233-.2.333-.433.3-.7 0-.333-.1-.583-.3-.75z" fill="#544B4B" fill-rule="nonzero"/><path d="M87.55 46.1c-.6-.2-1.25-.3-1.95-.3-1.633 0-3.05.6-4.25 1.8-.3.267-.55.567-.75.9h7l-.05-2.4z" fill="#FFF"/><path d="M89.85 47.6l-.05-.05a6.067 6.067 0 0 0-2.25-1.45l.05 2.4h-7a5.584 5.584 0 0 0-.45.75c-.167.3-.283.617-.35.95-.067.233-.067.433 0 .6.067.233.2.4.4.5.167.133.35.2.55.2h9.7c.2 0 .4-.067.6-.2.167-.1.283-.267.35-.5.067-.167.083-.367.05-.6-.1-.333-.233-.65-.4-.95-.3-.6-.7-1.15-1.2-1.65z" fill="#705732"/><g fill-rule="nonzero"><path d="M79.85 40.25c0-.467-.067-.9-.2-1.3L76 38.3c-.3.567-.45 1.217-.45 1.95 0 .867.2 1.6.6 2.2.433.633.95.95 1.55.95.6 0 1.1-.317 1.5-.95.433-.6.65-1.333.65-2.2zm16.85 0c0-.633-.117-1.217-.35-1.75l-3.8.55c-.1.367-.15.767-.15 1.2 0 .867.2 1.6.6 2.2.433.633.95.95 1.55.95.6 0 1.1-.317 1.5-.95.433-.6.65-1.333.65-2.2z" fill="#544B4B"/><path d="M79.65 38.95c.133.4.2.833.2 1.3 0 .867-.217 1.6-.65 2.2-.4.633-.9.95-1.5.95s-1.117-.317-1.55-.95c-.4-.6-.6-1.333-.6-2.2 0-.733.15-1.383.45-1.95l-2-.35c-.467.667-.7 1.433-.7 2.3 0 1.033.333 1.917 1 2.65.733.767 1.617 1.15 2.65 1.15s1.883-.383 2.55-1.15a3.613 3.613 0 0 0 1.1-2.65c0-.433-.05-.833-.15-1.2l-.8-.1zm18.95-.75l-2.25.3c.233.533.35 1.117.35 1.75 0 .867-.217 1.6-.65 2.2-.4.633-.9.95-1.5.95s-1.117-.317-1.55-.95c-.4-.6-.6-1.333-.6-2.2 0-.433.05-.833.15-1.2l-.5.05c-.1.367-.15.75-.15 1.15 0 1.033.333 1.917 1 2.65.733.767 1.617 1.15 2.65 1.15s1.883-.383 2.55-1.15a3.613 3.613 0 0 0 1.1-2.65c0-.767-.2-1.45-.6-2.05z" fill="#FFF"/></g><path d="M85.05 45.7c.3-.533.15-1.183-.45-1.95l-.1-.1c-.667-.6-1.5-.783-2.5-.55-1.8.5-3.567 2.033-5.3 4.6a.731.731 0 0 0-.15.45c-.033.2 0 .35.1.45l.25.65c.067.167.15.267.25.3.167.067.3.067.4 0 2.167-1.433 4.2-2.4 6.1-2.9.8-.167 1.267-.483 1.4-.95zm9.3 2.45a1.1 1.1 0 0 0-.2-.45c-1.733-2.567-3.5-4.1-5.3-4.6-1-.233-1.833-.05-2.5.55-.033.033-.05.067-.05.1-.633.767-.8 1.417-.5 1.95.133.467.6.783 1.4.95 1.9.5 3.933 1.467 6.1 2.9a.425.425 0 0 0 .4 0c.1-.033.183-.133.25-.3l.3-.65c.067-.1.1-.25.1-.45z" fill="#544B4B" fill-rule="nonzero"/><path d="M65.4 19.15l18.4-8.8-7.15.35L72 14.2l-2.95-1.05-.95 3.05-4.95 1.5-2.8 5.85-3.45 1 1.55 2.85-1.25 2.7 3.2 5.9 5-16.85zm34.15-6.55l-5.45-1.1 10.35 16.9 3.45-2.25-8.35-13.55z" fill="#5D5353" fill-rule="nonzero"/><path fill="#544B4B" d="M94.05 11.5L90.8 6.55l-7 3.8-18.4 8.8-5 16.85-1.2 3.75 3.15 3.4 1.75-4.8 1.8.3 1.8-10.25 13.65 3.55 3.25-4.2 1.2.1 10.35 2.2.3-1.25 3.7.35L104.6 38l-.15-9.6L94.1 11.5z"/><path d="M44.95 41.15c-.767 4.133-2.7 5.667-5.8 4.6-4.1-1.767-8.883-2.65-14.35-2.65-4.1 0-7.8.5-11.1 1.5-.8.233-1.583.5-2.35.8-3.467 1.6-6.283-1.35-8.45-8.85a68.345 68.345 0 0 0 .7 12.75c.067.367.15.7.25 1 .1.467.267.883.5 1.25.833 1.5 2.283 2.25 4.35 2.25h30.35c2.8 0 4.483-1.333 5.05-4 .033-.2.067-.383.1-.55a9.77 9.77 0 0 1 .1-.45 65.16 65.16 0 0 0 .65-7.65z" fill="#85683B"/><path d="M44.9 35.7a75.537 75.537 0 0 0-.75-7.1c-.433-2.967-2.133-4.45-5.1-4.45H8.7c-2.933 0-4.633 1.517-5.1 4.55a77.14 77.14 0 0 0-.7 7.85c2.167 7.5 4.983 10.45 8.45 8.85.767-.3 1.55-.567 2.35-.8 3.3-1 7-1.5 11.1-1.5 5.467 0 10.25.883 14.35 2.65 3.1 1.067 5.033-.467 5.8-4.6.033-1.8.017-3.617-.05-5.45z" fill="#957544"/><path d="M17.7 56.4c1.967 1.3 4.35 1.95 7.15 1.95 2.8 0 5.183-.65 7.15-1.95 1.167-.767 1.983-1.633 2.45-2.6h-19.2c.467.967 1.283 1.833 2.45 2.6z" fill="#795E36"/><path d="M6.2 36.4L8 40.25c.033.033.05.067.05.1l2.6 2.95c.067.067.167.1.3.1.1.033.2.017.3-.05l.55-.4a.628.628 0 0 0 .15-.25c.033-.1.033-.2 0-.3l-1.7-3.7c0-.033-.017-.067-.05-.1l-2.7-3.1c-.033-.067-.117-.1-.25-.1a.33.33 0 0 0-.3.05l-.65.45c-.067.033-.117.1-.15.2 0 .1.017.2.05.3z" fill="#85683B"/><path d="M39.6 33.85c.267-.133.417-.333.45-.6a.98.98 0 0 0-.1-.75.78.78 0 0 0-.65-.45c-.233-.067-.483-.033-.75.1-1.667 1.033-3.517 1.783-5.55 2.25a.766.766 0 0 0-.6.4 1.29 1.29 0 0 0-.15.8.919.919 0 0 0 .45.6c.233.133.483.183.75.15 2.267-.5 4.317-1.333 6.15-2.5zM21.5 36.4a.919.919 0 0 0 .45-.6 1.29 1.29 0 0 0-.15-.8.766.766 0 0 0-.6-.4c-2.033-.467-3.883-1.217-5.55-2.25-.267-.133-.517-.167-.75-.1a.78.78 0 0 0-.65.45.98.98 0 0 0-.1.75c.033.267.183.467.45.6 1.833 1.167 3.883 2 6.15 2.5a1.18 1.18 0 0 0 .75-.15z" fill="#544B4B" fill-rule="nonzero"/><path d="M28.45 47.6v-3H21.6a.86.86 0 0 0-.55.2c-.2.1-.333.267-.4.5-.067.167-.067.367 0 .6.067.333.183.65.35.95.133.267.283.517.45.75h7z" fill="#FFF"/><path d="M31.9 44.8c-.2-.133-.4-.2-.6-.2h-2.85v3h-7c.2.333.45.633.75.9 1.2 1.2 2.617 1.8 4.25 1.8s3.033-.583 4.2-1.75l.05-.05c.5-.5.9-1.05 1.2-1.65.167-.3.3-.617.4-.95a1.163 1.163 0 0 0-.05-.6c-.067-.233-.183-.4-.35-.5z" fill="#705732"/><g fill-rule="nonzero"><path d="M16.8 36.9c-.3.567-.45 1.217-.45 1.95 0 .867.2 1.6.6 2.2.433.633.95.95 1.55.95.6 0 1.1-.317 1.5-.95.433-.6.65-1.333.65-2.2 0-.467-.067-.9-.2-1.3l-3.65-.65zm20.7 1.95c0-.633-.117-1.217-.35-1.75l-3.8.55c-.1.367-.15.767-.15 1.2 0 .867.2 1.6.6 2.2.433.633.95.95 1.55.95.6 0 1.1-.317 1.5-.95.433-.6.65-1.333.65-2.2z" fill="#544B4B"/><path d="M16.35 38.85c0-.733.15-1.383.45-1.95l-2-.35c-.467.667-.7 1.433-.7 2.3 0 1.033.333 1.917 1 2.65.733.767 1.617 1.15 2.65 1.15s1.883-.383 2.55-1.15a3.613 3.613 0 0 0 1.1-2.65c0-.433-.05-.833-.15-1.2l-.8-.1c.133.4.2.833.2 1.3 0 .867-.217 1.6-.65 2.2-.4.633-.9.95-1.5.95s-1.117-.317-1.55-.95c-.4-.6-.6-1.333-.6-2.2zM39.4 36.8l-2.25.3c.233.533.35 1.117.35 1.75 0 .867-.217 1.6-.65 2.2-.4.633-.9.95-1.5.95s-1.117-.317-1.55-.95c-.4-.6-.6-1.333-.6-2.2 0-.433.05-.833.15-1.2l-.5.05c-.1.367-.15.75-.15 1.15 0 1.033.333 1.917 1 2.65.733.767 1.617 1.15 2.65 1.15s1.883-.383 2.55-1.15a3.613 3.613 0 0 0 1.1-2.65c0-.767-.2-1.45-.6-2.05z" fill="#FFF"/></g><path d="M35.15 46.75a1.1 1.1 0 0 0-.2-.45c-1.733-2.567-3.5-4.1-5.3-4.6-1-.233-1.833-.05-2.5.55-.033.033-.05.067-.05.1-.633.767-.8 1.417-.5 1.95.133.467.6.783 1.4.95 1.9.5 3.933 1.467 6.1 2.9a.425.425 0 0 0 .4 0c.1-.033.183-.133.25-.3l.3-.65c.067-.1.1-.25.1-.45zM22.8 41.7c-1.8.5-3.567 2.033-5.3 4.6a.731.731 0 0 0-.15.45c-.033.2 0 .35.1.45l.25.65c.067.167.15.267.25.3.167.067.3.067.4 0 2.167-1.433 4.2-2.4 6.1-2.9.8-.167 1.267-.483 1.4-.95.3-.533.15-1.183-.45-1.95l-.1-.1c-.667-.6-1.5-.783-2.5-.55z" fill="#544B4B" fill-rule="nonzero"/><path d="M34.9 10.1L45.25 27l3.45-2.25-8.35-13.55-5.45-1.1zM24.6 8.95l-7.15.35-4.65 3.5-2.95-1.05-.95 3.05-4.95 1.5-2.8 5.85-3.45 1L-.75 26-2 28.7l3.2 5.9 5-16.85 18.4-8.8z" fill="#5D5353" fill-rule="nonzero"/><path fill="#544B4B" d="M34.9 10.1h-.05L31.6 5.15l-7 3.8-18.4 8.8-5 16.85L0 38.35l3.15 3.4 1.75-4.8 1.8.3L8.5 27l13.65 3.55 3.25-4.2 1.2.1 10.35 2.2.3-1.25 3.7.35 4.45 8.85-.15-9.6z"/></g></svg>