<svg width="230" height="150" xmlns="http://www.w3.org/2000/svg"><g fill="none" fill-rule="evenodd"><g fill-rule="nonzero"><path d="M114.1 140.15c1.2-3.3 2.617-5.683 4.25-7.15l9.65 2.55c.8.2 1.117.667.95 1.4l-.15.55c-1.8 8.067-5 11.5-9.6 10.3a21.623 21.623 0 0 1-4.85-1.85c-1.067-.533-1.5-1.2-1.3-2l.05-.25c.267-.967.533-1.9.8-2.8v.05l.2-.8zm13.05-1.15c.033-.3-.333-.683-1.1-1.15-.733-.467-1.667-.9-2.8-1.3-1.167-.367-2.15-.6-2.95-.7-.867-.067-1.317.033-1.35.3-.067.3.267.683 1 1.15.733.5 1.683.95 2.85 1.35 1.133.4 2.117.633 2.95.7.867.067 1.333-.05 1.4-.35z" fill="#2ECC71"/><path d="M126.05 137.85c.767.467 1.133.85 1.1 1.15-.067.3-.533.417-1.4.35-.833-.067-1.817-.3-2.95-.7-1.167-.4-2.117-.85-2.85-1.35-.733-.467-1.067-.85-1-1.15.033-.267.483-.367 1.35-.3.8.1 1.783.333 2.95.7 1.133.4 2.067.833 2.8 1.3zm-12.15 3.05c-2.067-2.9-.583-5.533 4.45-7.9-1.633 1.467-3.05 3.85-4.25 7.15l-.2.8v-.05z" fill="#29B665"/></g><path fill="#E0C1A2" d="M75 145.05v-3.4h17.75v3.4h-17.7z"/><path d="M75.05 150v-4.95h17.7V145c1.2.6 2.283 1.55 3.25 2.85V150H75.05z" fill="#AA7E5C"/><path d="M83.85 127h.05c2.467 0 4.55.833 6.25 2.5 1.733 1.7 2.6 3.767 2.6 6.2v5.95H75v-5.95c0-2.433.85-4.5 2.55-6.2 1.733-1.667 3.833-2.5 6.3-2.5z" fill="#ECCFB1"/><path d="M120.45 85.1h.05a7 7 0 0 1 1.15-.1c3.367-.1 6.217 3.25 8.55 10.05l1.85 4.4-2.85-.35-3.9-.45-2.5 3.1-3.5-1.55-3.55 1.45-1.45.65c.588-1.046.754-2.513.5-4.4l-.65-3.6c-.4-2.133.017-4.117 1.25-5.95 1.233-1.8 2.917-2.883 5.05-3.25z" fill="#AF7B48"/><path d="M115.75 101.65l3.55-1.45 3.5 1.55 2.5-3.1 3.9.45c.76 5.964 1.01 11.014.75 15.15-2.033 1.933-4.55 3.183-7.55 3.75-2.66-4.45-4.876-9.9-6.65-16.35z" fill="#2ECC71"/><path fill="#C48A51" d="M96 79H57v26.9h39z"/><path fill="#8E643A" d="M57 105.9v4.1h39v-4.1z"/><path d="M88.15 84.85l-2.7-3.1c-.033-.067-.117-.1-.25-.1a.33.33 0 0 0-.3.05l-.65.45c-.067.033-.117.1-.15.2 0 .1.017.2.05.3l1.8 3.85c.033.033.05.067.05.1l2.6 2.95c.067.067.167.1.3.1.1.033.2.017.3-.05l.55-.4a.628.628 0 0 0 .15-.25c.033-.1.033-.2 0-.3l-1.7-3.7c0-.033-.017-.067-.05-.1zM69.42 97.73a.944.944 0 0 1-.097.287l-2.392 3.513c-.039.028-.06.058-.066.09l-3.038 2.497c-.076.055-.18.072-.312.051a.33.33 0 0 1-.288-.097l-.48-.483a.628.628 0 0 1-.107-.27.462.462 0 0 1 .048-.297l2.27-3.38c.005-.034.027-.064.065-.091l3.16-2.629c.044-.06.132-.08.263-.059a.33.33 0 0 1 .289.098l.57.548c.06.043.098.117.115.221z" fill="#B17D49"/><path d="M82.818 100.506c.255.224.841.043 1.757-.544a63.7 63.7 0 0 0 1.102-.808c.305.138.644.218 1.016.24a2.773 2.773 0 0 0 1.136-.267c.354.32.704.58 1.05.78.978.64 1.578.834 1.803.578.253-.238.057-.833-.588-1.782-.234-.328-.489-.687-.764-1.077.08-.338.123-.68.129-1.022a4.385 4.385 0 0 0-.138-1.061c.279-.417.555-.796.83-1.138.595-.965.765-1.56.51-1.784-.21-.236-.781-.047-1.714.57-.402.23-.807.496-1.213.8a2.404 2.404 0 0 0-1.041-.197c-.372-.022-.697.04-.975.188-.428-.324-.822-.61-1.18-.855-.936-.578-1.53-.749-1.784-.51-.225.255-.035.827.569 1.714.218.357.501.732.85 1.127a2.514 2.514 0 0 0-.246 1.127c.006.389.09.745.25 1.068a6.952 6.952 0 0 0-.805 1.094c-.58.936-.764 1.522-.554 1.759z" fill="#E05848"/><path fill="#FAFAFA" d="M27.25 98.75l4.65-13.2-9.15.4z"/><path d="M34.2 79l-2.3 6.55-4.65 13.2 7.2-8.15 2.3-2.65 2.45-2.75-5-6.2zm-11.45 6.95L20.3 79l-5 6.2 11.95 13.55-4.5-12.8zM7 105.9v4.1h39v-4.1H7z" fill="#8E643A" fill-rule="nonzero"/><path fill="#25A65B" d="M31.9 85.55L34.2 79H20.3l2.45 6.95z"/><path fill="#C48A51" d="M34.45 90.6l-7.2 8.15L15.3 85.2l5-6.2H7v26.9h39V79H34.2l5 6.2-2.45 2.75h5.45v2.65z"/><path fill="#B17D49" d="M42.2 87.95h-5.45l-2.3 2.65h7.75z"/><path d="M37.48 98.058c-.198.39-.382.81-.554 1.257a3.112 3.112 0 0 0-1.07.362c-.33.2-.61.438-.84.712-.463-.055-.91-.09-1.34-.107-1.091-.052-1.679.08-1.763.393-.09.336.35.755 1.322 1.255.383.193.802.378 1.257.553.04.348.155.68.346.994.2.347.438.627.712.84a18.54 18.54 0 0 0-.107 1.34c-.064 1.136.072 1.75.408 1.84.314.083.727-.383 1.24-1.398.202-.365.398-.781.587-1.249.327-.047.648-.166.96-.355a2.56 2.56 0 0 0 .83-.679c.49.084.946.134 1.365.15 1.136.064 1.75-.072 1.84-.408.084-.314-.382-.727-1.398-1.24-.369-.204-.785-.4-1.248-.586a2.922 2.922 0 0 0-.371-1.037 2.92 2.92 0 0 0-.654-.787c.067-.492.109-.961.125-1.408.052-1.092-.079-1.68-.393-1.763-.336-.09-.754.35-1.255 1.321zm-24.259-8.911a2.514 2.514 0 0 0-.717.905 2.472 2.472 0 0 0-.245 1.069c-.47.196-.872.406-1.203.629-.932.586-1.355 1.032-1.27 1.337.13.313.736.408 1.817.283.398-.067.846-.147 1.345-.242.213.258.482.479.807.662.352.165.731.252 1.138.259.178.443.378.83.601 1.162.596 1.005 1.051 1.443 1.365 1.312.333-.103.418-.723.256-1.86-.067-.397-.138-.831-.214-1.302.22-.27.409-.557.565-.863a4.37 4.37 0 0 0 .342-1.013c.433-.252.848-.47 1.245-.658.959-.605 1.373-1.064 1.242-1.378-.084-.305-.681-.385-1.79-.242-.462.03-.942.092-1.441.187a2.404 2.404 0 0 0-.849-.634 1.81 1.81 0 0 0-.958-.26 29.26 29.26 0 0 0-.685-1.286c-.586-.932-1.046-1.346-1.378-1.242-.314.13-.395.727-.242 1.79.039.415.129.877.27 1.385z" fill="#E05848"/><path d="M25.4 103.3c.033-.1.033-.2 0-.3l-1.7-3.7c0-.033-.017-.067-.05-.1l-2.7-3.1c-.033-.067-.117-.1-.25-.1a.33.33 0 0 0-.3.05l-.65.45c-.067.033-.117.1-.15.2 0 .1.017.2.05.3l1.8 3.85c.033.033.05.067.05.1l2.6 2.95c.067.067.167.1.3.1.1.033.2.017.3-.05l.55-.4a.628.628 0 0 0 .15-.25z" fill="#B17D49"/><path fill="#25A65B" d="M194.85 55.25l9.6 4.55 9.6-4.55z"/><path d="M223.75 30.05c-.433-2.967-2.133-4.45-5.1-4.45H188.3c-2.933 0-4.633 1.517-5.1 4.55-1 6.867-1 13.733 0 20.6.467 3 2.167 4.5 5.1 4.5h30.35c2.967 0 4.683-1.517 5.15-4.55 1.033-6.733 1.017-13.617-.05-20.65z" fill="#2ECC71"/><g fill-rule="nonzero"><path d="M224.05 12.85c-1.646-.44-3.28-.79-4.9-1.05-6.87 1.253-13.186 3.603-18.95 7.05l-2.9-2.9-17.25 15.15c.492 2.31.559 4.46.2 6.45-.073.562-.19 1.112-.35 1.65-1.026 3.58-.01 6.546 3.05 8.9h6.45l5.15 4.4L205 46l3.8 2 5.75-3.75 7.35 10.45c2.517-2.875 3.4-6.158 2.65-9.85l-.35-1.45c2.824-8.592 2.991-17.192.5-25.8h-2.5l1.85-4.75zm-2.6 19.25l-7.5 2.75-.6-1.3 8.1-1.45zm-30.75.35l-1.4-1.25 5.5-5.6-4.1 6.85z" fill="#6B747B"/><path d="M189.3 31.2l1.4 1.25 4.1-6.85-5.5 5.6zm32.15.9l-8.1 1.45.6 1.3 7.5-2.75z" fill="#79838C"/><path d="M224.2 43.4l.35 1.45c5.377-8.117 7.21-17.2 5.5-27.25h-5.35c2.491 8.608 2.324 17.208-.5 25.8zm-26.9-27.45l2.9 2.9c5.764-3.447 12.08-5.797 18.95-7.05-5.843-.885-11.51-.535-17 1.05l2.85-3.9c-6.148-1.08-11.114.353-14.9 4.3l-3.65 3.7-2.9-1.25-4.75 11.1c.571 1.492.988 2.925 1.25 4.3l17.25-15.15z" fill="#717B83"/></g><path fill="#25A65B" d="M134.45 55.25l9.6 4.55 9.6-4.55z"/><path d="M163.35 30.05c-.433-2.967-2.133-4.45-5.1-4.45H127.9c-2.933 0-4.633 1.517-5.1 4.55-1 6.867-1 13.733 0 20.6.467 3 2.167 4.5 5.1 4.5h30.35c2.967 0 4.683-1.517 5.15-4.55 1.033-6.733 1.017-13.617-.05-20.65z" fill="#2ECC71"/><path d="M136.95 45.1c1.033 0 1.883-.383 2.55-1.15.612-.612.962-1.329 1.05-2.15h-7.25a3.89 3.89 0 0 0 1 2.15c.733.767 1.617 1.15 2.65 1.15zm18.6 0c1.033 0 1.883-.383 2.55-1.15.612-.612.962-1.329 1.05-2.15h-7.25a3.89 3.89 0 0 0 1 2.15c.733.767 1.617 1.15 2.65 1.15zm-10.8 4.8c1.09.002 2.123-.064 3.1-.2v-1.45l-6.25-.6a6.263 6.263 0 0 1-.35.25.913.913 0 0 0-.4.65.873.873 0 0 0 .15.75.921.921 0 0 0 .6.45c.293.096 1.343.146 3.15.15z" fill="#FFF" fill-rule="nonzero"/><path d="M152.85 47.3a1.118 1.118 0 0 0-.6-.5c-4.06-1.279-7.61-.995-10.65.85l6.25.6v1.45a17.853 17.853 0 0 0 1.9-.35c1.531-.368 2.414-.618 2.65-.75.233-.1.4-.283.5-.55.067-.267.05-.517-.05-.75z" fill="#7F7058"/><path d="M140.8 38.1c.267-.033.5-.15.7-.35a.878.878 0 0 0 .2-.7c-.033-.3-.15-.533-.35-.7a.806.806 0 0 0-.7-.25c-2.633.233-5.117.1-7.45-.4-.3-.067-.567-.033-.8.1-.233.133-.367.35-.4.65a.98.98 0 0 0 .1.75c.133.233.35.383.65.45 2.5.533 5.183.683 8.05.45zm18.95-2.25c-.233-.133-.5-.167-.8-.1-2.333.5-4.817.633-7.45.4a.806.806 0 0 0-.7.25c-.2.167-.317.4-.35.7-.033.267.033.5.2.7.2.2.433.317.7.35 2.867.233 5.55.083 8.05-.45.3-.067.517-.217.65-.45a.98.98 0 0 0 .1-.75c-.033-.3-.167-.517-.4-.65z" fill="#7E8991" fill-rule="nonzero"/><path d="M130 44.2c-.033-.067-.117-.1-.25-.1a.33.33 0 0 0-.3.05l-.65.45c-.067.033-.117.1-.15.2 0 .1.017.2.05.3l1.8 3.85c.033.033.05.067.05.1l2.6 2.95c.067.067.167.1.3.1.1.033.2.017.3-.05l.55-.4a.628.628 0 0 0 .15-.25c.033-.1.033-.2 0-.3l-1.7-3.7c0-.033-.017-.067-.05-.1l-2.7-3.1z" fill="#28B162"/><path d="M136.9 15.95l2.9 2.9c5.764-3.447 12.08-5.797 18.95-7.05-5.843-.885-11.51-.535-17 1.05l2.85-3.9c-6.148-1.08-11.114.353-14.9 4.3l-3.65 3.7-2.9-1.25-4.75 11.1c.571 1.492.988 2.925 1.25 4.3l17.25-15.15zm-4.95 13.75l2.45-4.1-5.5 5.6 1.4 1.25 1.65-2.75zm31.85 13.7l.35 1.45c5.377-8.117 7.21-17.2 5.5-27.25h-5.35c2.491 8.608 2.324 17.208-.5 25.8zm-10.25-8.55l7.5-2.75-8.1 1.45.6 1.3z" fill="#717B83" fill-rule="nonzero"/><path fill-opacity=".102" fill="#000" d="M146.3 32.55l-1.7-4.7-10.2-2.25-2.45 4.1z"/><path d="M163.65 12.85c-1.646-.44-3.28-.79-4.9-1.05-6.87 1.253-13.186 3.603-18.95 7.05l-2.9-2.9-17.25 15.15c.627 2.964.577 5.664-.15 8.1-1.026 3.58.19 6.796 3.65 9.65l4.75-8-2.1-6.5 3.1-3.15 5.5-5.6 10.2 2.25 1.7 4.7.75 2.05 5.9-1.05 8.1-1.45 2.75 11.3c2.824-8.592 2.991-17.192.5-25.8h-2.5l1.85-4.75z" fill="#6B747B"/><path fill="#25A65B" d="M74.45 55.2l9.6 4.55 9.6-4.55z"/><path d="M103.35 30c-.433-2.967-2.133-4.45-5.1-4.45H67.9c-2.933 0-4.633 1.517-5.1 4.55-1 6.867-1 13.733 0 20.6.467 3 2.167 4.5 5.1 4.5h30.35c2.967 0 4.683-1.517 5.15-4.55 1.033-6.733 1.017-13.617-.05-20.65z" fill="#2ECC71"/><path d="M76.95 45.05c1.033 0 1.883-.383 2.55-1.15.612-.612.962-1.329 1.05-2.15H73.3a3.89 3.89 0 0 0 1 2.15c.733.767 1.617 1.15 2.65 1.15zm18.6 0c1.033 0 1.883-.383 2.55-1.15.612-.612.962-1.329 1.05-2.15H91.9a3.89 3.89 0 0 0 1 2.15c.733.767 1.617 1.15 2.65 1.15zm-7.05 3.5l-.5-1.9-6.2 1.4c-.233.633-.35 1.3-.35 2v.4l7.05-1.9z" fill="#FFF" fill-rule="nonzero"/><path d="M90.75 46.1c-1.067-1.1-2.35-1.65-3.85-1.65s-2.783.55-3.85 1.65a5.285 5.285 0 0 0-1.25 1.95l6.2-1.4.5 1.9 3.3-.95a6.425 6.425 0 0 0-1.05-1.5z" fill="#7F7058"/><path d="M100.35 36.95a1.12 1.12 0 0 0-.75-.4c-2.367-.333-4.733-1.083-7.1-2.25-.233-.133-.483-.133-.75 0-.233.1-.417.283-.55.55-.133.267-.167.5-.1.7.133.267.317.467.55.6 2.6 1.2 5.167 1.983 7.7 2.35.333.1.6.05.8-.15.167-.2.267-.417.3-.65.067-.3.033-.55-.1-.75zm-19.35-1a.91.91 0 0 0 .45-.55c.1-.267.083-.5-.05-.7-.133-.3-.317-.483-.55-.55a.845.845 0 0 0-.75.05c-2.367 1.167-4.717 1.967-7.05 2.4-.333.067-.567.183-.7.35-.2.233-.25.483-.15.75.033.3.15.517.35.65.233.2.5.283.8.25 2.5-.433 5.05-1.317 7.65-2.65z" fill="#7E8991" fill-rule="nonzero"/><path d="M70 44.15c-.033-.067-.117-.1-.25-.1a.33.33 0 0 0-.3.05l-.65.45c-.067.033-.117.1-.15.2 0 .1.017.2.05.3l1.8 3.85c.033.033.05.067.05.1l2.6 2.95c.067.067.167.1.3.1.1.033.2.017.3-.05l.55-.4a.628.628 0 0 0 .15-.25c.033-.1.033-.2 0-.3l-1.7-3.7c0-.033-.017-.067-.05-.1l-2.7-3.1z" fill="#28B162"/><path d="M76.9 15.9l2.9 2.9c5.764-3.447 12.08-5.797 18.95-7.05-5.843-.885-11.51-.535-17 1.05l2.85-3.9c-6.148-1.08-11.114.353-14.9 4.3l-3.65 3.7-2.9-1.25-4.75 11.1c.571 1.492.988 2.925 1.25 4.3L76.9 15.9zm-4.95 13.75l2.45-4.1-5.5 5.6 1.4 1.25 1.65-2.75zm31.85 13.7l.35 1.45c5.377-8.117 7.21-17.2 5.5-27.25h-5.35c2.491 8.608 2.324 17.208-.5 25.8zM93.55 34.8l7.5-2.75-8.1 1.45.6 1.3z" fill="#717B83" fill-rule="nonzero"/><path fill-opacity=".102" fill="#000" d="M86.3 32.5l-1.7-4.7-10.2-2.25-2.45 4.1z"/><path d="M103.65 12.8c-1.646-.44-3.28-.79-4.9-1.05-6.87 1.253-13.186 3.603-18.95 7.05l-2.9-2.9-17.25 15.15c.627 2.964.577 5.664-.15 8.1-1.026 3.58.19 6.796 3.65 9.65l4.75-8-2.1-6.5 3.1-3.15 5.5-5.6 10.2 2.25 1.7 4.7.75 2.05 5.9-1.05 8.1-1.45 2.75 11.3c2.824-8.592 2.991-17.192.5-25.8h-2.5l1.85-4.75z" fill="#6B747B"/><path fill="#25A65B" d="M15.25 53.8l9.6 4.55 9.6-4.55z"/><path d="M44.15 28.6c-.433-2.967-2.133-4.45-5.1-4.45H8.7c-2.933 0-4.633 1.517-5.1 4.55-1 6.867-1 13.733 0 20.6.467 3 2.167 4.5 5.1 4.5h30.35c2.967 0 4.683-1.517 5.15-4.55 1.033-6.733 1.017-13.617-.05-20.65z" fill="#2ECC71"/><g fill-rule="nonzero"><path d="M17.75 43.65c1.033 0 1.883-.383 2.55-1.15.612-.612.962-1.329 1.05-2.15H14.1a3.89 3.89 0 0 0 1 2.15c.733.767 1.617 1.15 2.65 1.15zm18.6 0c1.033 0 1.883-.383 2.55-1.15.612-.612.962-1.329 1.05-2.15H32.7a3.89 3.89 0 0 0 1 2.15c.733.767 1.617 1.15 2.65 1.15z" fill="#FFF"/><path d="M22.5 35.6c-.033-.3-.15-.533-.35-.7a.806.806 0 0 0-.7-.25c-2.633.233-5.117.1-7.45-.4-.3-.067-.567-.033-.8.1-.233.133-.367.35-.4.65a.98.98 0 0 0 .1.75c.133.233.35.383.65.45 2.5.533 5.183.683 8.05.45.267-.033.5-.15.7-.35a.878.878 0 0 0 .2-.7zm18.05-1.2c-.233-.133-.5-.167-.8-.1-2.333.5-4.817.633-7.45.4a.806.806 0 0 0-.7.25c-.2.167-.317.4-.35.7-.033.267.033.5.2.7.2.2.433.317.7.35 2.867.233 5.55.083 8.05-.45.3-.067.517-.217.65-.45a.98.98 0 0 0 .1-.75c-.033-.3-.167-.517-.4-.65z" fill="#7E8991"/></g><path d="M32.65 46.35c.067-.267.05-.533-.05-.8l-2.85 2 2.15 2.55v-.05c.2-.2.317-.45.35-.75l.4-2.95z" fill="#7F7058"/><path d="M20.8 45.95c-.267.267-.4.583-.4.95-.033.367.05.7.25 1 .233.3.533.5.9.6l8.85 2.05c.267.067.533.067.8 0 .267-.1.5-.25.7-.45l-2.15-2.55 2.85-2c-.033-.033-.05-.067-.05-.1a1.24 1.24 0 0 0-.65-.65 1.294 1.294 0 0 0-.85-.2l-9.3.9c-.4.033-.717.183-.95.45z" fill="#FFF"/><path d="M9.457 43.346a.557.557 0 0 0 .028.304l1.822 3.839.056.11 2.596 2.928a.34.34 0 0 0 .276.138c.11.019.212 0 .304-.055l.552-.414a.503.503 0 0 0 .166-.221.557.557 0 0 0-.028-.304l-1.657-3.729a.321.321 0 0 1-.055-.083l-2.707-3.093a.372.372 0 0 0-.248-.138.434.434 0 0 0-.304.055l-.635.442a.503.503 0 0 0-.166.221z" fill="#28B162"/><path d="M12.75 28.25l2.45-4.1-5.5 5.6L11.1 31l1.65-2.75zm29.1 2.4l-8.1 1.45.6 1.3 7.5-2.75zm2.75 11.3l.35 1.45c5.377-8.117 7.21-17.2 5.5-27.25H45.1c2.491 8.608 2.324 17.208-.5 25.8zM17.7 14.5l2.9 2.9c5.764-3.447 12.08-5.797 18.95-7.05-5.843-.885-11.51-.535-17 1.05l2.85-3.9c-6.148-1.08-11.114.353-14.9 4.3l-3.65 3.7-2.9-1.25-4.75 11.1c.571 1.492.988 2.925 1.25 4.3L17.7 14.5z" fill="#717B83" fill-rule="nonzero"/><path fill-opacity=".102" fill="#000" d="M27.1 31.1l-1.7-4.7-10.2-2.25-2.45 4.1z"/><path d="M45.1 16.15h-2.5l1.85-4.75c-1.646-.44-3.28-.79-4.9-1.05-6.87 1.253-13.186 3.603-18.95 7.05l-2.9-2.9L.45 29.65c.627 2.964.577 5.664-.15 8.1-1.026 3.58.19 6.796 3.65 9.65l4.75-8-2.1-6.5 3.1-3.15 5.5-5.6 10.2 2.25 1.7 4.7.75 2.05 5.9-1.05 8.1-1.45 2.75 11.3c2.824-8.592 2.991-17.192.5-25.8z" fill="#6B747B"/></g></svg>