<?xml version="1.0" standalone="no"?>
<!DOCTYPE svg PUBLIC "-//W3C//DTD SVG 1.1//EN" "http://www.w3.org/Graphics/SVG/1.1/DTD/svg11.dtd" >
<svg xmlns="http://www.w3.org/2000/svg" xmlns:xlink="http://www.w3.org/1999/xlink" version="1.1">
<metadata>
Created by FontForge 20190801 at Sat Oct 19 04:28:03 2002
 By Jimmy Wärting
\251 DoubleAlex Team. All rights reserved.
</metadata>
<defs>
<font id="Electronica-Normal" horiz-adv-x="520" >
  <font-face 
    font-family="Electronica"
    font-weight="400"
    font-stretch="normal"
    units-per-em="1000"
    panose-1="4 0 5 0 0 0 0 0 0 0"
    ascent="760"
    descent="-240"
    x-height="560"
    cap-height="740"
    bbox="-82 -240 989 920"
    underline-thickness="50"
    underline-position="-100"
    stemh="86"
    stemv="86"
    unicode-range="U+0020-2265"
  />
<missing-glyph horiz-adv-x="1000" 
 />
    <glyph glyph-name=".notdef" horiz-adv-x="1000" 
 />
    <glyph glyph-name="space" unicode=" " horiz-adv-x="278" 
 />
    <glyph glyph-name="space" unicode="&#xa0;" horiz-adv-x="278" 
 />
    <glyph glyph-name="exclam" unicode="!" horiz-adv-x="180" 
d="M139 424l-43 -43l-43 43v220l43 43l43 -43v-220zM139 156l-43 -43l-43 43v160l43 43l43 -43v-160zM140 0h-86v86h86v-86z" />
    <glyph glyph-name="quotedbl" unicode="&#x22;" horiz-adv-x="300" 
d="M257 604l-43 -43l-43 43v136h86v-136zM137 604l-43 -43l-43 43v136h86v-136z" />
    <glyph glyph-name="numbersign" unicode="#" 
d="M369 517l-45 -43h-168l-43 43l43 43h170zM426 339l-43 -43l-43 43v120l43 43l43 -43v-120zM426 101l-43 -43l-43 43v120l43 43l43 -43v-120zM141 101l-43 -43l-43 43v120l43 43l43 -43v-120zM141 339l-43 -43l-43 43v120l43 43l43 -43v-120zM426 577l-43 -43l-43 43v120
l43 43l43 -43v-120zM369 279l-43 -43h-170l-43 43l43 43h170zM141 577l-43 -43l-43 43v120l43 43l43 -43v-120zM502 279l-45 -43h-18l-43 43l43 43h20zM502 517l-45 -43h-18l-43 43l43 43h20zM85 517l-45 -43h-18l-43 43l43 43h20zM85 279l-45 -43h-18l-43 43l43 43h20z" />
    <glyph glyph-name="dollar" unicode="$" 
d="M409 697l-45 -43h-208l-43 43l43 43h210zM141 429l-43 -43l-43 43v210l43 43l43 -43v-210zM409 369l-45 -43h-208l-43 43l43 43h210zM466 101l-43 -43l-43 43v210l43 43l43 -43v-210zM409 43l-43 -43h-210l-43 43l43 43h210zM284 -50l-43 -43l-43 43v29h86v-29zM284 761
h-86v29l43 43l43 -43v-29z" />
    <glyph glyph-name="percent" unicode="%" horiz-adv-x="900" 
d="M369 517l-45 -43h-168l-43 43l43 43h170zM426 339l-43 -43l-43 43v120l43 43l43 -43v-120zM141 339l-43 -43l-43 43v120l43 43l43 -43v-120zM369 279l-43 -43h-170l-43 43l43 43h170zM854 101l-43 -43l-43 43v120l43 43l43 -43v-120zM569 101l-43 -43l-43 43v120l43 43
l43 -43v-120zM797 43l-43 -43h-170l-43 43l43 43h170zM797 279l-43 -43h-170l-43 43l43 43h170zM333 86h-60v57l302 331h62v-57z" />
    <glyph glyph-name="ampersand" unicode="&#x26;" 
d="M409 697l-45 -43h-208l-43 43l43 43h210zM466 429l-43 -43l-43 43v70l43 43l43 -43v-70zM141 429l-43 -43l-43 43v210l43 43l43 -43v-210zM409 369l-45 -43h-208l-43 43l43 43h210zM466 101l-43 -43l-43 43v210l43 43l43 -43v-210zM141 101l-43 -43l-43 43v210l43 43
l43 -43v-210zM409 43l-43 -43h-210l-43 43l43 43h210zM541 369l-45 -43h-18l-43 43l43 43h20z" />
    <glyph glyph-name="quotesingle" unicode="'" horiz-adv-x="180" 
d="M137 604l-43 -43l-43 43v136h86v-136z" />
    <glyph glyph-name="parenleft" unicode="(" horiz-adv-x="300" 
d="M244 697l-45 -43h-68l-43 43l43 43h70zM121 424l-43 -43l-43 43v220l43 43l43 -43v-220zM121 96l-43 -43l-43 43v220l43 43l43 -43v-220zM244 43l-43 -43h-70l-43 43l43 43h70z" />
    <glyph glyph-name="parenright" unicode=")" horiz-adv-x="300" 
d="M200 697l-45 -43h-68l-43 43l43 43h70zM252 424l-43 -43l-43 43v220l43 43l43 -43v-220zM252 96l-43 -43l-43 43v220l43 43l43 -43v-220zM200 43l-43 -43h-70l-43 43l43 43h70z" />
    <glyph glyph-name="asterisk" unicode="*" horiz-adv-x="278" 
 />
    <glyph glyph-name="plus" unicode="+" 
d="M306 429l-43 -43l-43 43v120l43 43l43 -43v-120zM249 369l-43 -43h-120l-43 43l43 43h120zM306 191l-43 -43l-43 43v120l43 43l43 -43v-120zM483 369l-43 43h-120l-43 -43l43 -43h120z" />
    <glyph glyph-name="comma" unicode="," horiz-adv-x="180" 
d="M132 -50l-43 -43l-43 43v136h86v-136z" />
    <glyph glyph-name="hyphen" unicode="-" horiz-adv-x="340" 
d="M319 369l-45 -43h-218l-43 43l43 43h220z" />
    <glyph glyph-name="hyphen" unicode="&#xad;" horiz-adv-x="340" 
d="M319 369l-45 -43h-218l-43 43l43 43h220z" />
    <glyph glyph-name="period" unicode="." horiz-adv-x="180" 
d="M132 0h-86v86h86v-86z" />
    <glyph glyph-name="slash" unicode="/" 
d="M117 0h-62v65l349 675h62v-65z" />
    <glyph glyph-name="zero" unicode="0" 
d="M409 697l-45 -43h-208l-43 43l43 43h210zM466 429l-43 -43l-43 43v210l43 43l43 -43v-210zM141 429l-43 -43l-43 43v210l43 43l43 -43v-210zM466 101l-43 -43l-43 43v210l43 43l43 -43v-210zM141 101l-43 -43l-43 43v210l43 43l43 -43v-210zM409 43l-43 -43h-210l-43 43
l43 43h210z" />
    <glyph glyph-name="one" unicode="1" 
d="M466 429l-43 -43l-43 43v210l86 85v-295zM466 16l-86 85v210l43 43l43 -43v-295z" />
    <glyph glyph-name="two" unicode="2" 
d="M409 697l-45 -43h-208l-43 43l43 43h210zM466 429l-43 -43l-43 43v210l43 43l43 -43v-210zM409 369l-45 -43h-208l-43 43l43 43h210zM141 101l-86 -85v295l43 43l43 -43v-210zM409 43l-43 -43h-295l85 86h210z" />
    <glyph glyph-name="three" unicode="3" 
d="M409 697l-45 -43h-208l-43 43l43 43h210zM466 429l-43 -43l-43 43v210l43 43l43 -43v-210zM409 369l-45 -43h-208l-43 43l43 43h210zM466 101l-43 -43l-43 43v210l43 43l43 -43v-210zM409 43l-43 -43h-210l-43 43l43 43h210z" />
    <glyph glyph-name="four" unicode="4" 
d="M466 429l-43 -43l-43 43v268l43 43l43 -43v-268zM141 429l-43 -43l-43 43v268l43 43l43 -43v-268zM409 369l-45 -43h-208l-43 43l43 43h210zM466 43l-43 -43l-43 43v268l43 43l43 -43v-268z" />
    <glyph glyph-name="five" unicode="5" 
d="M409 697l-45 -43h-208l-85 86h295zM141 429l-43 -43l-43 43v295l86 -85v-210zM409 369l-45 -43h-208l-43 43l43 43h210zM466 101l-43 -43l-43 43v210l43 43l43 -43v-210zM409 43l-43 -43h-210l-43 43l43 43h210z" />
    <glyph glyph-name="six" unicode="6" 
d="M409 697l-45 -43h-208l-43 43l43 43h210zM141 429l-43 -43l-43 43v210l43 43l43 -43v-210zM409 369l-45 -43h-208l-43 43l43 43h210zM466 101l-43 -43l-43 43v210l43 43l43 -43v-210zM141 101l-43 -43l-43 43v210l43 43l43 -43v-210zM409 43l-43 -43h-210l-43 43l43 43
h210z" />
    <glyph glyph-name="seven" unicode="7" 
d="M364 654h-208l-43 43l43 43h295zM466 429l-43 -43l-43 43v210l86 85v-295zM466 16l-86 85v210l43 43l43 -43v-295z" />
    <glyph glyph-name="eight" unicode="8" 
d="M409 697l-45 -43h-208l-43 43l43 43h210zM466 429l-43 -43l-43 43v210l43 43l43 -43v-210zM141 429l-43 -43l-43 43v210l43 43l43 -43v-210zM409 369l-45 -43h-208l-43 43l43 43h210zM466 101l-43 -43l-43 43v210l43 43l43 -43v-210zM141 101l-43 -43l-43 43v210l43 43
l43 -43v-210zM409 43l-43 -43h-210l-43 43l43 43h210z" />
    <glyph glyph-name="nine" unicode="9" 
d="M409 697l-45 -43h-208l-43 43l43 43h210zM466 429l-43 -43l-43 43v210l43 43l43 -43v-210zM141 429l-43 -43l-43 43v210l43 43l43 -43v-210zM409 369l-45 -43h-208l-43 43l43 43h210zM466 101l-43 -43l-43 43v210l43 43l43 -43v-210zM409 43l-43 -43h-210l-43 43l43 43
h210z" />
    <glyph glyph-name="colon" unicode=":" horiz-adv-x="180" 
d="M132 240h-86v86h86v-86zM132 0h-86v86h86v-86z" />
    <glyph glyph-name="semicolon" unicode=";" horiz-adv-x="180" 
d="M132 240h-86v86h86v-86zM132 -50l-43 -43l-43 43v136h86v-136z" />
    <glyph glyph-name="less" unicode="&#x3c;" 
d="M466 0h-61l-346 358h123l284 -297v-61zM466 679l-284 -297h-123l346 358h61v-61z" />
    <glyph glyph-name="equal" unicode="=" 
d="M466 439l-45 -43h-218l-43 43l43 43h220zM466 309l-45 -43h-218l-43 43l43 43h220z" />
    <glyph glyph-name="greater" unicode="&#x3e;" 
d="M462 382h-123l-284 297v61h61zM462 358l-346 -358h-61v61l284 297h123z" />
    <glyph glyph-name="question" unicode="?" 
d="M409 697l-45 -43h-213l-43 43l43 43h215zM466 429l-43 -43l-43 43v210l43 43l43 -43v-210zM409 369l-45 -43h-213l-43 43l43 43h215zM141 156l-43 -43l-43 43v150l43 43l43 -43v-150zM142 0h-86v86h86v-86z" />
    <glyph glyph-name="at" unicode="@" horiz-adv-x="278" 
 />
    <glyph glyph-name="A" unicode="A" 
d="M409 697l-45 -43h-208l-43 43l43 43h210zM466 429l-43 -43l-43 43v210l43 43l43 -43v-210zM141 429l-43 -43l-43 43v210l43 43l43 -43v-210zM409 369l-45 -43h-208l-43 43l43 43h210zM466 43l-43 -43l-43 43v268l43 43l43 -43v-268zM141 43l-43 -43l-43 43v268l43 43
l43 -43v-268z" />
    <glyph glyph-name="B" unicode="B" 
d="M409 697l-45 -43h-208l-85 86h295zM466 429l-43 -43l-43 43v210l43 43l43 -43v-210zM141 429l-43 -43l-43 43v295l86 -85v-210zM409 369l-45 -43h-208l-43 43l43 43h210zM466 101l-43 -43l-43 43v210l43 43l43 -43v-210zM141 101l-86 -85v295l43 43l43 -43v-210zM409 43
l-43 -43h-295l85 86h210z" />
    <glyph glyph-name="C" unicode="C" 
d="M409 697l-45 -43h-208l-43 43l43 43h210zM141 429l-43 -43l-43 43v210l43 43l43 -43v-210zM141 101l-43 -43l-43 43v210l43 43l43 -43v-210zM409 43l-43 -43h-210l-43 43l43 43h210z" />
    <glyph glyph-name="D" unicode="D" 
d="M409 697l-45 -43h-208l-85 86h295zM466 429l-43 -43l-43 43v210l43 43l43 -43v-210zM141 429l-43 -43l-43 43v295l86 -85v-210zM466 101l-43 -43l-43 43v210l43 43l43 -43v-210zM141 101l-86 -85v295l43 43l43 -43v-210zM409 43l-43 -43h-295l85 86h210z" />
    <glyph glyph-name="E" unicode="E" 
d="M409 697l-45 -43h-208l-85 86h295zM141 429l-43 -43l-43 43v295l86 -85v-210zM409 369l-45 -43h-208l-43 43l43 43h210zM141 101l-86 -85v295l43 43l43 -43v-210zM409 43l-43 -43h-295l85 86h210z" />
    <glyph glyph-name="F" unicode="F" 
d="M409 697l-45 -43h-208l-85 86h295zM141 429l-43 -43l-43 43v295l86 -85v-210zM409 369l-45 -43h-208l-43 43l43 43h210zM141 43l-43 -43l-43 43v268l43 43l43 -43v-268z" />
    <glyph glyph-name="G" unicode="G" 
d="M409 697l-45 -43h-208l-43 43l43 43h210zM141 429l-43 -43l-43 43v210l43 43l43 -43v-210zM456 412l-87 -86h-78l-43 43l43 43h165zM466 101l-43 -43l-43 43v210l86 86v-296zM141 101l-43 -43l-43 43v210l43 43l43 -43v-210zM409 43l-43 -43h-210l-43 43l43 43h210z" />
    <glyph glyph-name="H" unicode="H" 
d="M466 429l-43 -43l-43 43v268l43 43l43 -43v-268zM141 429l-43 -43l-43 43v268l43 43l43 -43v-268zM409 369l-45 -43h-208l-43 43l43 43h210zM466 43l-43 -43l-43 43v268l43 43l43 -43v-268zM141 43l-43 -43l-43 43v268l43 43l43 -43v-268z" />
    <glyph glyph-name="I" unicode="I" horiz-adv-x="180" 
d="M133 429l-43 -43l-43 43v268l43 43l43 -43v-268zM133 43l-43 -43l-43 43v268l43 43l43 -43v-268z" />
    <glyph glyph-name="J" unicode="J" 
d="M466 429l-43 -43l-43 43v268l43 43l43 -43v-268zM466 101l-43 -43l-43 43v210l43 43l43 -43v-210zM141 101l-43 -43l-43 43v210l43 43l43 -43v-210zM409 43l-43 -43h-210l-43 43l43 43h210z" />
    <glyph glyph-name="K" unicode="K" 
d="M466 679l-245 -247h-59v64l243 244h61v-61zM141 429l-43 -43l-43 43v268l43 43l43 -43v-268zM409 369l-45 -43h-208l-43 43l43 43h210zM466 43l-43 -43l-43 43v268l43 43l43 -43v-268zM141 43l-43 -43l-43 43v268l43 43l43 -43v-268z" />
    <glyph glyph-name="L" unicode="L" 
d="M141 429l-43 -43l-43 43v268l43 43l43 -43v-268zM141 101l-86 -85v295l43 43l43 -43v-210zM409 43l-43 -43h-295l85 86h210z" />
    <glyph glyph-name="M" unicode="M" 
d="M409 697l-45 -43h-208l-43 43l43 43h210zM466 429l-43 -43l-43 43v210l43 43l43 -43v-210zM141 429l-43 -43l-43 43v210l43 43l43 -43v-210zM466 43l-43 -43l-43 43v268l43 43l43 -43v-268zM141 43l-43 -43l-43 43v268l43 43l43 -43v-268zM303 474l-43 -43l-43 43v159h86
v-159z" />
    <glyph glyph-name="N" unicode="N" 
d="M466 429l-43 -43l-43 43v268l43 43l43 -43v-268zM141 429l-43 -43l-43 43v268l43 43l43 -43v-268zM359 429h-60l-137 202v66h56l141 -207v-61zM466 43l-43 -43l-43 43v268l43 43l43 -43v-268zM141 43l-43 -43l-43 43v268l43 43l43 -43v-268z" />
    <glyph glyph-name="O" unicode="O" 
d="M409 697l-45 -43h-208l-43 43l43 43h210zM466 429l-43 -43l-43 43v210l43 43l43 -43v-210zM141 429l-43 -43l-43 43v210l43 43l43 -43v-210zM466 101l-43 -43l-43 43v210l43 43l43 -43v-210zM141 101l-43 -43l-43 43v210l43 43l43 -43v-210zM409 43l-43 -43h-210l-43 43
l43 43h210z" />
    <glyph glyph-name="P" unicode="P" 
d="M409 697l-45 -43h-208l-43 43l43 43h210zM466 429l-43 -43l-43 43v210l43 43l43 -43v-210zM141 429l-43 -43l-43 43v210l43 43l43 -43v-210zM409 369l-45 -43h-208l-43 43l43 43h210zM141 43l-43 -43l-43 43v268l43 43l43 -43v-268z" />
    <glyph glyph-name="Q" unicode="Q" 
d="M409 697l-45 -43h-208l-43 43l43 43h210zM466 429l-43 -43l-43 43v210l43 43l43 -43v-210zM141 429l-43 -43l-43 43v210l43 43l43 -43v-210zM466 180l-43 -43l-43 43v131l43 43l43 -43v-131zM141 101l-43 -43l-43 43v210l43 43l43 -43v-210zM329 43l-43 -43h-130l-43 43
l43 43h130zM466 61v-61h-61l-155 155v61h61z" />
    <glyph glyph-name="R" unicode="R" 
d="M409 697l-45 -43h-208l-85 86h295zM466 429l-43 -43l-43 43v210l43 43l43 -43v-210zM141 429l-43 -43l-43 43v295l86 -85v-210zM409 369l-45 -43h-208l-43 43l43 43h210zM141 43l-43 -43l-43 43v268l43 43l43 -43v-268zM466 0h-61l-243 244v64h60l244 -247v-61z" />
    <glyph glyph-name="S" unicode="S" 
d="M409 697l-45 -43h-208l-43 43l43 43h210zM141 429l-43 -43l-43 43v210l43 43l43 -43v-210zM409 369l-45 -43h-208l-43 43l43 43h210zM466 101l-43 -43l-43 43v210l43 43l43 -43v-210zM409 43l-43 -43h-210l-43 43l43 43h210z" />
    <glyph glyph-name="T" unicode="T" 
d="M467 697l-45 -43h-324l-43 43l43 43h326zM301 429l-43 -43l-43 43v205h86v-205zM301 43l-43 -43l-43 43v268l43 43l43 -43v-268z" />
    <glyph glyph-name="U" unicode="U" 
d="M466 429l-43 -43l-43 43v268l43 43l43 -43v-268zM141 429l-43 -43l-43 43v268l43 43l43 -43v-268zM466 101l-43 -43l-43 43v210l43 43l43 -43v-210zM141 101l-43 -43l-43 43v210l43 43l43 -43v-210zM409 43l-43 -43h-210l-43 43l43 43h210z" />
    <glyph glyph-name="V" unicode="V" 
d="M466 429l-43 -43l-43 43v268l43 43l43 -43v-268zM141 429l-43 -43l-43 43v268l43 43l43 -43v-268zM141 43l-43 -43l-43 43v268l43 43l43 -43v-268zM407 303l-245 -247v120l184 188h61v-61z" />
    <glyph glyph-name="W" unicode="W" 
d="M466 429l-43 -43l-43 43v268l43 43l43 -43v-268zM141 429l-43 -43l-43 43v268l43 43l43 -43v-268zM303 107h-86v159l43 43l43 -43v-159zM466 101l-43 -43l-43 43v210l43 43l43 -43v-210zM141 101l-43 -43l-43 43v210l43 43l43 -43v-210zM409 43l-43 -43h-210l-43 43
l43 43h208z" />
    <glyph glyph-name="X" unicode="X" 
d="M466 0h-62l-132 249v111h39l155 -295v-65zM249 249l-132 -249h-62v65l155 295h39v-111zM466 675l-155 -295h-39v111l132 249h62v-65zM249 380h-39l-155 295v65h62l132 -249v-111z" />
    <glyph glyph-name="Y" unicode="Y" 
d="M466 429l-43 -43l-43 43v268l43 43l43 -43v-268zM141 429l-43 -43l-43 43v268l43 43l43 -43v-268zM409 369l-45 -43h-208l-43 43l43 43h210zM409 43l-43 -43h-210l-43 43l43 43h210zM466 101l-43 -43l-43 43v210l43 43l43 -43v-210z" />
    <glyph glyph-name="Z" unicode="Z" 
d="M467 697l-45 -43h-324l-43 43l43 43h326zM435 582l-100 -166l-59 -16l-16 58l104 177h56zM275 315l-123 -209h-54l-16 53l118 198l59 16zM467 43l-43 -43h-326l-43 43l43 43h326z" />
    <glyph glyph-name="bracketleft" unicode="[" horiz-adv-x="300" 
d="M263 697l-45 -43h-68l-85 86h155zM140 424l-43 -43l-43 43v305l86 -85v-220zM140 96l-86 -85v305l43 43l43 -43v-220zM263 43l-43 -43h-155l85 86h70z" />
    <glyph glyph-name="backslash" unicode="\" 
d="M466 0h-62l-349 675v65h62l349 -675v-65z" />
    <glyph glyph-name="bracketright" unicode="]" horiz-adv-x="300" 
d="M239 740l-85 -86h-68l-45 43l43 43h155zM250 424l-43 -43l-43 43v220l86 85v-305zM250 11l-86 85v220l43 43l43 -43v-305zM239 0h-155l-43 43l43 43h70z" />
    <glyph glyph-name="asciicircum" unicode="^" horiz-adv-x="278" 
 />
    <glyph glyph-name="underscore" unicode="_" horiz-adv-x="480" 
d="M427 -195l-43 -43h-286l-43 43l43 43h286z" />
    <glyph glyph-name="grave" unicode="`" horiz-adv-x="250" 
d="M201 655v-61h-61l-85 85v61h61z" />
    <glyph glyph-name="a" unicode="a" horiz-adv-x="480" 
d="M369 517l-45 -43h-168l-43 43l43 43h170zM426 339l-43 -43l-43 43v120l43 43l43 -43v-120zM426 16l-86 85v120l43 43l43 -43v-205zM141 101l-43 -43l-43 43v120l43 43l43 -43v-120zM411 0h-255l-43 43l43 43h170zM369 279l-43 -43h-170l-43 43l43 43h170z" />
    <glyph glyph-name="b" unicode="b" horiz-adv-x="480" 
d="M369 517l-45 -43h-168l-43 43l43 43h170zM426 339l-43 -43l-43 43v120l43 43l43 -43v-120zM426 101l-43 -43l-43 43v120l43 43l43 -43v-120zM141 101l-86 -85v205l43 43l43 -43v-120zM369 43l-43 -43h-255l85 86h170zM141 339l-43 -43l-43 43v120l43 43l43 -43v-120z
M141 577l-43 -43l-43 43v120l43 43l43 -43v-120z" />
    <glyph glyph-name="c" unicode="c" horiz-adv-x="480" 
d="M369 517l-45 -43h-168l-43 43l43 43h170zM141 101l-43 -43l-43 43v120l43 43l43 -43v-120zM369 43l-43 -43h-170l-43 43l43 43h170zM141 339l-43 -43l-43 43v120l43 43l43 -43v-120z" />
    <glyph glyph-name="d" unicode="d" horiz-adv-x="480" 
d="M369 517l-45 -43h-168l-43 43l43 43h170zM426 339l-43 -43l-43 43v120l43 43l43 -43v-120zM426 16l-86 85v120l43 43l43 -43v-205zM141 101l-43 -43l-43 43v120l43 43l43 -43v-120zM411 0h-255l-43 43l43 43h170zM141 339l-43 -43l-43 43v120l43 43l43 -43v-120zM426 577
l-43 -43l-43 43v120l43 43l43 -43v-120z" />
    <glyph glyph-name="e" unicode="e" horiz-adv-x="480" 
d="M369 517l-45 -43h-168l-43 43l43 43h170zM426 339l-43 -43l-43 43v120l43 43l43 -43v-120zM141 101l-43 -43l-43 43v120l43 43l43 -43v-120zM369 43l-43 -43h-170l-43 43l43 43h170zM141 339l-43 -43l-43 43v120l43 43l43 -43v-120zM369 279l-43 -43h-170l-43 43l43 43
h170z" />
    <glyph glyph-name="f" unicode="f" horiz-adv-x="480" 
d="M369 517l-45 -43h-168l-43 43l43 43h170zM141 101l-43 -43l-43 43v120l43 43l43 -43v-120zM141 339l-43 -43l-43 43v120l43 43l43 -43v-120zM369 279l-43 -43h-170l-43 43l43 43h170zM141 -137l-43 -43l-43 43v120l43 43l43 -43v-120z" />
    <glyph glyph-name="g" unicode="g" horiz-adv-x="480" 
d="M369 517l-45 -43h-168l-43 43l43 43h170zM426 339l-43 -43l-43 43v120l43 43l43 -43v-120zM426 101l-43 -43l-43 43v120l43 43l43 -43v-120zM141 101l-43 -43l-43 43v120l43 43l43 -43v-120zM369 43l-43 -43h-170l-43 43l43 43h170zM141 339l-43 -43l-43 43v120l43 43
l43 -43v-120zM426 -137l-43 -43l-43 43v120l43 43l43 -43v-120zM369 -197l-43 -43h-170l-43 43l43 43h170z" />
    <glyph glyph-name="h" unicode="h" horiz-adv-x="480" 
d="M369 517l-45 -43h-168l-43 43l43 43h170zM426 339l-43 -43l-43 43v120l43 43l43 -43v-120zM426 43l-43 -43l-43 43v178l43 43l43 -43v-178zM141 43l-43 -43l-43 43v178l43 43l43 -43v-178zM141 339l-43 -43l-43 43v120l43 43l43 -43v-120zM141 577l-43 -43l-43 43v120
l43 43l43 -43v-120z" />
    <glyph glyph-name="i" unicode="i" horiz-adv-x="180" 
d="M134 43l-43 -43l-43 43v178l43 43l43 -43v-178zM134 339l-43 -43l-43 43v120l43 43l43 -43v-120zM134 654h-86v86h86v-86z" />
    <glyph glyph-name="j" unicode="j" horiz-adv-x="367" 
d="M313 339l-43 -43l-43 43v120l43 43l43 -43v-120zM313 101l-43 -43l-43 43v120l43 43l43 -43v-120zM313 -137l-43 -43l-43 43v120l43 43l43 -43v-120zM256 -195l-43 -43h-170l-43 43l43 43h170zM313 654h-86v86h86v-86z" />
    <glyph glyph-name="k" unicode="k" horiz-adv-x="480" 
d="M426 43l-43 -43l-43 43v178l43 43l43 -43v-178zM141 43l-43 -43l-43 43v178l43 43l43 -43v-178zM141 339l-43 -43l-43 43v120l43 43l43 -43v-120zM369 279l-43 -43h-170l-43 43l43 43h170zM141 577l-43 -43l-43 43v120l43 43l43 -43v-120zM426 499l-205 -153h-59v64
l203 150h61v-61z" />
    <glyph glyph-name="l" unicode="l" horiz-adv-x="180" 
d="M137 43l-43 -43l-43 43v178l43 43l43 -43v-178zM137 339l-43 -43l-43 43v120l43 43l43 -43v-120zM137 577l-43 -43l-43 43v120l43 43l43 -43v-120z" />
    <glyph glyph-name="m" unicode="m" horiz-adv-x="480" 
d="M369 517l-45 -43h-168l-85 86h255zM426 339l-43 -43l-43 43v120l43 43l43 -43v-120zM426 43l-43 -43l-43 43v178l43 43l43 -43v-178zM141 43l-43 -43l-43 43v178l43 43l43 -43v-178zM141 339l-43 -43l-43 43v205l86 -85v-120zM284 339l-43 -43l-43 43v115h86v-115z
M284 43l-43 -43l-43 43v178l43 43l43 -43v-178z" />
    <glyph glyph-name="n" unicode="n" horiz-adv-x="480" 
d="M369 517l-45 -43h-168l-85 86h255zM426 339l-43 -43l-43 43v120l43 43l43 -43v-120zM426 43l-43 -43l-43 43v178l43 43l43 -43v-178zM141 43l-43 -43l-43 43v178l43 43l43 -43v-178zM141 339l-43 -43l-43 43v205l86 -85v-120z" />
    <glyph glyph-name="o" unicode="o" horiz-adv-x="480" 
d="M369 517l-45 -43h-168l-43 43l43 43h170zM426 339l-43 -43l-43 43v120l43 43l43 -43v-120zM426 101l-43 -43l-43 43v120l43 43l43 -43v-120zM141 101l-43 -43l-43 43v120l43 43l43 -43v-120zM369 43l-43 -43h-170l-43 43l43 43h170zM141 339l-43 -43l-43 43v120l43 43
l43 -43v-120z" />
    <glyph glyph-name="p" unicode="p" horiz-adv-x="480" 
d="M369 517l-45 -43h-168l-85 86h255zM426 339l-43 -43l-43 43v120l43 43l43 -43v-120zM426 101l-43 -43l-43 43v120l43 43l43 -43v-120zM141 101l-43 -43l-43 43v120l43 43l43 -43v-120zM369 43l-43 -43h-170l-43 43l43 43h170zM141 339l-43 -43l-43 43v205l86 -85v-120z
M141 -195l-43 -43l-43 43v178l43 43l43 -43v-178z" />
    <glyph glyph-name="q" unicode="q" horiz-adv-x="480" 
d="M324 474h-168l-43 43l43 43h255zM426 339l-43 -43l-43 43v120l86 85v-205zM426 101l-43 -43l-43 43v120l43 43l43 -43v-120zM141 101l-43 -43l-43 43v120l43 43l43 -43v-120zM369 43l-43 -43h-170l-43 43l43 43h170zM141 339l-43 -43l-43 43v120l43 43l43 -43v-120z
M426 -195l-43 -43l-43 43v178l43 43l43 -43v-178z" />
    <glyph glyph-name="r" unicode="r" horiz-adv-x="367" 
d="M369 517l-45 -43h-168l-43 43l43 43h170zM141 43l-43 -43l-43 43v178l43 43l43 -43v-178zM141 339l-43 -43l-43 43v120l43 43l43 -43v-120z" />
    <glyph glyph-name="s" unicode="s" horiz-adv-x="480" 
d="M369 517l-45 -43h-168l-43 43l43 43h170zM426 101l-43 -43l-43 43v120l43 43l43 -43v-120zM369 43l-43 -43h-170l-43 43l43 43h170zM141 339l-43 -43l-43 43v120l43 43l43 -43v-120zM369 279l-43 -43h-170l-43 43l43 43h170z" />
    <glyph glyph-name="t" unicode="t" horiz-adv-x="480" 
d="M369 517l-45 -43h-168l-43 43l43 43h170zM141 101l-43 -43l-43 43v120l43 43l43 -43v-120zM369 43l-43 -43h-170l-43 43l43 43h170zM141 339l-43 -43l-43 43v120l43 43l43 -43v-120zM141 577l-43 -43l-43 43v120l43 43l43 -43v-120z" />
    <glyph glyph-name="u" unicode="u" horiz-adv-x="480" 
d="M426 339l-43 -43l-43 43v178l43 43l43 -43v-178zM426 16l-86 85v120l43 43l43 -43v-205zM141 101l-43 -43l-43 43v120l43 43l43 -43v-120zM411 0h-255l-43 43l43 43h170zM141 339l-43 -43l-43 43v178l43 43l43 -43v-178z" />
    <glyph glyph-name="v" unicode="v" horiz-adv-x="480" 
d="M426 339l-43 -43l-43 43v178l43 43l43 -43v-178zM141 43l-43 -43l-43 43v178l43 43l43 -43v-178zM141 339l-43 -43l-43 43v178l43 43l43 -43v-178zM340 234l-178 -180v125l117 116h61v-61z" />
    <glyph glyph-name="w" unicode="w" horiz-adv-x="480" 
d="M426 339l-43 -43l-43 43v178l43 43l43 -43v-178zM141 339l-43 -43l-43 43v178l43 43l43 -43v-178zM284 106h-86v115l43 43l43 -43v-115zM426 101l-43 -43l-43 43v120l43 43l43 -43v-120zM141 101l-43 -43l-43 43v120l43 43l43 -43v-120zM369 43l-43 -43h-170l-43 43
l43 43h170z" />
    <glyph glyph-name="x" unicode="x" horiz-adv-x="480" 
d="M426 0h-62l-112 179v91h39l135 -205v-65zM229 179l-112 -179h-62v65l135 205h39v-91zM426 495l-135 -205h-39v77l112 193h62v-65zM229 290h-39l-135 205v65h62l112 -193v-77z" />
    <glyph glyph-name="y" unicode="y" horiz-adv-x="480" 
d="M426 339l-43 -43l-43 43v178l43 43l43 -43v-178zM426 101l-43 -43l-43 43v120l43 43l43 -43v-120zM141 101l-43 -43l-43 43v120l43 43l43 -43v-120zM369 43l-43 -43h-170l-43 43l43 43h170zM141 339l-43 -43l-43 43v178l43 43l43 -43v-178zM426 -137l-43 -43l-43 43v120
l43 43l43 -43v-120zM369 -195l-43 -43h-170l-43 43l43 43h170z" />
    <glyph glyph-name="z" unicode="z" horiz-adv-x="480" 
d="M427 517l-45 -43h-284l-43 43l43 43h286zM427 43l-43 -43h-286l-43 43l43 43h286zM388 399l-83 -101h-53l-5 55l83 102h52zM242 222l-91 -113h-53l-7 54l91 112h53z" />
    <glyph glyph-name="braceleft" unicode="{" horiz-adv-x="278" 
 />
    <glyph glyph-name="bar" unicode="|" horiz-adv-x="180" 
d="M133 429l-43 -43l-43 43v268l43 43l43 -43v-268zM133 43l-43 -43l-43 43v268l43 43l43 -43v-268z" />
    <glyph glyph-name="braceright" unicode="}" horiz-adv-x="278" 
 />
    <glyph glyph-name="asciitilde" unicode="~" horiz-adv-x="278" 
 />
    <glyph glyph-name="afii10017" unicode="&#x410;" 
d="M409 697l-45 -43h-208l-43 43l43 43h210zM466 429l-43 -43l-43 43v210l43 43l43 -43v-210zM141 429l-43 -43l-43 43v210l43 43l43 -43v-210zM409 369l-45 -43h-208l-43 43l43 43h210zM466 43l-43 -43l-43 43v268l43 43l43 -43v-268zM141 43l-43 -43l-43 43v268l43 43
l43 -43v-268z" />
    <glyph glyph-name="afii10018" unicode="&#x411;" 
d="M409 697l-45 -43h-208l-85 86h295zM141 429l-43 -43l-43 43v295l86 -85v-210zM409 369l-45 -43h-208l-43 43l43 43h210zM466 101l-43 -43l-43 43v210l43 43l43 -43v-210zM141 101l-86 -85v295l43 43l43 -43v-210zM409 43l-43 -43h-295l85 86h210z" />
    <glyph glyph-name="afii10019" unicode="&#x412;" 
d="M409 697l-45 -43h-208l-85 86h295zM466 429l-43 -43l-43 43v210l43 43l43 -43v-210zM141 429l-43 -43l-43 43v295l86 -85v-210zM409 369l-45 -43h-208l-43 43l43 43h210zM466 101l-43 -43l-43 43v210l43 43l43 -43v-210zM141 101l-86 -85v295l43 43l43 -43v-210zM409 43
l-43 -43h-295l85 86h210z" />
    <glyph glyph-name="afii10020" unicode="&#x413;" 
d="M409 697l-45 -43h-208l-85 86h295zM141 429l-43 -43l-43 43v295l86 -85v-210zM141 43l-43 -43l-43 43v268l43 43l43 -43v-268z" />
    <glyph glyph-name="afii10021" unicode="&#x414;" 
d="M466 16l-86 85v210l43 43l43 -43v-295zM141 101l-86 -85v295l43 43l43 -43v-210zM451 0h-380l85 86h208zM466 -157l-43 -43l-43 43v136h86v-136zM466 429l-43 -43l-43 43v268l43 43l43 -43v-268zM359 564l-184 -188h-61v61l245 247v-120zM141 -157l-43 -43l-43 43v136h86
v-136z" />
    <glyph glyph-name="afii10022" unicode="&#x415;" 
d="M409 697l-45 -43h-208l-85 86h295zM141 429l-43 -43l-43 43v295l86 -85v-210zM409 369l-45 -43h-208l-43 43l43 43h210zM141 101l-86 -85v295l43 43l43 -43v-210zM409 43l-43 -43h-295l85 86h210z" />
    <glyph glyph-name="afii10024" unicode="&#x416;" 
d="M466 429l-43 -43l-43 43v268l43 43l43 -43v-268zM141 429l-43 -43l-43 43v268l43 43l43 -43v-268zM409 369l-45 -43h-208l-43 43l43 43h210zM303 146l-43 -43l-43 43v159h86v-159zM303 433h-86v159l43 43l43 -43v-159zM466 43l-43 -43l-43 43v268l43 43l43 -43v-268z
M141 43l-43 -43l-43 43v268l43 43l43 -43v-268z" />
    <glyph glyph-name="afii10025" unicode="&#x417;" 
d="M409 697l-45 -43h-208l-43 43l43 43h210zM466 429l-43 -43l-43 43v210l43 43l43 -43v-210zM409 369l-45 -43h-208l-43 43l43 43h210zM466 101l-43 -43l-43 43v210l43 43l43 -43v-210zM409 43l-43 -43h-210l-43 43l43 43h210z" />
    <glyph glyph-name="afii10026" unicode="&#x418;" 
d="M466 429l-43 -43l-43 43v268l43 43l43 -43v-268zM359 245l-137 -202h-60v61l141 207h56v-66zM141 429l-43 -43l-43 43v268l43 43l43 -43v-268zM466 43l-43 -43l-43 43v268l43 43l43 -43v-268zM141 43l-43 -43l-43 43v268l43 43l43 -43v-268z" />
    <glyph glyph-name="afii10027" unicode="&#x419;" 
d="M466 429l-43 -43l-43 43v268l43 43l43 -43v-268zM359 245l-137 -202h-60v61l141 207h56v-66zM141 429l-43 -43l-43 43v268l43 43l43 -43v-268zM466 43l-43 -43l-43 43v268l43 43l43 -43v-268zM141 43l-43 -43l-43 43v268l43 43l43 -43v-268zM359 783l-45 -43h-108l-43 43
l43 43h110z" />
    <glyph glyph-name="afii10028" unicode="&#x41a;" 
d="M466 679l-245 -247h-59v64l243 244h61v-61zM141 429l-43 -43l-43 43v268l43 43l43 -43v-268zM409 369l-45 -43h-208l-43 43l43 43h210zM466 43l-43 -43l-43 43v268l43 43l43 -43v-268zM141 43l-43 -43l-43 43v268l43 43l43 -43v-268z" />
    <glyph glyph-name="afii10029" unicode="&#x41b;" 
d="M466 429l-43 -43l-43 43v268l43 43l43 -43v-268zM359 564l-184 -188h-61v61l245 247v-120zM466 43l-43 -43l-43 43v268l43 43l43 -43v-268zM141 43l-43 -43l-43 43v268l43 43l43 -43v-268z" />
    <glyph glyph-name="afii10030" unicode="&#x41c;" 
d="M409 697l-45 -43h-208l-43 43l43 43h210zM466 429l-43 -43l-43 43v210l43 43l43 -43v-210zM141 429l-43 -43l-43 43v210l43 43l43 -43v-210zM466 43l-43 -43l-43 43v268l43 43l43 -43v-268zM141 43l-43 -43l-43 43v268l43 43l43 -43v-268zM303 474l-43 -43l-43 43v159h86
v-159z" />
    <glyph glyph-name="afii10031" unicode="&#x41d;" 
d="M466 429l-43 -43l-43 43v268l43 43l43 -43v-268zM141 429l-43 -43l-43 43v268l43 43l43 -43v-268zM409 369l-45 -43h-208l-43 43l43 43h210zM466 43l-43 -43l-43 43v268l43 43l43 -43v-268zM141 43l-43 -43l-43 43v268l43 43l43 -43v-268z" />
    <glyph glyph-name="afii10032" unicode="&#x41e;" 
d="M409 697l-45 -43h-208l-43 43l43 43h210zM466 429l-43 -43l-43 43v210l43 43l43 -43v-210zM141 429l-43 -43l-43 43v210l43 43l43 -43v-210zM466 101l-43 -43l-43 43v210l43 43l43 -43v-210zM141 101l-43 -43l-43 43v210l43 43l43 -43v-210zM409 43l-43 -43h-210l-43 43
l43 43h210z" />
    <glyph glyph-name="afii10033" unicode="&#x41f;" 
d="M364 654h-208l-85 86h380zM466 429l-43 -43l-43 43v210l86 85v-295zM141 429l-43 -43l-43 43v295l86 -85v-210zM466 43l-43 -43l-43 43v268l43 43l43 -43v-268zM141 43l-43 -43l-43 43v268l43 43l43 -43v-268z" />
    <glyph glyph-name="afii10034" unicode="&#x420;" 
d="M409 697l-45 -43h-208l-43 43l43 43h210zM466 429l-43 -43l-43 43v210l43 43l43 -43v-210zM141 429l-43 -43l-43 43v210l43 43l43 -43v-210zM409 369l-45 -43h-208l-43 43l43 43h210zM141 43l-43 -43l-43 43v268l43 43l43 -43v-268z" />
    <glyph glyph-name="afii10035" unicode="&#x421;" 
d="M409 697l-45 -43h-208l-43 43l43 43h210zM141 429l-43 -43l-43 43v210l43 43l43 -43v-210zM141 101l-43 -43l-43 43v210l43 43l43 -43v-210zM409 43l-43 -43h-210l-43 43l43 43h210z" />
    <glyph glyph-name="afii10036" unicode="&#x422;" 
d="M467 697l-45 -43h-324l-43 43l43 43h326zM301 429l-43 -43l-43 43v205h86v-205zM301 43l-43 -43l-43 43v268l43 43l43 -43v-268z" />
    <glyph glyph-name="afii10037" unicode="&#x423;" 
d="M466 429l-43 -43l-43 43v268l43 43l43 -43v-268zM141 429l-43 -43l-43 43v268l43 43l43 -43v-268zM409 369l-45 -43h-208l-43 43l43 43h210zM409 43l-43 -43h-210l-43 43l43 43h210zM466 101l-43 -43l-43 43v210l43 43l43 -43v-210z" />
    <glyph glyph-name="afii10038" unicode="&#x424;" 
d="M409 697l-45 -43h-208l-43 43l43 43h210zM466 429l-43 -43l-43 43v210l43 43l43 -43v-210zM141 429l-43 -43l-43 43v210l43 43l43 -43v-210zM303 429l-43 -43l-43 43v204h86v-204zM303 107h-86v204l43 43l43 -43v-204zM466 101l-43 -43l-43 43v210l43 43l43 -43v-210z
M141 101l-43 -43l-43 43v210l43 43l43 -43v-210zM409 43l-43 -43h-210l-43 43l43 43h210zM303 761h-86v86h86v-86zM303 -107h-86v86h86v-86z" />
    <glyph glyph-name="afii10039" unicode="&#x425;" 
d="M466 0h-62l-132 249v111h39l155 -295v-65zM249 249l-132 -249h-62v65l155 295h39v-111zM466 675l-155 -295h-39v111l132 249h62v-65zM249 380h-39l-155 295v65h62l132 -249v-111z" />
    <glyph glyph-name="afii10040" unicode="&#x426;" 
d="M466 429l-43 -43l-43 43v268l43 43l43 -43v-268zM141 429l-43 -43l-43 43v268l43 43l43 -43v-268zM466 16l-86 85v210l43 43l43 -43v-295zM141 101l-86 -85v295l43 43l43 -43v-210zM451 0h-380l85 86h208zM466 -157l-43 -43l-43 43v136h86v-136z" />
    <glyph glyph-name="afii10041" unicode="&#x427;" 
d="M466 429l-43 -43l-43 43v268l43 43l43 -43v-268zM141 429l-43 -43l-43 43v268l43 43l43 -43v-268zM409 369l-45 -43h-208l-43 43l43 43h210zM466 43l-43 -43l-43 43v268l43 43l43 -43v-268z" />
    <glyph glyph-name="afii10042" unicode="&#x428;" 
d="M466 429l-43 -43l-43 43v268l43 43l43 -43v-268zM141 429l-43 -43l-43 43v268l43 43l43 -43v-268zM466 16l-86 85v210l43 43l43 -43v-295zM141 101l-86 -85v295l43 43l43 -43v-210zM451 0h-380l85 86h208zM303 152h-86v159l43 43l43 -43v-159zM303 429l-43 -43l-43 43
v268l43 43l43 -43v-268z" />
    <glyph glyph-name="afii10043" unicode="&#x429;" 
d="M466 429l-43 -43l-43 43v268l43 43l43 -43v-268zM141 429l-43 -43l-43 43v268l43 43l43 -43v-268zM466 16l-86 85v210l43 43l43 -43v-295zM141 101l-86 -85v295l43 43l43 -43v-210zM451 0h-380l85 86h208zM303 152h-86v159l43 43l43 -43v-159zM303 429l-43 -43l-43 43
v268l43 43l43 -43v-268zM466 -157l-43 -43l-43 43v136h86v-136z" />
    <glyph glyph-name="afii10044" unicode="&#x42a;" 
d="M130 740l-85 -86h-18l-45 43l43 43h105zM141 429l-43 -43l-43 43v205l86 85v-290zM409 369l-45 -43h-208l-43 43l43 43h210zM466 101l-43 -43l-43 43v210l43 43l43 -43v-210zM141 101l-86 -85v295l43 43l43 -43v-210zM409 43l-43 -43h-295l85 86h210z" />
    <glyph glyph-name="afii10045" unicode="&#x42b;" 
d="M141 429l-43 -43l-43 43v263l43 43l43 -43v-263zM246 369l-45 -43h-45l-43 43l43 43h47zM303 101l-43 -43l-43 43v210l43 43l43 -43v-210zM141 101l-86 -85v295l43 43l43 -43v-210zM246 43l-43 -43h-132l85 86h47zM466 429l-43 -43l-43 43v268l43 43l43 -43v-268zM466 43
l-43 -43l-43 43v268l43 43l43 -43v-268z" />
    <glyph glyph-name="afii10046" unicode="&#x42c;" 
d="M141 429l-43 -43l-43 43v263l43 43l43 -43v-263zM409 369l-45 -43h-208l-43 43l43 43h210zM466 101l-43 -43l-43 43v210l43 43l43 -43v-210zM141 101l-86 -85v295l43 43l43 -43v-210zM409 43l-43 -43h-295l85 86h210z" />
    <glyph glyph-name="afii10047" unicode="&#x42d;" 
d="M450 740l-85 -86h-208l-45 43l43 43h295zM466 429l-43 -43l-43 43v210l86 85v-295zM408 369l-43 -43h-208l-45 43l43 43h210zM466 16l-86 85v210l43 43l43 -43v-295zM450 0h-295l-43 43l43 43h210z" />
    <glyph glyph-name="afii10048" unicode="&#x42e;" 
d="M409 697l-45 -43h-46l-43 43l43 43h48zM466 429l-43 -43l-43 43v210l43 43l43 -43v-210zM303 429l-43 -43l-43 43v210l43 43l43 -43v-210zM466 101l-43 -43l-43 43v210l43 43l43 -43v-210zM303 101l-43 -43l-43 43v210l43 43l43 -43v-210zM409 43l-43 -43h-48l-43 43
l43 43h48zM141 429l-43 -43l-43 43v268l43 43l43 -43v-268zM141 43l-43 -43l-43 43v268l43 43l43 -43v-268zM247 369l-45 -43h-46l-43 43l43 43h48z" />
    <glyph glyph-name="afii10049" unicode="&#x42f;" 
d="M450 740l-85 -86h-208l-45 43l43 43h295zM466 429l-43 -43l-43 43v210l86 85v-295zM141 429l-43 -43l-43 43v210l43 43l43 -43v-210zM408 369l-43 -43h-208l-45 43l43 43h210zM466 43l-43 -43l-43 43v268l43 43l43 -43v-268zM359 244l-243 -244h-61v61l244 247h60v-64z
" />
    <glyph glyph-name="dagger" unicode="&#x2020;" horiz-adv-x="278" 
 />
    <glyph glyph-name="degree" unicode="&#xb0;" horiz-adv-x="480" 
d="M369 517l-45 -43h-168l-43 43l43 43h170zM426 577l-43 -43l-43 43v120l43 43l43 -43v-120zM141 577l-43 -43l-43 43v120l43 43l43 -43v-120zM369 759l-45 -43h-168l-43 43l43 43h170z" />
    <glyph glyph-name="afii10050" unicode="&#x490;" 
d="M409 697l-45 -43h-208l-85 86h295zM141 429l-43 -43l-43 43v295l86 -85v-210zM141 43l-43 -43l-43 43v268l43 43l43 -43v-268zM466 757l-43 -43l-43 43v120l43 43l43 -43v-120z" />
    <glyph glyph-name="sterling" unicode="&#xa3;" 
d="M141 429l-43 -43l-43 43v268l43 43l43 -43v-268zM141 101l-86 -85v295l43 43l43 -43v-210zM409 43l-43 -43h-295l85 86h210zM279 369l-45 -43h-78l-43 43l43 43h80zM84 369l-45 -43h-78l-43 43l43 43h80z" />
    <glyph glyph-name="section" unicode="&#xa7;" horiz-adv-x="480" 
d="M369 517l-45 -43h-168l-43 43l43 43h170zM426 101l-43 -43l-43 43v120l43 43l43 -43v-120zM141 101l-43 -43l-43 43v120l43 43l43 -43v-120zM369 43l-43 -43h-170l-43 43l43 43h170zM141 339l-43 -43l-43 43v120l43 43l43 -43v-120zM369 279l-43 -43h-170l-43 43l43 43
h170zM426 -137l-43 -43l-43 43v120l43 43l43 -43v-120zM369 -195l-43 -43h-170l-43 43l43 43h170z" />
    <glyph glyph-name="bullet" unicode="&#x2022;" horiz-adv-x="480" 
d="M207 350h-86v86h86v-86zM320 350h-86v86h86v-86zM207 243h-86v86h86v-86zM320 243h-86v86h86v-86z" />
    <glyph glyph-name="paragraph" unicode="&#xb6;" horiz-adv-x="480" 
d="M303 -15l-43 -43l-43 43v209l-14 -14h-47l-101 101v120l43 43v32l-43 43v120l101 101h147v-755zM466 -15l-43 -43l-43 43v712l43 43l43 -43v-712z" />
    <glyph glyph-name="afii10055" unicode="&#x406;" horiz-adv-x="180" 
d="M133 429l-43 -43l-43 43v268l43 43l43 -43v-268zM133 43l-43 -43l-43 43v268l43 43l43 -43v-268z" />
    <glyph glyph-name="registered" unicode="&#xae;" horiz-adv-x="800" 
d="M786 379c0 -214 -173 -388 -386 -388c-214 0 -388 174 -388 388c0 213 174 386 388 386c213 0 386 -173 386 -386zM736 379c0 187 -149 336 -336 336c-188 0 -338 -149 -338 -336c0 -189 150 -338 338 -338c187 0 336 149 336 338zM500 577l-27 -26h-125l-51 51h177z
M534 416l-25 -26l-26 26v126l26 26l25 -26v-126zM339 416l-25 -26l-26 26v177l51 -51v-126zM500 380l-27 -26h-125l-25 26l25 26h126zM339 184l-25 -26l-26 26v161l26 26l25 -26v-161zM534 158h-36l-146 147v38h36l146 -148v-37z" />
    <glyph glyph-name="copyright" unicode="&#xa9;" horiz-adv-x="800" 
d="M786 379c0 -214 -173 -388 -386 -388c-214 0 -388 174 -388 388c0 213 174 386 388 386c213 0 386 -173 386 -386zM736 379c0 187 -149 336 -336 336c-188 0 -338 -149 -338 -336c0 -189 150 -338 338 -338c187 0 336 149 336 338zM507 566l-27 -26h-125l-26 26l26 26
h126zM346 405l-26 -25l-25 25v126l25 26l26 -26v-126zM346 209l-26 -26l-25 26v126l25 25l26 -25v-126zM507 174l-26 -26h-126l-26 26l26 26h126z" />
    <glyph glyph-name="trademark" unicode="&#x2122;" horiz-adv-x="620" 
d="M290 715l-27 -26h-194l-26 26l26 25h196zM191 554l-26 -26l-26 26v123h52v-123zM191 322l-26 -26l-26 26v161l26 26l26 -26v-161zM520 714l-27 -25h-124l-26 25l26 26h126zM555 554l-26 -26l-26 26v126l26 25l26 -25v-126zM360 554l-26 -26l-26 26v126l26 25l26 -25v-126
zM555 322l-26 -26l-26 26v161l26 26l26 -26v-161zM360 322l-26 -26l-26 26v161l26 26l26 -26v-161zM457 581l-26 -26l-26 26v95h52v-95z" />
    <glyph glyph-name="afii10051" unicode="&#x402;" 
d="M367 697l-45 -43h-224l-43 43l43 43h226zM251 429l-43 -43l-43 43v205h86v-205zM251 43l-43 -43l-43 43v268l43 43l43 -43v-268zM419 369l-45 -43h-108l-43 43l43 43h110zM476 43l-43 -43l-43 43v268l43 43l43 -43v-268z" />
    <glyph glyph-name="afii10099" unicode="&#x452;" horiz-adv-x="480" 
d="M369 517l-45 -43h-168l-43 43l43 43h170zM141 43l-43 -43l-43 43v178l43 43l43 -43v-178zM141 339l-43 -43l-43 43v120l43 43l43 -43v-120zM141 577l-43 -43l-43 43v120l43 43l43 -43v-120zM426 43l-43 -43l-43 43v178l43 43l43 -43v-178zM369 279l-43 -43h-170l-43 43
l43 43h170z" />
    <glyph glyph-name="notequal" unicode="&#x2260;" horiz-adv-x="278" 
 />
    <glyph glyph-name="afii10052" unicode="&#x403;" 
d="M208 822v-61h61l66 66v61h-61zM409 697l-45 -43h-208l-85 86h295zM141 429l-43 -43l-43 43v295l86 -85v-210zM141 43l-43 -43l-43 43v268l43 43l43 -43v-268z" />
    <glyph glyph-name="afii10100" unicode="&#x453;" horiz-adv-x="480" 
d="M369 517l-45 -43h-168l-85 86h255zM141 43l-43 -43l-43 43v178l43 43l43 -43v-178zM141 339l-43 -43l-43 43v205l86 -85v-120zM208 642v-61h61l66 66v61h-61z" />
    <glyph glyph-name="infinity" unicode="&#x221e;" horiz-adv-x="278" 
 />
    <glyph glyph-name="plusminus" unicode="&#xb1;" 
d="M306 429l-43 -43l-43 43v120l43 43l43 -43v-120zM249 369l-43 -43h-120l-43 43l43 43h120zM306 191l-43 -43l-43 43v120l43 43l43 -43v-120zM483 369l-43 43h-120l-43 -43l43 -43h120zM487 43l-43 -43h-354l-43 43l43 43h354z" />
    <glyph glyph-name="lessequal" unicode="&#x2264;" horiz-adv-x="278" 
 />
    <glyph glyph-name="greaterequal" unicode="&#x2265;" horiz-adv-x="278" 
 />
    <glyph glyph-name="afii10103" unicode="&#x456;" horiz-adv-x="180" 
d="M134 43l-43 -43l-43 43v178l43 43l43 -43v-178zM134 339l-43 -43l-43 43v120l43 43l43 -43v-120zM134 654h-86v86h86v-86z" />
    <glyph glyph-name="mu" unicode="&#xb5;" horiz-adv-x="480" 
d="M426 339l-43 -43l-43 43v178l43 43l43 -43v-178zM426 16l-86 85v120l43 43l43 -43v-205zM141 101l-43 -43l-43 43v120l43 43l43 -43v-120zM411 0h-255l-43 43l43 43h170zM141 339l-43 -43l-43 43v178l43 43l43 -43v-178zM141 -137l-43 -43l-43 43v120l43 43l43 -43v-120z
" />
    <glyph glyph-name="mu" unicode="&#x3bc;" horiz-adv-x="480" 
d="M426 339l-43 -43l-43 43v178l43 43l43 -43v-178zM426 16l-86 85v120l43 43l43 -43v-205zM141 101l-43 -43l-43 43v120l43 43l43 -43v-120zM411 0h-255l-43 43l43 43h170zM141 339l-43 -43l-43 43v178l43 43l43 -43v-178zM141 -137l-43 -43l-43 43v120l43 43l43 -43v-120z
" />
    <glyph glyph-name="afii10098" unicode="&#x491;" horiz-adv-x="480" 
d="M369 517l-45 -43h-168l-85 86h255zM141 43l-43 -43l-43 43v178l43 43l43 -43v-178zM141 339l-43 -43l-43 43v205l86 -85v-120zM426 577l-43 -43l-43 43v120l43 43l43 -43v-120z" />
    <glyph glyph-name="afii10057" unicode="&#x408;" 
d="M466 429l-43 -43l-43 43v268l43 43l43 -43v-268zM466 101l-43 -43l-43 43v210l43 43l43 -43v-210zM141 101l-43 -43l-43 43v210l43 43l43 -43v-210zM409 43l-43 -43h-210l-43 43l43 43h210z" />
    <glyph glyph-name="afii10053" unicode="&#x404;" 
d="M409 697l-45 -43h-208l-85 86h295zM141 429l-43 -43l-43 43v295l86 -85v-210zM409 369l-45 -43h-208l-43 43l43 43h210zM141 101l-86 -85v295l43 43l43 -43v-210zM409 43l-43 -43h-295l85 86h210z" />
    <glyph glyph-name="afii10101" unicode="&#x454;" horiz-adv-x="480" 
d="M369 517l-45 -43h-168l-85 86h255zM141 101l-86 -85v205l43 43l43 -43v-120zM369 43l-43 -43h-255l85 86h170zM141 339l-43 -43l-43 43v205l86 -85v-120zM369 279l-43 -43h-170l-43 43l43 43h170z" />
    <glyph glyph-name="afii10056" unicode="&#x407;" horiz-adv-x="180" 
d="M133 429l-43 -43l-43 43v268l43 43l43 -43v-268zM133 43l-43 -43l-43 43v268l43 43l43 -43v-268zM79 761h-86v86h86v-86zM186 761h-86v86h86v-86z" />
    <glyph glyph-name="afii10104" unicode="&#x457;" horiz-adv-x="180" 
d="M134 43l-43 -43l-43 43v178l43 43l43 -43v-178zM134 339l-43 -43l-43 43v120l43 43l43 -43v-120zM78 654h-86v86h86v-86zM185 654h-86v86h86v-86z" />
    <glyph glyph-name="afii10058" unicode="&#x409;" horiz-adv-x="840" 
d="M466 429l-43 -43l-43 43v268l43 43l43 -43v-268zM359 564l-184 -188h-61v61l245 247v-120zM141 43l-43 -43l-43 43v268l43 43l43 -43v-268zM734 369l-45 -43h-208l-43 43l43 43h210zM791 101l-43 -43l-43 43v210l43 43l43 -43v-210zM466 101l-86 -85v295l43 43l43 -43
v-210zM734 43l-43 -43h-295l85 86h210z" />
    <glyph glyph-name="afii10106" unicode="&#x459;" horiz-adv-x="760" 
d="M426 338l-43 -43l-43 43v178l43 43l43 -43v-178zM319 380l-117 -116h-61v61l178 180v-125zM141 42l-43 -43l-43 43v178l43 43l43 -43v-178zM711 101l-43 -43l-43 43v120l43 43l43 -43v-120zM426 101l-86 -85v205l43 43l43 -43v-120zM654 43l-43 -43h-255l85 86h170z
M654 279l-43 -43h-170l-43 43l43 43h170z" />
    <glyph glyph-name="afii10059" unicode="&#x40a;" horiz-adv-x="840" 
d="M466 429l-43 -43l-43 43v268l43 43l43 -43v-268zM141 429l-43 -43l-43 43v268l43 43l43 -43v-268zM409 369l-45 -43h-208l-43 43l43 43h210zM141 43l-43 -43l-43 43v268l43 43l43 -43v-268zM734 369l-45 -43h-208l-43 43l43 43h210zM791 101l-43 -43l-43 43v210l43 43
l43 -43v-210zM466 101l-86 -85v295l43 43l43 -43v-210zM734 43l-43 -43h-295l85 86h210z" />
    <glyph glyph-name="afii10107" unicode="&#x45a;" horiz-adv-x="760" 
d="M426 339l-43 -43l-43 43v178l43 43l43 -43v-178zM141 43l-43 -43l-43 43v178l43 43l43 -43v-178zM141 339l-43 -43l-43 43v178l43 43l43 -43v-178zM369 279l-43 -43h-170l-43 43l43 43h170zM711 101l-43 -43l-43 43v120l43 43l43 -43v-120zM426 101l-86 -85v205l43 43
l43 -43v-120zM654 43l-43 -43h-255l85 86h170zM654 279l-43 -43h-170l-43 43l43 43h170z" />
    <glyph glyph-name="afii10105" unicode="&#x458;" horiz-adv-x="367" 
d="M313 339l-43 -43l-43 43v120l43 43l43 -43v-120zM313 101l-43 -43l-43 43v120l43 43l43 -43v-120zM313 -137l-43 -43l-43 43v120l43 43l43 -43v-120zM256 -195l-43 -43h-170l-43 43l43 43h170zM313 654h-86v86h86v-86z" />
    <glyph glyph-name="afii10054" unicode="&#x405;" 
d="M409 697l-45 -43h-208l-43 43l43 43h210zM141 429l-43 -43l-43 43v210l43 43l43 -43v-210zM409 369l-45 -43h-208l-43 43l43 43h210zM466 101l-43 -43l-43 43v210l43 43l43 -43v-210zM409 43l-43 -43h-210l-43 43l43 43h210z" />
    <glyph glyph-name="logicalnot" unicode="&#xac;" horiz-adv-x="340" 
d="M319 43l-43 -43h-210l-43 43l43 43h210z" />
    <glyph glyph-name="radical" unicode="&#x221a;" horiz-adv-x="340" 
d="M319 369l-45 -43h-208l-43 43l43 43h210z" />
    <glyph glyph-name="florin" unicode="&#x192;" horiz-adv-x="340" 
d="M319 697l-45 -43h-208l-43 43l43 43h210z" />
    <glyph glyph-name="approxequal" unicode="&#x2248;" horiz-adv-x="278" 
 />
    <glyph glyph-name="Delta" unicode="&#x394;" horiz-adv-x="278" 
 />
    <glyph glyph-name="Delta" unicode="&#x2206;" horiz-adv-x="278" 
 />
    <glyph glyph-name="guillemotleft" unicode="&#xab;" 
d="M342 0h-61l-259 268h123l197 -207v-61zM342 499l-197 -207h-123l259 268h61v-61zM500 0h-61l-259 268h123l197 -207v-61zM500 499l-197 -207h-123l259 268h61v-61z" />
    <glyph glyph-name="guillemotright" unicode="&#xbb;" 
d="M502 292h-123l-197 207v61h61zM344 292h-123l-197 207v61h61zM502 268l-259 -268h-61v61l197 207h123zM344 268l-259 -268h-61v61l197 207h123z" />
    <glyph glyph-name="ellipsis" unicode="&#x2026;" 
d="M141 0h-86v86h86v-86zM306 0h-86v86h86v-86zM466 0h-86v86h86v-86z" />
    <glyph glyph-name="nbspace" horiz-adv-x="278" 
 />
    <glyph glyph-name="afii10060" unicode="&#x40b;" 
d="M367 697l-45 -43h-224l-43 43l43 43h226zM251 429l-43 -43l-43 43v205h86v-205zM251 43l-43 -43l-43 43v268l43 43l43 -43v-268zM419 369l-45 -43h-108l-43 43l43 43h110zM476 43l-43 -43l-43 43v268l43 43l43 -43v-268z" />
    <glyph glyph-name="afii10108" unicode="&#x45b;" horiz-adv-x="480" 
d="M369 517l-45 -43h-168l-43 43l43 43h170zM141 43l-43 -43l-43 43v178l43 43l43 -43v-178zM141 339l-43 -43l-43 43v120l43 43l43 -43v-120zM141 577l-43 -43l-43 43v120l43 43l43 -43v-120zM426 43l-43 -43l-43 43v178l43 43l43 -43v-178zM369 279l-43 -43h-170l-43 43
l43 43h170z" />
    <glyph glyph-name="afii10061" unicode="&#x40c;" 
d="M208 822v-61h61l66 66v61h-61zM466 679l-245 -247h-59v64l243 244h61v-61zM141 429l-43 -43l-43 43v268l43 43l43 -43v-268zM409 369l-45 -43h-208l-43 43l43 43h210zM466 43l-43 -43l-43 43v268l43 43l43 -43v-268zM141 43l-43 -43l-43 43v268l43 43l43 -43v-268z" />
    <glyph glyph-name="afii10109" unicode="&#x45c;" horiz-adv-x="480" 
d="M426 43l-43 -43l-43 43v178l43 43l43 -43v-178zM141 43l-43 -43l-43 43v178l43 43l43 -43v-178zM141 339l-43 -43l-43 43v178l43 43l43 -43v-178zM369 279l-43 -43h-170l-43 43l43 43h170zM426 499l-205 -153h-59v64l203 150h61v-61zM208 642v-61h61l66 66v61h-61z" />
    <glyph glyph-name="afii10102" unicode="&#x455;" horiz-adv-x="480" 
d="M369 517l-45 -43h-168l-43 43l43 43h170zM426 101l-43 -43l-43 43v120l43 43l43 -43v-120zM369 43l-43 -43h-170l-43 43l43 43h170zM141 339l-43 -43l-43 43v120l43 43l43 -43v-120zM369 279l-43 -43h-170l-43 43l43 43h170z" />
    <glyph glyph-name="endash" unicode="&#x2013;" 
d="M499 369l-45 -43h-398l-43 43l43 43h400z" />
    <glyph glyph-name="emdash" unicode="&#x2014;" horiz-adv-x="1000" 
d="M989 369l-45 -43h-888l-43 43l43 43h890z" />
    <glyph glyph-name="quotedblleft" unicode="&#x201c;" horiz-adv-x="300" 
d="M163 512l-61 60l97 97h60v-61zM78 596l-60 61l96 96h61v-60z" />
    <glyph glyph-name="quotedblright" unicode="&#x201d;" horiz-adv-x="300" 
d="M195 544h-61v61l96 96l61 -60zM110 629h-61v61l97 96l60 -61z" />
    <glyph glyph-name="quoteleft" unicode="&#x2018;" horiz-adv-x="180" 
d="M61 554l-61 61l96 96h61v-61z" />
    <glyph glyph-name="quoteright" unicode="&#x2019;" horiz-adv-x="180" 
d="M93 587h-61v61l96 96l61 -61z" />
    <glyph glyph-name="divide" unicode="&#xf7;" 
d="M467 369l-45 -43h-324l-43 43l43 43h326zM303 654h-86v86h86v-86zM303 0h-86v86h86v-86z" />
    <glyph glyph-name="quotedblbase" unicode="&#x201e;" horiz-adv-x="300" 
d="M195 -156h-61v61l96 96l61 -60zM110 -71h-61v61l97 96l60 -61z" />
    <glyph glyph-name="afii10062" unicode="&#x40e;" 
d="M466 429l-43 -43l-43 43v268l43 43l43 -43v-268zM141 429l-43 -43l-43 43v268l43 43l43 -43v-268zM409 369l-45 -43h-208l-43 43l43 43h210zM409 43l-43 -43h-210l-43 43l43 43h210zM466 101l-43 -43l-43 43v210l43 43l43 -43v-210zM359 783l-45 -43h-108l-43 43l43 43
h110z" />
    <glyph glyph-name="afii10110" unicode="&#x45e;" horiz-adv-x="480" 
d="M426 339l-43 -43l-43 43v178l43 43l43 -43v-178zM426 101l-43 -43l-43 43v120l43 43l43 -43v-120zM141 101l-43 -43l-43 43v120l43 43l43 -43v-120zM369 43l-43 -43h-170l-43 43l43 43h170zM141 339l-43 -43l-43 43v178l43 43l43 -43v-178zM426 -137l-43 -43l-43 43v120
l43 43l43 -43v-120zM369 -195l-43 -43h-170l-43 43l43 43h170zM339 697l-45 -43h-108l-43 43l43 43h110z" />
    <glyph glyph-name="afii10145" unicode="&#x40f;" 
d="M466 429l-43 -43l-43 43v268l43 43l43 -43v-268zM141 429l-43 -43l-43 43v268l43 43l43 -43v-268zM466 16l-86 85v210l43 43l43 -43v-295zM141 101l-86 -85v295l43 43l43 -43v-210zM451 0h-380l85 86h208zM306 -157l-43 -43l-43 43v136h86v-136z" />
    <glyph glyph-name="afii10193" unicode="&#x45f;" horiz-adv-x="480" 
d="M426 339l-43 -43l-43 43v178l43 43l43 -43v-178zM141 339l-43 -43l-43 43v178l43 43l43 -43v-178zM426 16l-86 85v120l43 43l43 -43v-205zM141 101l-86 -85v205l43 43l43 -43v-120zM411 0h-340l85 86h168zM284 -137l-43 -43l-43 43v112h86v-112z" />
    <glyph glyph-name="afii61352" unicode="&#x2116;" horiz-adv-x="949" 
d="M466 429l-43 -43l-43 43v268l43 43l43 -43v-268zM141 429l-43 -43l-43 43v268l43 43l43 -43v-268zM359 429h-60l-137 202v66h56l141 -207v-61zM466 43l-43 -43l-43 43v268l43 43l43 -43v-268zM141 43l-43 -43l-43 43v268l43 43l43 -43v-268zM839 517l-45 -43h-168l-43 43
l43 43h170zM896 339l-43 -43l-43 43v120l43 43l43 -43v-120zM897 43l-43 -43h-286l-43 43l43 43h286zM611 339l-43 -43l-43 43v120l43 43l43 -43v-120zM839 279l-43 -43h-170l-43 43l43 43h170z" />
    <glyph glyph-name="afii10023" unicode="&#x401;" 
d="M409 697l-45 -43h-208l-85 86h295zM141 429l-43 -43l-43 43v295l86 -85v-210zM409 369l-45 -43h-208l-43 43l43 43h210zM141 101l-86 -85v295l43 43l43 -43v-210zM409 43l-43 -43h-295l85 86h210zM207 761h-86v86h86v-86zM320 761h-86v86h86v-86z" />
    <glyph glyph-name="afii10071" unicode="&#x451;" horiz-adv-x="480" 
d="M369 517l-45 -43h-168l-43 43l43 43h170zM426 339l-43 -43l-43 43v120l43 43l43 -43v-120zM141 101l-43 -43l-43 43v120l43 43l43 -43v-120zM369 43l-43 -43h-170l-43 43l43 43h170zM141 339l-43 -43l-43 43v120l43 43l43 -43v-120zM369 279l-43 -43h-170l-43 43l43 43
h170zM227 654h-86v86h86v-86zM340 654h-86v86h86v-86z" />
    <glyph glyph-name="afii10097" unicode="&#x44f;" horiz-adv-x="480" 
d="M324 474h-168l-43 43l43 43h255zM426 339l-43 -43l-43 43v120l86 85v-205zM426 43l-43 -43l-43 43v178l43 43l43 -43v-178zM141 339l-43 -43l-43 43v120l43 43l43 -43v-120zM369 279l-43 -43h-170l-43 43l43 43h170zM317 151l-201 -151h-61v61l202 154h60v-64z" />
    <glyph glyph-name="afii10065" unicode="&#x430;" horiz-adv-x="480" 
d="M369 517l-45 -43h-168l-43 43l43 43h170zM426 339l-43 -43l-43 43v120l43 43l43 -43v-120zM426 16l-86 85v120l43 43l43 -43v-205zM141 101l-43 -43l-43 43v120l43 43l43 -43v-120zM411 0h-255l-43 43l43 43h170zM369 279l-43 -43h-170l-43 43l43 43h170z" />
    <glyph glyph-name="afii10066" unicode="&#x431;" horiz-adv-x="480" 
d="M369 517l-45 -43h-168l-43 43l43 43h170zM426 339l-43 -43l-43 43v120l43 43l43 -43v-120zM426 101l-43 -43l-43 43v120l43 43l43 -43v-120zM141 101l-43 -43l-43 43v120l43 43l43 -43v-120zM369 43l-43 -43h-170l-43 43l43 43h170zM141 339l-43 -43l-43 43v120l43 43
l43 -43v-120zM141 577l-43 -43l-43 43v60l43 43l43 -43v-60zM369 697l-43 -43h-170l-43 43l43 43h170z" />
    <glyph glyph-name="afii10067" unicode="&#x432;" horiz-adv-x="480" 
d="M369 517l-45 -43h-168l-85 86h255zM426 339l-43 -43l-43 43v120l43 43l43 -43v-120zM426 101l-43 -43l-43 43v120l43 43l43 -43v-120zM141 101l-86 -85v205l43 43l43 -43v-120zM369 43l-43 -43h-255l85 86h170zM141 339l-43 -43l-43 43v205l86 -85v-120zM369 279l-43 -43
h-170l-43 43l43 43h170z" />
    <glyph glyph-name="afii10068" unicode="&#x433;" horiz-adv-x="480" 
d="M369 517l-45 -43h-168l-85 86h255zM141 43l-43 -43l-43 43v178l43 43l43 -43v-178zM141 339l-43 -43l-43 43v205l86 -85v-120z" />
    <glyph glyph-name="afii10069" unicode="&#x434;" horiz-adv-x="480" 
d="M426 338l-43 -43l-43 43v178l43 43l43 -43v-178zM319 380l-117 -116h-61v61l178 180v-125zM426 16l-86 85v120l43 43l43 -43v-205zM141 101l-86 -85v205l43 43l43 -43v-120zM411 0h-340l85 86h168zM426 -137l-43 -43l-43 43v112h86v-112zM141 -137l-43 -43l-43 43v112h86
v-112z" />
    <glyph glyph-name="afii10070" unicode="&#x435;" horiz-adv-x="480" 
d="M369 517l-45 -43h-168l-43 43l43 43h170zM426 339l-43 -43l-43 43v120l43 43l43 -43v-120zM141 101l-43 -43l-43 43v120l43 43l43 -43v-120zM369 43l-43 -43h-170l-43 43l43 43h170zM141 339l-43 -43l-43 43v120l43 43l43 -43v-120zM369 279l-43 -43h-170l-43 43l43 43
h170z" />
    <glyph glyph-name="afii10072" unicode="&#x436;" horiz-adv-x="480" 
d="M426 339l-43 -43l-43 43v178l43 43l43 -43v-178zM141 339l-43 -43l-43 43v178l43 43l43 -43v-178zM284 344h-86v115l43 43l43 -43v-115zM284 99l-43 -43l-43 43v115h86v-115zM369 279l-43 -43h-170l-43 43l43 43h170zM426 43l-43 -43l-43 43v178l43 43l43 -43v-178z
M141 43l-43 -43l-43 43v178l43 43l43 -43v-178z" />
    <glyph glyph-name="afii10073" unicode="&#x437;" horiz-adv-x="480" 
d="M369 517l-45 -43h-168l-43 43l43 43h170zM426 339l-43 -43l-43 43v120l43 43l43 -43v-120zM426 101l-43 -43l-43 43v120l43 43l43 -43v-120zM369 43l-43 -43h-170l-43 43l43 43h170zM369 279l-43 -43h-170l-43 43l43 43h170z" />
    <glyph glyph-name="afii10074" unicode="&#x438;" horiz-adv-x="480" 
d="M426 339l-43 -43l-43 43v178l43 43l43 -43v-178zM426 43l-43 -43l-43 43v178l43 43l43 -43v-178zM141 43l-43 -43l-43 43v178l43 43l43 -43v-178zM141 339l-43 -43l-43 43v178l43 43l43 -43v-178zM317 155l-95 -112h-60v61l99 117h56v-66z" />
    <glyph glyph-name="afii10075" unicode="&#x439;" horiz-adv-x="480" 
d="M426 339l-43 -43l-43 43v178l43 43l43 -43v-178zM426 43l-43 -43l-43 43v178l43 43l43 -43v-178zM141 43l-43 -43l-43 43v178l43 43l43 -43v-178zM141 339l-43 -43l-43 43v178l43 43l43 -43v-178zM317 155l-95 -112h-60v61l99 117h56v-66zM339 697l-45 -43h-108l-43 43
l43 43h110z" />
    <glyph glyph-name="afii10076" unicode="&#x43a;" horiz-adv-x="480" 
d="M426 43l-43 -43l-43 43v178l43 43l43 -43v-178zM141 43l-43 -43l-43 43v178l43 43l43 -43v-178zM141 339l-43 -43l-43 43v178l43 43l43 -43v-178zM369 279l-43 -43h-170l-43 43l43 43h170zM426 499l-205 -153h-59v64l203 150h61v-61z" />
    <glyph glyph-name="afii10077" unicode="&#x43b;" horiz-adv-x="480" 
d="M426 338l-43 -43l-43 43v178l43 43l43 -43v-178zM319 380l-117 -116h-61v61l178 180v-125zM426 42l-43 -43l-43 43v178l43 43l43 -43v-178zM141 42l-43 -43l-43 43v178l43 43l43 -43v-178z" />
    <glyph glyph-name="afii10078" unicode="&#x43c;" horiz-adv-x="480" 
d="M426 339l-43 -43l-43 43v120l43 43l43 -43v-120zM426 43l-43 -43l-43 43v178l43 43l43 -43v-178zM284 339l-43 -43l-43 43v115h86v-115zM369 517l-45 -43h-168l-43 43l43 43h170zM141 43l-43 -43l-43 43v178l43 43l43 -43v-178zM141 339l-43 -43l-43 43v120l43 43l43 -43
v-120z" />
    <glyph glyph-name="afii10079" unicode="&#x43d;" horiz-adv-x="480" 
d="M426 339l-43 -43l-43 43v178l43 43l43 -43v-178zM426 43l-43 -43l-43 43v178l43 43l43 -43v-178zM141 43l-43 -43l-43 43v178l43 43l43 -43v-178zM141 339l-43 -43l-43 43v178l43 43l43 -43v-178zM369 279l-43 -43h-170l-43 43l43 43h170z" />
    <glyph glyph-name="afii10080" unicode="&#x43e;" horiz-adv-x="480" 
d="M369 517l-45 -43h-168l-43 43l43 43h170zM426 339l-43 -43l-43 43v120l43 43l43 -43v-120zM426 101l-43 -43l-43 43v120l43 43l43 -43v-120zM141 101l-43 -43l-43 43v120l43 43l43 -43v-120zM369 43l-43 -43h-170l-43 43l43 43h170zM141 339l-43 -43l-43 43v120l43 43
l43 -43v-120z" />
    <glyph glyph-name="afii10081" unicode="&#x43f;" horiz-adv-x="480" 
d="M324 474h-168l-85 86h340zM426 339l-43 -43l-43 43v120l86 85v-205zM426 43l-43 -43l-43 43v178l43 43l43 -43v-178zM141 43l-43 -43l-43 43v178l43 43l43 -43v-178zM141 339l-43 -43l-43 43v205l86 -85v-120z" />
    <glyph glyph-name="afii10082" unicode="&#x440;" horiz-adv-x="480" 
d="M369 517l-45 -43h-168l-85 86h255zM426 339l-43 -43l-43 43v120l43 43l43 -43v-120zM426 101l-43 -43l-43 43v120l43 43l43 -43v-120zM141 101l-43 -43l-43 43v120l43 43l43 -43v-120zM369 43l-43 -43h-170l-43 43l43 43h170zM141 339l-43 -43l-43 43v205l86 -85v-120z
M141 -195l-43 -43l-43 43v178l43 43l43 -43v-178z" />
    <glyph glyph-name="afii10083" unicode="&#x441;" horiz-adv-x="480" 
d="M369 517l-45 -43h-168l-43 43l43 43h170zM141 101l-43 -43l-43 43v120l43 43l43 -43v-120zM369 43l-43 -43h-170l-43 43l43 43h170zM141 339l-43 -43l-43 43v120l43 43l43 -43v-120z" />
    <glyph glyph-name="afii10084" unicode="&#x442;" horiz-adv-x="480" 
d="M284 339l-43 -43l-43 43v115h86v-115zM284 43l-43 -43l-43 43v178l43 43l43 -43v-178zM427 517l-45 -43h-284l-43 43l43 43h286z" />
    <glyph glyph-name="afii10085" unicode="&#x443;" horiz-adv-x="480" 
d="M426 339l-43 -43l-43 43v178l43 43l43 -43v-178zM426 101l-43 -43l-43 43v120l43 43l43 -43v-120zM141 101l-43 -43l-43 43v120l43 43l43 -43v-120zM369 43l-43 -43h-170l-43 43l43 43h170zM141 339l-43 -43l-43 43v178l43 43l43 -43v-178zM426 -137l-43 -43l-43 43v120
l43 43l43 -43v-120zM369 -195l-43 -43h-170l-43 43l43 43h170z" />
    <glyph glyph-name="afii10086" unicode="&#x444;" horiz-adv-x="480" 
d="M369 517l-45 -43h-168l-43 43l43 43h170zM426 339l-43 -43l-43 43v120l43 43l43 -43v-120zM426 101l-43 -43l-43 43v120l43 43l43 -43v-120zM141 101l-43 -43l-43 43v120l43 43l43 -43v-120zM369 43l-43 -43h-170l-43 43l43 43h170zM141 339l-43 -43l-43 43v120l43 43
l43 -43v-120zM284 339l-43 -43l-43 43v115h86v-115zM284 106h-86v115l43 43l43 -43v-115zM284 580h-86v117l43 43l43 -43v-117zM284 -195l-43 -43l-43 43v173h86v-173z" />
    <glyph glyph-name="afii10087" unicode="&#x445;" horiz-adv-x="480" 
d="M426 0h-62l-112 179v91h39l135 -205v-65zM229 179l-112 -179h-62v65l135 205h39v-91zM426 495l-135 -205h-39v77l112 193h62v-65zM229 290h-39l-135 205v65h62l112 -193v-77z" />
    <glyph glyph-name="afii10088" unicode="&#x446;" horiz-adv-x="480" 
d="M426 339l-43 -43l-43 43v178l43 43l43 -43v-178zM141 339l-43 -43l-43 43v178l43 43l43 -43v-178zM426 16l-86 85v120l43 43l43 -43v-205zM141 101l-86 -85v205l43 43l43 -43v-120zM411 0h-340l85 86h168zM426 -137l-43 -43l-43 43v112h86v-112z" />
    <glyph glyph-name="afii10089" unicode="&#x447;" horiz-adv-x="480" 
d="M426 339l-43 -43l-43 43v178l43 43l43 -43v-178zM426 43l-43 -43l-43 43v178l43 43l43 -43v-178zM141 339l-43 -43l-43 43v178l43 43l43 -43v-178zM369 279l-43 -43h-170l-43 43l43 43h170z" />
    <glyph glyph-name="afii10090" unicode="&#x448;" horiz-adv-x="480" 
d="M426 339l-43 -43l-43 43v178l43 43l43 -43v-178zM141 339l-43 -43l-43 43v178l43 43l43 -43v-178zM284 339l-43 -43l-43 43v178l43 43l43 -43v-178zM426 16l-86 85v120l43 43l43 -43v-205zM141 101l-86 -85v205l43 43l43 -43v-120zM284 106h-86v115l43 43l43 -43v-115z
M411 0h-340l85 86h168z" />
    <glyph glyph-name="afii10091" unicode="&#x449;" horiz-adv-x="480" 
d="M426 339l-43 -43l-43 43v178l43 43l43 -43v-178zM141 339l-43 -43l-43 43v178l43 43l43 -43v-178zM284 339l-43 -43l-43 43v178l43 43l43 -43v-178zM426 16l-86 85v120l43 43l43 -43v-205zM141 101l-86 -85v205l43 43l43 -43v-120zM284 106h-86v115l43 43l43 -43v-115z
M411 0h-340l85 86h168zM426 -137l-43 -43l-43 43v112h86v-112z" />
    <glyph glyph-name="afii10092" unicode="&#x44a;" horiz-adv-x="480" 
d="M426 101l-43 -43l-43 43v120l43 43l43 -43v-120zM141 101l-86 -85v205l43 43l43 -43v-120zM369 43l-43 -43h-255l85 86h170zM369 279l-43 -43h-170l-43 43l43 43h170zM130 559l-85 -86h-18l-45 43l43 43h105zM141 339l-43 -43l-43 43v120l86 85v-205z" />
    <glyph glyph-name="afii10093" unicode="&#x44b;" horiz-adv-x="480" 
d="M284 101l-43 -43l-43 43v120l43 43l43 -43v-120zM141 101l-86 -85v205l43 43l43 -43v-120zM227 43l-43 -43h-113l85 86h28zM141 339l-43 -43l-43 43v178l43 43l43 -43v-178zM227 279l-43 -43h-28l-43 43l43 43h28zM426 339l-43 -43l-43 43v178l43 43l43 -43v-178zM426 43
l-43 -43l-43 43v178l43 43l43 -43v-178z" />
    <glyph glyph-name="afii10094" unicode="&#x44c;" horiz-adv-x="480" 
d="M426 101l-43 -43l-43 43v120l43 43l43 -43v-120zM141 101l-86 -85v205l43 43l43 -43v-120zM369 43l-43 -43h-255l85 86h170zM141 339l-43 -43l-43 43v178l43 43l43 -43v-178zM369 279l-43 -43h-170l-43 43l43 43h170z" />
    <glyph glyph-name="afii10095" unicode="&#x44d;" horiz-adv-x="480" 
d="M324 474h-168l-43 43l43 43h255zM426 339l-43 -43l-43 43v120l86 85v-205zM426 16l-86 85v120l43 43l43 -43v-205zM411 0h-255l-43 43l43 43h170zM369 279l-43 -43h-170l-43 43l43 43h170z" />
    <glyph glyph-name="afii10096" unicode="&#x44e;" horiz-adv-x="480" 
d="M141 43l-43 -43l-43 43v178l43 43l43 -43v-178zM141 339l-43 -43l-43 43v178l43 43l43 -43v-178zM224 279l-43 -43h-25l-43 43l43 43h25zM369 517l-45 -43h-25l-43 43l43 43h27zM426 339l-43 -43l-43 43v120l43 43l43 -43v-120zM426 101l-43 -43l-43 43v120l43 43l43 -43
v-120zM284 101l-43 -43l-43 43v120l43 43l43 -43v-120zM369 43l-43 -43h-27l-43 43l43 43h27zM284 339l-43 -43l-43 43v120l43 43l43 -43v-120z" />
    <glyph glyph-name="currency" unicode="&#xa4;" horiz-adv-x="278" 
 />
    <glyph glyph-name="guilsinglleft" unicode="&#x2039;" horiz-adv-x="480" 
d="M342 0h-61l-259 268h123l197 -207v-61zM342 499l-197 -207h-123l259 268h61v-61z" />
    <glyph glyph-name="guilsinglright" unicode="&#x203a;" horiz-adv-x="480" 
d="M344 292h-123l-197 207v61h61zM344 268l-259 -268h-61v61l197 207h123z" />
    <glyph glyph-name="daggerdbl" unicode="&#x2021;" horiz-adv-x="278" 
 />
    <glyph glyph-name="periodcentered" unicode="&#xb7;" horiz-adv-x="278" 
 />
    <glyph glyph-name="periodcentered" unicode="&#x2219;" horiz-adv-x="278" 
 />
    <glyph glyph-name="quotesinglbase" unicode="&#x201a;" horiz-adv-x="180" 
d="M110 -71h-61v61l97 96l60 -61z" />
    <glyph glyph-name="perthousand" unicode="&#x2030;" horiz-adv-x="278" 
 />
    <glyph glyph-name="brokenbar" unicode="&#xa6;" horiz-adv-x="278" 
 />
    <glyph glyph-name="hyphenminus" horiz-adv-x="340" 
d="M319 369l-45 -43h-218l-43 43l43 43h220z" />
    <glyph glyph-name="Euro" unicode="&#x20ac;" 
d="M479 599h-19c-9 69 -58 101 -125 101c-113 0 -154 -98 -167 -258h261l-14 -37h-248c-1 -10 -1 -23 -1 -33v-35h223l-13 -36h-208c10 -168 67 -261 168 -261c58 0 114 27 124 102h19l-5 -79c-25 -35 -68 -63 -155 -63c-146 0 -220 104 -234 301h-66l14 36h48
c-1 9 -1 27 -1 36c0 8 0 23 1 32h-62l14 37h51c17 191 77 298 235 298c93 0 135 -31 155 -58z" />
  </font>
</defs>
</svg>
