<svg xmlns="http://www.w3.org/2000/svg" viewBox="0 0 90 58"><path d="M8.2 32.6h12.6v-7.8H8.2V10h14.3V1.8H0v54.4h22.7V48H8.2zm39.8.5L36.7 1.8h-8v54.4h8.2V24.9l11.3 31.3h8.1V1.8H48zM90 18v-2.6c0-5.9-2.4-9.3-3.8-10.8C84 2.3 80.6 1 76.8 1c-2.6 0-7.5.7-10.6 5.3-2.3 3.3-2.5 6.7-2.5 10.1v27c0 4.1.9 7.2 2.7 9.6 2.1 2.7 4.8 4 8.4 4 1.5 0 3.8-.1 5.9-1.4 1.3-.7 2.4-1.7 3.2-3l1.6 3.6H90V26.1H75.6v7.8h6.2v6.7c0 1.8 0 4.3-1.2 6-.8 1.1-2.4 1.9-3.8 1.9-1.5 0-2.8-.6-3.7-1.7-1.1-1.6-1.1-4-1.1-5.2V16.5c0-1.8 0-3.7 1.3-5.3.9-1.1 2.2-1.7 3.7-1.7 1.9 0 3 .7 3.6 1.4 1.2 1.2 1.3 2.7 1.3 4V18H90z"/></svg>