<svg xmlns="http://www.w3.org/2000/svg" viewBox="0 0 86 74"><path d="M62 46.6l8 8H54.1c-4.9 0-8.8-5.3-12.4-11.8-1.2 2.4-2.5 4.9-3.9 7.3 4.2 6.6 9.1 11.6 16.3 11.6H70l-8 8 4.4 4.4 15.9-15.9-15.9-15.9-4.4 4.3zM27.7 31.2c1.2-2.4 2.5-4.9 3.9-7.3-4.2-6.6-9.1-11.6-16.3-11.6H4.7v7h10.6c4.9.1 8.8 5.4 12.4 11.9zm26.4-11.8H70l-8 8 4.4 4.4 15.9-15.9L66.4 0 62 4.4l8 8H54.1c-11 0-16.9 11.7-22.5 23.1-4.7 9.4-9.6 19.2-16.2 19.2H4.7v7h10.6c11 0 16.9-11.7 22.5-23.1 4.8-9.5 9.6-19.2 16.3-19.2z" fill="#231f20"/></svg>