<svg width="120" height="120" fill="none" xmlns="http://www.w3.org/2000/svg"><path d="M117.723 24.122a47.423 47.423 0 0 1-13.631 3.738 23.842 23.842 0 0 0 10.434-13.124 47.853 47.853 0 0 1-15.084 5.763A23.672 23.672 0 0 0 82.115 13c-13.11 0-23.74 10.63-23.74 23.733 0 1.859.21 3.674.615 5.41C39.263 41.15 21.77 31.7 10.063 17.338A23.559 23.559 0 0 0 6.852 29.27c0 8.237 4.194 15.504 10.558 19.756a23.74 23.74 0 0 1-10.753-2.979v.297c0 11.497 8.186 21.093 19.04 23.277a24.047 24.047 0 0 1-6.255.832c-1.533 0-3.016-.152-4.47-.441 3.024 9.436 11.788 16.299 22.172 16.487-8.12 6.364-18.36 10.146-29.482 10.146-1.916 0-3.804-.116-5.662-.326C12.507 103.066 24.981 107 38.388 107c43.67 0 67.541-36.171 67.541-67.54l-.08-3.074a47.414 47.414 0 0 0 11.874-12.264z" fill="#010002"/></svg>