<svg width="120" height="120" fill="none" xmlns="http://www.w3.org/2000/svg"><path d="M106.374 77.122a13.99 13.99 0 0 0-2.787-7.682L55.435 5.33C52.535 1.75 47.916 0 42.595 0c-6.464 0-13.348 3.206-20.052 8.288-12.234 9.267-14.225 21.503-8.41 29.881l46.749 63.311a14.005 14.005 0 0 0 6.857 4.972l35.306 11.706c2.672.886 5.399-1.193 5.253-4.005l-1.924-37.031zm-11.16 25.013a9.442 9.442 0 0 0-3.415 5.075l-20.477-6.822c4.627-7.085 6.151-15.187 4.268-23.393 7.331 4.08 16.083 4.403 24.14 1.876l1.277 21.366a9.316 9.316 0 0 0-5.793 1.898zM53.76 15.92l4.932 6.584c-5.762.628-12.1 3.154-17.854 7.511-5.77 4.372-9.94 9.806-12.13 15.21l-4.925-6.578c.18-.837.411-1.584.62-2.204.845-2.422 2.175-4.828 3.947-7.175 1.883-2.496 4.192-4.776 6.838-6.786 2.645-2.003 5.463-3.595 8.37-4.731 2.728-1.069 5.404-1.69 7.952-1.831.65-.037 1.412-.052 2.25 0zm16.427 48.818L46.204 32.743a34.402 34.402 0 0 1 6.203-3.198c2.72-1.07 5.403-1.682 7.952-1.84a23.088 23.088 0 0 1 2.242.008l34.73 46.322a25.46 25.46 0 0 1-10.321.657c-6.75-.956-12.72-4.491-16.823-9.954zM32.624 50.441c.18-.83.411-1.577.62-2.197.853-2.422 2.175-4.836 3.954-7.175a34.089 34.089 0 0 1 4.768-5.112l23.976 31.987-.008.008c4.103 5.463 5.845 12.212 4.896 18.99a25.804 25.804 0 0 1-3.483 9.806L32.624 50.44zm-3.819-36.456c2.534-1.914 5.217-3.4 7.975-4.41 2.451-.89 4.887-1.36 7.04-1.36 2.57 0 4.596.673 5.545 1.854l.486.635c-5.762.635-12.1 3.161-17.854 7.518-5.77 4.365-9.94 9.806-12.122 15.21l-.494-.658c-2.16-3.11.433-11.981 9.424-18.79z" fill="#000"/></svg>