<svg width="120" height="120" fill="none" xmlns="http://www.w3.org/2000/svg"><path d="M113.873 31.881a14.092 14.092 0 0 0-9.915-9.916c-8.803-2.41-44.018-2.41-44.018-2.41s-35.213 0-44.017 2.318c-4.726 1.297-8.618 5.19-9.915 10.008C3.691 40.684 3.691 58.94 3.691 58.94s0 18.348 2.317 27.058a14.096 14.096 0 0 0 9.916 9.916c8.896 2.41 44.017 2.41 44.017 2.41s35.214 0 44.017-2.318a14.095 14.095 0 0 0 9.917-9.915c2.316-8.803 2.316-27.058 2.316-27.058s.092-18.349-2.318-27.152zM48.728 75.805v-33.73L78.011 58.94 48.73 75.805z" fill="#000"/></svg>