<svg width="120" height="120" fill="red" xmlns="http://www.w3.org/2000/svg"><path d="M115.029 81.01c-3.573-4.286-7.777-7.944-11.756-11.827-3.589-3.501-3.815-5.532-.93-9.572 3.149-4.41 6.535-8.65 9.713-13.04 2.966-4.103 5.998-8.195 7.558-13.107.99-3.125.115-4.505-3.09-5.053-.552-.095-1.123-.1-1.685-.1l-19.013-.023c-2.342-.035-3.637.986-4.465 3.062-1.118 2.806-2.27 5.609-3.603 8.316-3.022 6.138-6.397 12.072-11.129 17.096-1.043 1.108-2.197 2.508-3.94 1.931-2.182-.796-2.825-4.39-2.789-5.605l-.019-21.946c-.422-3.135-1.118-4.533-4.23-5.142l-19.751.004c-2.636 0-3.959 1.018-5.366 2.667-.812.953-1.057 1.57.612 1.887 3.278.622 5.124 2.743 5.614 6.03.786 5.252.732 10.525.279 15.797-.133 1.54-.398 3.076-1.008 4.514-.956 2.26-2.498 2.72-4.523 1.329-1.835-1.259-3.123-3.035-4.384-4.818-4.737-6.693-8.516-13.91-11.598-21.495-.89-2.192-2.426-3.52-4.748-3.556-5.704-.09-11.41-.106-17.114.005C.23 28.43-.792 30.095.606 33.207c6.213 13.82 13.128 27.256 22.156 39.495 4.634 6.282 9.956 11.827 16.83 15.757 7.791 4.454 16.178 5.795 25.012 5.382 4.136-.194 5.378-1.27 5.57-5.392.13-2.82.449-5.625 1.84-8.16 1.366-2.487 3.434-2.96 5.818-1.414 1.192.775 2.197 1.761 3.146 2.801 2.328 2.547 4.573 5.17 6.99 7.632 3.03 3.084 6.62 4.906 11.134 4.534l17.475.004c2.816-.184 4.276-3.636 2.659-6.779-1.135-2.201-2.625-4.161-4.207-6.058z" fill="#000"/></svg>