<svg width="120" height="120" fill="none" xmlns="http://www.w3.org/2000/svg"><path fill-rule="evenodd" clip-rule="evenodd" d="M70.116 3.348C72.661 1.953 80.912-.302 86.444.034c5.532.335 12.376 2.77 16.776 7.434 4.356 4.616 6.016 9 7 18 1.144 10.454-1.928 25.23-8.501 36.096-.758 1.42.809-1.338 0 0 2.001 12.404 1.874 25.077-.499 36.404-1.199 5.724-2.273 9.369-4.839 13.361-1.666 2.592-5.809 8.639-12.726 8.639-2.725 0-4.99-.962-6.721-2.717-1.635-1.659-3.62-3.848-4.273-6.06-1.094-3.702-1.157-6.195-1.545-10.655-.495-5.364-1.776-14.012-2.896-18.013-1.12-4-3.62-4.94-7.81-4.94-4.19 0-5.736 1.12-7.61 4.94-1.692 3.45-2.684 10.133-3.35 15.506-.553 4.586-1.14 9.471-2.476 13.3-.777 2.228-1.897 4.395-3.654 6.019-1.836 1.698-4.173 2.62-6.957 2.62-4.491 0-8.437-2.518-10.521-6-2.084-3.481-5.284-9.881-6.255-14.624-1.954-9.537-.367-16.681-.367-23.376 1-8.5-2.148-13.5-5.5-24 0 0-2.768-9.698-3.5-18.628-.75-9.145.343-16.3 4.352-22.372C18.667 4.766 26.212.028 34.56.028c8.627 0 13.434 1.782 17.177 3.612.646.316-.54-.274 0 0 0 0 4.047 1.828 8.675 1.828 4.628 0 9.705-2.12 9.705-2.12zm26.265 67.338c-1.724 2.312-4.14 4.817-6.127 6.826a3.048 3.048 0 0 1-4.554-.264c-.92-1.176-.832-2.846.141-3.978 3.544-4.119 8.17-10.629 11.933-17.679 4.444-8.325 7.015-14.623 5.946-30.123-1.069-15.5-12.888-18.735-17.276-19-4.388-.266-9.672.572-13.494 2.182-.37.198.382-.211 0 0 0 0-6.365 3.402-12.54 3.402-6.174 0-11.315-3.01-11.315-3.01-.479-.249.467.227 0 0-6.138-3.002-11.51-2.706-15.023-2.574-5.486.206-10.9 4.53-13.852 9-3.036 4.599-3.743 10.703-3.148 19 1.148 16 3.648 19.5 3.648 19.5s5 11 5 20c0 6.561-1.474 14.626.357 23.568.922 4.497 3.426 9.468 4.995 12.089 1.57 2.62 3.826 2.729 5.29 2.729 4.71 0 5.71-6.886 7.116-15.036 0 0 1.888-14.353 4.094-18.85 1.132-2.308 2.133-7.897 12.839-7.897 10.705 0 11.406 4.627 13.161 8.397 2.104 4.517 3.018 14.12 3.5 19.352 0 0 0 15.648 9.372 14.034 0 0 4.776.522 8.276-14.034 1.95-8.105 3.5-19.352 1.661-27.634z" fill="#000"/><path fill-rule="evenodd" clip-rule="evenodd" d="M74.462 16.42c2.04.98 2.5 3.554.636 4.837-2.902 1.997-7.641 4.325-14.125 4.51-6.54.187-11.217-2.71-13.716-5.795-1.491-1.84.049-4.099 2.407-4.323 1.138-.109 2.246.536 3.1 1.296 1.257 1.119 3.677 2.443 8.037 2.318 4.398 0 7.862-1.484 9.842-2.596 1.169-.657 2.61-.828 3.82-.247z" fill="#000"/></svg>