<svg width="350" height="101" fill="none" xmlns="http://www.w3.org/2000/svg"><path d="M20.592 29.584h-2.736c-.684 3.132-2.952 5.184-6.156 5.184-1.692 0-3.312-.648-4.428-1.8-1.62-1.656-1.8-3.42-1.8-8.784 0-5.364.18-7.128 1.8-8.784 1.116-1.152 2.736-1.8 4.428-1.8 3.204 0 5.4 2.052 6.084 5.184h2.808c-.864-4.824-4.284-7.632-8.892-7.632-2.52 0-4.824.936-6.552 2.664-2.412 2.412-2.412 4.932-2.412 10.368s0 7.956 2.412 10.368c1.728 1.728 4.032 2.664 6.552 2.664 4.572 0 8.064-2.808 8.892-7.632zM58.958 37l-6.084-11.628c3.312-.684 5.58-3.132 5.58-6.876 0-4.428-3.132-7.128-7.596-7.128H41.03V37h2.736V25.624h6.156L55.754 37h3.204zm-3.24-18.468c0 3.132-2.124 4.68-5.112 4.68h-6.84v-9.396h6.84c2.988 0 5.112 1.584 5.112 4.716zM94.967 37v-2.448H81.79V25.3h11.232v-2.448H81.79v-9.036h13.176v-2.448H79.055V37h15.912zm37.93 0l-9.396-25.632h-2.304L111.765 37h2.916l2.052-5.796h11.196L129.981 37h2.916zm-5.76-8.172h-9.576l4.824-13.536 4.752 13.536zm37.107-15.012v-2.448h-17.568v2.448h7.416V37h2.736V13.816h7.416zM199.339 37v-2.448h-13.176V25.3h11.232v-2.448h-11.232v-9.036h13.176v-2.448h-15.912V37h15.912zm37.858-13.104c0-3.564.144-7.488-2.52-10.152-1.548-1.548-3.816-2.376-6.48-2.376h-8.784V37h8.784c2.664 0 4.932-.828 6.48-2.376 2.664-2.664 2.52-7.164 2.52-10.728zm-2.736 0c0 3.132.072 6.948-1.692 8.784-1.332 1.368-3.06 1.872-5.04 1.872h-5.58V13.816h5.58c1.98 0 3.708.504 5.04 1.872 1.764 1.836 1.692 5.076 1.692 8.208zm64.543 6.012c0-3.06-1.728-5.184-4.176-6.084 2.16-.792 3.78-2.916 3.78-5.616 0-4.284-3.096-6.84-7.56-6.84H281.4V37h9.972c4.536 0 7.632-2.448 7.632-7.092zm-2.736-.072c0 2.88-1.98 4.716-5.148 4.716h-6.984v-9.396h6.984c3.168 0 5.148 1.8 5.148 4.68zm-.396-11.592c0 3.06-2.196 4.464-5.04 4.464h-6.696v-8.892h6.696c2.844 0 5.04 1.368 5.04 4.428zm38.483-6.876h-2.952l-5.976 12.276-6.048-12.276h-2.952l7.632 15.048V37h2.736V26.416l7.56-15.048zM0 101v-5.23l18.481-29.326H.788V61h24.828v4.943L7.02 95.542h18.596v5.444H0V101zm91.433-15.73h-9.098V101h-6.06V61h15.172c7.808 0 12.808 5.172 12.808 12.135-.014 6.962-5.014 12.134-12.822 12.134zm-.33-18.826h-8.768v13.31h8.768c4.212 0 7.078-2.422 7.078-6.634s-2.866-6.676-7.078-6.676zM139.241 101V83.522h-16.232v17.464h-6.061V61h6.061v17.077h16.232V61h6.06v40h-6.06zm79.183 0L210 84.152h-7.579V101h-6.06V61h15.501c7.579 0 12.407 4.885 12.407 11.676 0 5.73-3.481 9.384-7.98 10.616l9.212 17.694h-7.077V101zm-7.02-34.556h-8.983v12.522h8.983c4.04 0 6.791-2.307 6.791-6.232.014-3.926-2.737-6.29-6.791-6.29zM238.481 101V61h6.061v34.542h19.269v5.444h-25.33V101zm89.026 0h-16.175V61h15.559c7.407 0 12.078 4.212 12.078 10.96 0 4.327-2.694 7.421-5.387 8.481 3.094 1.232 6.017 4.212 6.017 9.27-.014 7.35-5.014 11.289-12.092 11.289zm-1.132-34.556h-8.982v11.462h8.982c3.883 0 6.519-2.02 6.519-5.731 0-3.71-2.636-5.73-6.519-5.73zm.573 16.906h-9.555v12.192h9.555c4.212 0 6.576-2.58 6.576-6.118-.014-3.539-2.364-6.074-6.576-6.074z" fill="#fff"/><path d="M277.135 69.983s.2 9.785.444 21.461l-2.121-.072c.33-4.126.645-8.624.688-12.32.057-3.697-.172-6.576-.258-7.479l2.379-.014c-.072 1.232-.086 1.404-.101 1.533a116.836 116.836 0 0 0 .158 15.73l.043.502.014-.015c2.794-2.35 5.903-4.283 9.083-5.93 1.59-.832 3.209-1.591 4.828-2.336l2.078-.931-1.232-.459-2.465-.96a147.078 147.078 0 0 1-4.899-2.02 208.798 208.798 0 0 1-9.628-4.412l1.189-2.02a94.478 94.478 0 0 0 9.828 6.017 86.605 86.605 0 0 0 5.187 2.536l1.318.587 2.249.931 5.258 2.006-5.072 1.003-3.796.802a68.475 68.475 0 0 0-5.172 1.376c-3.381 1.074-6.619 2.55-9.356 4.727l-.974-1.547 15.831-7.436 1.691-.802.358-.157c.043-.029.157-.058.143-.086l-.143-.115a2.56 2.56 0 0 0-.315-.23l-.23-.142a4.498 4.498 0 0 0-.444-.273 20.848 20.848 0 0 0-1.876-.945c-2.594-1.132-5.416-1.848-8.21-2.765-2.163-.688-4.484-1.662-6.303-2.866l.659-1.174c5.845 2.75 12.407 5.83 15.172 7.134l-.445 1.29c-6.275-1.462-12.693-1.447-12.406-1.419l-.144-1.447a24.081 24.081 0 0 1 4.9-.601c.401 0 .702 0 1.175.014.559.029 1.117.057 1.619.115 1.031.1 1.848.272 2.564.415.731.158 1.361.301 1.877.401.272.057.53.115.745.172.229.058.387.086.344.143-.573.244-.602.273.086-.014-1.433.602-2.722 1.146-4.083 1.69-1.333.516-3.038 1.075-3.625 1.233a46.223 46.223 0 0 1-4.269 1.046c-.573.1-1.046.186-1.433.258l-.143.028c.014.358-.115-3.109-.058-1.647h.115c.072 0 .143.014.215.014.129 0 .229.014.301.014h.071c-.057 0-.128-.014-.257-.014-.058 0-.129-.014-.201-.014l-.115-.015h-.129c.029.745-.057-1.69.058 1.69l-.058-1.69c.602.043 1.19.072 1.763.058.286-.015.558-.03.831-.03l.401-.028c.186-.014.444-.043.659-.071 1.733-.201 3.868-.903 5.229-1.233.172-.043.344-.086.487-.128.115-.043.057 0 .043.028l-.057.086c-.072.1-.144.2-.287.344-.229.244-.387.387-.43.444l.187-.186c.086-.086.2-.215.358-.358.143-.144.186-.244.315-.401l-.215.3-.415.43c-.287.287-.573.588-.846.874l-1.633 1.676c-.831.846-1.604 1.648-2.321 2.379-.272.272-.487.501-.644.673-.144.115.057.029.1.029a.34.34 0 0 0 .129-.043c.028-.015-.043 0-.244.057 1.447-.373 2.565-.673 3.152-.831l.115-.029c1.031 3.568.286.989.515 1.791h-.014l-.029.014-.043.015c-.057.014-.114.043-.171.057-.115.043-.201.072-.273.1-.157.058-.243.086-.258.1.015 0 .043-.014.172-.057.072-.028.144-.057.258-.086.058-.014.115-.043.172-.057l.1-.028.058-.015.028-.014h.015c-.229-.802.516 1.79-.516-1.791l.516 1.79c-2.622.875-3.84 1.72-4.484 2.093-.631.415-.688.458-.688.458l-.817-1.19.717-.472c.687-.401 1.991-1.304 4.842-2.263l.272.96c-.559-1.92-.157-.53-.272-.96h-.029l-.057-.058-.057.014-.115.044c-.072.028-.143.042-.2.071l-.301.1a9.24 9.24 0 0 0-.23.086s.33-.129.932-.33h.014c.559 1.935.158.53.272.96l-.028.015-.058.014-.114.029c-.086.029-.172.043-.258.072-.187.043-.387.1-.602.157-.458.115-.989.258-1.576.416-1.562.4-3.438.888-5.587 1.447 2.851-.745 2.407-.602 0-.015.902-.93 2.192-2.249 3.768-3.868l1.576-1.619c.186-.186.372-.372.558-.573l.287-.3.143-.144-.215.057c.373-.143.014.115-.014.172l-.115.115.115-.115a.523.523 0 0 1 .129-.129c.014-.028.057-.057.071-.071l-.129.043c-.372.1-.888.229-1.518.3-.186.015-.387.044-.588.058-.315.028-.63.043-.959.043-.659.014-1.347 0-2.049-.057l-.043-1.09c.086 2.178.029.602.043 1.09h.1l.1.014c.072 0 .144.014.201.014.129 0 .244.014.344.014.215.015.372.015.501.015.244 0 .315 0 .244.014-.072 0-.301 0-.659-.014-.186-.014-.387-.014-.631-.029l-.186-.014h-.028c.043 1.017-.058-1.376-.043-1.132h.014l.043-.014.1-.015c.129-.028.258-.043.401-.071 1.132-.2 2.679-.516 4.47-1.017.444-.13.903-.273 1.376-.402.257-.086.53-.172.802-.272a19.153 19.153 0 0 0 1.547-.602c-.473.201-.63.244-.544.215.043-.014.143-.057.301-.129.057-.028.2-.071.229-.114-.115-.029-.244-.057-.373-.086a10.9 10.9 0 0 0-2.149-.23 23.119 23.119 0 0 0-5.444.56l-.129-1.29c.272 2.579.072.716.144 1.29h.028l.029-.015.071-.014c.043-.014.086-.014.129-.029.086-.014.144-.028.215-.043a1.21 1.21 0 0 1 .244-.043c.086-.014.043 0-.143.043a3.127 3.127 0 0 0-.359.086l-.114.029-.058.014h-.042c-.273-2.665-.072-.745-.144-1.332h.315c.43.014.975.028 1.619.043 2.55.1 6.591.473 10.745 1.404l-.472 1.36c1.805.889-6.462-2.965-15.215-7.034l.816-1.447c1.591 1.032 3.969 2.035 6.934 2.909 2.937.93 6.548 1.676 10.029 3.739.673.387 1.375.931 2.034 1.433l1.018.773c.014.015.057.029.057.043l-.072.029-.143.072-.272.143-.559.286a427.107 427.107 0 0 1-3.625 1.763c-1.776.86-3.581 1.733-5.372 2.607-3.582 1.733-7.149 3.467-10.487 5.086l-1.161-1.848a28.988 28.988 0 0 1 3.611-2.436c3.467-1.948 7.235-3.152 10.974-4.083l2.034-.487c.058-.014.029-.014.029-.014h-.029c-.558-.244-1.117-.473-1.69-.717a90.857 90.857 0 0 1-5.459-2.636 90.689 90.689 0 0 1-10-6.089l1.189-2.02a220.276 220.276 0 0 0 11.691 5.316c1.748.73 3.381 1.39 4.9 1.977 1.017.386 1.991.745 2.922 1.103l3.811 1.39c-6.275 2.693-7.622 3.266-10.301 4.555-2.435 1.175-4.67 2.393-6.662 3.697-.988.659-1.948 1.303-2.808 1.991l-.644.516c-.287.243-.588.487-.874.73l-2.106 1.892-.258.229-.129.114-.057.058-.015-.086-.057-.688-.129-1.347c-.072-.816-.129-1.604-.201-2.392-.057-.989-.114-1.949-.157-2.865-.315-7.35.086-12.293.301-14.886l1.361-.014c.301 3.925.215 7.091.114 9.613a164.457 164.457 0 0 1-.372 5.874c-.244 2.894-.358 3.997-.43 4.599l-1.103-.043c-.244-19.14-.272-21.462-.272-21.462l1.49-.071zm-106.232 1.533s-.115 4.985.114 10.258c.201 5.286.774 10.845.917 12.063l-2.378.086c.014-.487.014-.56.014-.616a184.54 184.54 0 0 0-.945-23.195l2.406-.215.029.315a198.723 198.723 0 0 0 2.321 19.054l-2.192.144a137.8 137.8 0 0 0-.086-18.367L172.88 71a169.017 169.017 0 0 0-.015 16.404c.072 1.49.172 3.138.287 4.484l-1.347.043c.1-3.538-.086-7.464-.444-10.745-.043-.415-.086-.816-.129-1.203-.029-.2-.057-.387-.072-.559a32.122 32.122 0 0 0-.129-.802c-.085-.459-.157-.76-.186-.888-.071-.33-.143-.645-.2-.946.014-.129-.115-.014-.172.029a.442.442 0 0 0-.144.215c-.071.157-.085.329-.1.501.015.673.058 1.246.072 1.762.1 2.507.186 4.613.258 6.304.172 4.097.258 6.218.258 6.218l-1.433.043-.201-5.23c-.071-1.991-.172-4.584-.286-7.908-.043-1.16-.086-2.392-.129-3.682.014-1.189.143-1.891.215-2.564.043-.33.1-.674.272-1.032.158-.344.444-.73.974-.945l.201-.072c.028.014.028.057.057.072l.086.172.186.358c.144.229.272.458.459.687-.058-.114-.072-.157-.043-.143.043-.086.1.272.215.76.1.5.243 1.189.415 2.02.158.902.358 1.948.545 3.266.1.63.2 1.347.286 2.092.057.472.115.96.172 1.475a65.23 65.23 0 0 1 .287 3.281 90.47 90.47 0 0 1 .214 7.536l-1.633.043c-.415-3.41-1.017-13.095-.73-21.075l2.134-.057a137.235 137.235 0 0 1 .602 10.745c.043 2.407-.014 5.129-.158 7.894l-2.392.158c-1.304-7.05-2.092-14.757-2.321-19.614l2.106-.186c1.203 13.18.688 21.232.544 24.083l-1.375.058c-.817-8.869-.759-14.528-.745-17.952.057-3.424.129-4.613.129-4.613l1.433.029z" fill="#E20950"/><path d="M159.699 78.98s4.312-1.204 8.954-1.862c4.642-.717 9.556-.803 10.387-.788l.917.014.129 2.378a59.31 59.31 0 0 0-17.708 5.143l-.788.373-.788-2.264a66.147 66.147 0 0 1 19.728-1.318l.029 2.106-19.485 1.504-.272-1.504a76.003 76.003 0 0 1 5.358-1.175c4.384-.86 10.344-1.36 13.296-1.39l-.23 1.362c-4.183-1.504-8.424-1.72-11.332-1.419-2.923.287-4.585.86-4.241.774l-.301-1.748c7.966-.773 9.513-.931 9.513-.931l.129 1.433s-1.074.1-9.513.902l-.172-1.031c.344 2.077.101.573.172 1.031h.172c.058 0 .101 0 .144-.014h.114s-.129.029-.401.057h-.043c.172.989-.229-1.332-.186-1.103l.057-.014.115-.029c.086-.014.172-.043.272-.072.2-.042.415-.1.673-.157.516-.115 1.146-.23 1.891-.344 2.952-.416 7.866-.616 13.381 1.347l2.25.802-2.464.544c-.258.058-2.68.1-6.118.487-3.438.373-7.865 1.147-12.092 2.35l-.343-1.877c3.166-.33 8.037-.845 12.063-1.275l5.1-.53c.688-.072 1.418-.143 2.278-.23l.028 2.394a74.28 74.28 0 0 0-10.085.057c-3.396.243-6.605.76-8.998 1.246l-.702-2.005a59.333 59.333 0 0 1 12.379-4.27c3.28-.73 5.601-.974 6.876-1.089l.072 1.419c-7.736-.144-12.722.73-15.745 1.26-1.519.287-2.55.516-3.195.66-.659.157-.931.214-.931.214l-.344-1.418zM36.089 97.69s21.848-1.303 23.897-1.432l1.046-.057.086 2.378a185.79 185.79 0 0 0-23.238 2.12l-.545.086-.286-2.407c8.997-.687 18.051-.788 27.048-.358l-.229 2.049a92.761 92.761 0 0 0-24.226-1.49l-.086-1.476 4.198-.143c7.278-.244 17.836-.745 21.833-.974l.1 1.49c-16.79 1.776-26.49 2.793-26.49 2.793l-.143-1.432s6.691-.688 26.49-2.737l.086 1.276s-.2.028-.587.057c-.387.028-.946.057-1.648.1a772.5 772.5 0 0 0-5.888.33c-4.87.243-11.375.587-17.88.916l-.114-1.848c4.413-.472 11.848-.601 17.75.029 2.135.2 4.27.487 6.39.83.187.03.387.058.63.101l-.257 2.35c-4.14-.129-9.155-.186-13.983-.086a318.68 318.68 0 0 0-12.822.501l-.244-2.12c12.923-1.877 21.017-1.848 24.083-1.862l.057 1.418c-19.297.788-24.97 1.017-24.97 1.017l-.058-1.418zm243.338-7.736s10.186-5.028 11.132-5.515l5.229-2.465.888 2.22a206.9 206.9 0 0 0-6.504 2.336 266.844 266.844 0 0 0-11.705 4.77l-.845-1.947 15.372-5.96c.946-.373 1.992-.803 2.995-1.204l.73-.3.301-.13c.1-.014.014-.1.172.043l.029.015.172.1c-.015-.014-.029-.014-.058-.014-.043-.015-.071 0-.057 0 .043.014.186-.13.158-.115v-.086l.014.014a.41.41 0 0 0 .114.058c.015 0-.085 0-.143.043-.057.043-.014.057-.043-.029l.416.73c-4.012 2.565-8.295 4.757-11.619 6.233-3.31 1.475-5.616 2.278-5.616 2.278l-.459-1.361s1.576-.53 4.513-1.777a83.494 83.494 0 0 0 12.436-6.576l.616 1.333a.872.872 0 0 1-.516.014.866.866 0 0 1-.458-.33c-.172-.257-.172-.43-.172-.616a.954.954 0 0 1 .258-.63c.214-.272.702-.33.888-.258.544.143.745.587.802.903.086.33-.115.83-.329 1.017-.473.43-.745.444-1.003.587-.273.13-.559.244-.86.387-1.203.53-2.607 1.146-4.097 1.805-2.966 1.29-6.261 2.722-8.911 3.883l-3.023 1.318c-.53.23-1.089.458-1.734.73l-.96-2.206c2.98-1.418 6.734-2.98 10.186-4.27 3.453-1.288 6.605-2.277 8.31-2.75l.645 1.605c-11.304 5.114-16.634 7.407-16.634 7.407l-.63-1.29zm11.433-7.206s-1.132.143-2.307.344c-1.175.186-2.393.43-2.593.472a60.732 60.732 0 0 0-3.897.731l-.301-2.378 1.06-.086c.473-.043.932-.1 1.39-.158l.63-.086c.029 0 .058 0 .058.015.071.014.229.028.558-.015.244-.028.129-.043.129-.086a.545.545 0 0 0-.186-.143 4.511 4.511 0 0 0-.387-.2l-1.346-.502c-.445-.157-.946-.315-1.333-.444l-1.963-.659 1.92-.616c.315-.1.315-.1.444-.129.101-.014.201-.043.287-.057.172-.029.286-.043.315-.058.301-.472-3.453-1.934-3.209-1.776l.501-1.347s.487.13 1.49.602c.244.115.53.258.846.43.172.1.272.157.53.315.243.157.487.315.73.501.502.359.989.788 1.505 1.247.258.243.544.501.816.76.043.056.201.171.172.171v.086a.891.891 0 0 0 .129.287c-.029-.072.057-.03.057.028-.2 0-.558 0-1.045-.014-.488 0-1.132-.029-1.677.014a7.203 7.203 0 0 0-.802.13 4.487 4.487 0 0 0-.63.185l-.043-1.533a76.79 76.79 0 0 1 2.65.66c.946.272 1.934.558 2.908.83 1.147.301 1.834.602 2.637.889l1.045.386.258.1c.029.015.129.03.101.044l-.129.057-.516.2c-.831.33-1.748.674-2.779 1.047a22.77 22.77 0 0 1-3.568.916 16.93 16.93 0 0 1-3.481.215l-.258-1.948a55.28 55.28 0 0 1 6.647-.76c1.591-.085 2.493-.071 2.493-.071l.144 1.404z" fill="#E20950"/><path d="M282.693 74.668s.086 3.323.101 3.639c-.115 1.074-.23 2.335-.373 3.682-.129 1.332-.43 2.65-.788 3.954l-4.14-.186c.186-1.462.415-2.952.516-4.428.086-1.217-.158-3.008-.445-4.498-.286-1.49-.601-2.665-.601-2.665l2.865-.3s.387 1.747.817 3.954c.43 2.206.874 4.87 1.146 6.661l.143.975c.014.071.014.143.029.229l-4.757-.215c.101-3.61 2.622-11.103 2.622-11.103l2.865.3z" fill="#E20950"/></svg>